<?xml version="1.0" encoding="utf-8"?>
<svg version="1.1" xmlns:xlink="http://www.w3.org/1999/xlink" width="110px" height="112px" xmlns="http://www.w3.org/2000/svg">
  <g transform="matrix(1 0 0 1 -77 -301 )">
    <path d="M 77 301  L 187 301  L 187 413  L 77 413  L 77 301  " fill-rule="nonzero" fill="rgba(204, 204, 204, 1)" stroke="none" class="fill" />
    <path d="M 85 309  L 179 309  L 179 405  L 85 405  L 85 309  " fill-rule="nonzero" fill="rgba(255, 255, 255, 1)" stroke="none" class="fill" />
    <path d="M 142.45 334.3  C 137.82999999999998 334.3  134.2 330.67  134.2 326.05  C 134.2 321.43  137.82999999999998 317.8  142.45 317.8  C 147.07 317.8  150.7 321.43  150.7 326.05  C 150.7 330.67  147.07 334.3  142.45 334.3  " fill-rule="nonzero" fill="rgba(204, 204, 204, 1)" stroke="none" class="fill" />
    <path d="M 88 402  L 88 352.5  L 110 330  L 140.8 348  L 158.4 343.5  L 176 348  L 176 402  L 88 402  " fill-rule="nonzero" fill="rgba(22, 155, 213, 1)" stroke="none" class="fill" />
  </g>
</svg>