<?xml version="1.0" encoding="utf-8"?>
<svg version="1.1" xmlns:xlink="http://www.w3.org/1999/xlink" width="106px" height="108px" xmlns="http://www.w3.org/2000/svg">
  <g transform="matrix(1 0 0 1 -246 -137 )">
    <path d="M 246 137  L 352 137  L 352 245  L 246 245  L 246 137  " fill-rule="nonzero" fill="rgba(204, 204, 204, 1)" stroke="none" class="fill" />
    <path d="M 253 144  L 345 144  L 345 238  L 253 238  L 253 144  " fill-rule="nonzero" fill="rgba(255, 255, 255, 1)" stroke="none" class="fill" />
    <path d="M 309.07 169.1  C 304.618 169.1  301.12 165.60199999999998  301.12 161.14999999999998  C 301.12 156.69799999999998  304.618 153.2  309.07 153.2  C 313.522 153.2  317.02 156.69799999999998  317.02 161.14999999999998  C 317.02 165.60199999999998  313.522 169.1  309.07 169.1  " fill-rule="nonzero" fill="rgba(204, 204, 204, 1)" stroke="none" class="fill" />
    <path d="M 256 236  L 256 187.05  L 277.75 164.8  L 308.2 182.6  L 325.6 178.15  L 343 182.6  L 343 236  L 256 236  " fill-rule="nonzero" fill="rgba(22, 155, 213, 1)" stroke="none" class="fill" />
  </g>
</svg>