<?xml version="1.0" encoding="utf-8"?>
<svg version="1.1" xmlns:xlink="http://www.w3.org/1999/xlink" width="15px" height="15px" xmlns="http://www.w3.org/2000/svg">
  <defs>
    <pattern id="BGPattern" patternUnits="userSpaceOnUse" alignment="0 0" imageRepeat="None" />
    <mask fill="white" id="Clip46">
      <path d="M 6.129052631578947 11.360425531914892  L 7.5 13.852340425531915  L 8.870947368421056 11.360425531914892  L 14 11.360425531914892  L 14 1.1476595744680849  L 1 1.1476595744680849  L 1 11.360425531914892  L 6.129052631578947 11.360425531914892  Z M 9.37115789473684 12.49608510638298  L 8.278105263157897 14.481446808510645  C 8.209052631578949 14.606042553191486  8.121473684210528 14.712255319148937  8.018736842105262 14.795999999999998  C 7.5892631578947425 15.143234042553196  7.008210526315793 15.002297872340423  6.721894736842106 14.481446808510645  L 5.6288421052631605 12.494042553191496  L 0.9501052631578945 12.494042553191496  C 0.4330526315789456 12.494042553191496  0.013684210526314189 11.98544680851064  0 11.358382978723409  L 0 1.1476595744680849  C 0.013684210526314189 0.5205957446808511  0.4330526315789456 0.012000000000001875  0.9501052631578945 0  L 14.049894736842106 0  C 14.566947368421054 0.012000000000001875  14.986315789473686 0.5205957446808511  15 1.1476595744680849  L 15 11.360425531914892  C 14.986315789473686 11.987489361702131  14.566947368421054 12.49608510638298  14.049894736842106 12.49608510638298  L 9.37115789473684 12.49608510638298  Z " fill-rule="evenodd" />
    </mask>
  </defs>
  <g transform="matrix(1 0 0 1 -293 -482 )">
    <path d="M 6.129052631578947 11.360425531914892  L 7.5 13.852340425531915  L 8.870947368421056 11.360425531914892  L 14 11.360425531914892  L 14 1.1476595744680849  L 1 1.1476595744680849  L 1 11.360425531914892  L 6.129052631578947 11.360425531914892  Z M 9.37115789473684 12.49608510638298  L 8.278105263157897 14.481446808510645  C 8.209052631578949 14.606042553191486  8.121473684210528 14.712255319148937  8.018736842105262 14.795999999999998  C 7.5892631578947425 15.143234042553196  7.008210526315793 15.002297872340423  6.721894736842106 14.481446808510645  L 5.6288421052631605 12.494042553191496  L 0.9501052631578945 12.494042553191496  C 0.4330526315789456 12.494042553191496  0.013684210526314189 11.98544680851064  0 11.358382978723409  L 0 1.1476595744680849  C 0.013684210526314189 0.5205957446808511  0.4330526315789456 0.012000000000001875  0.9501052631578945 0  L 14.049894736842106 0  C 14.566947368421054 0.012000000000001875  14.986315789473686 0.5205957446808511  15 1.1476595744680849  L 15 11.360425531914892  C 14.986315789473686 11.987489361702131  14.566947368421054 12.49608510638298  14.049894736842106 12.49608510638298  L 9.37115789473684 12.49608510638298  Z " fill-rule="nonzero" fill="rgba(50, 50, 51, 1)" stroke="none" transform="matrix(1 0 0 1 293 482 )" class="fill" />
    <path d="M 6.129052631578947 11.360425531914892  L 7.5 13.852340425531915  L 8.870947368421056 11.360425531914892  L 14 11.360425531914892  L 14 1.1476595744680849  L 1 1.1476595744680849  L 1 11.360425531914892  L 6.129052631578947 11.360425531914892  Z " stroke-width="0" stroke-dasharray="0" stroke="rgba(255, 255, 255, 0)" fill="none" transform="matrix(1 0 0 1 293 482 )" class="stroke" mask="url(#Clip46)" />
    <path d="M 9.37115789473684 12.49608510638298  L 8.278105263157897 14.481446808510645  C 8.209052631578949 14.606042553191486  8.121473684210528 14.712255319148937  8.018736842105262 14.795999999999998  C 7.5892631578947425 15.143234042553196  7.008210526315793 15.002297872340423  6.721894736842106 14.481446808510645  L 5.6288421052631605 12.494042553191496  L 0.9501052631578945 12.494042553191496  C 0.4330526315789456 12.494042553191496  0.013684210526314189 11.98544680851064  0 11.358382978723409  L 0 1.1476595744680849  C 0.013684210526314189 0.5205957446808511  0.4330526315789456 0.012000000000001875  0.9501052631578945 0  L 14.049894736842106 0  C 14.566947368421054 0.012000000000001875  14.986315789473686 0.5205957446808511  15 1.1476595744680849  L 15 11.360425531914892  C 14.986315789473686 11.987489361702131  14.566947368421054 12.49608510638298  14.049894736842106 12.49608510638298  L 9.37115789473684 12.49608510638298  Z " stroke-width="0" stroke-dasharray="0" stroke="rgba(255, 255, 255, 0)" fill="none" transform="matrix(1 0 0 1 293 482 )" class="stroke" mask="url(#Clip46)" />
  </g>
</svg>