<?xml version="1.0" encoding="utf-8"?>
<svg version="1.1" xmlns:xlink="http://www.w3.org/1999/xlink" width="8px" height="5px" xmlns="http://www.w3.org/2000/svg">
  <defs>
    <pattern id="BGPattern" patternUnits="userSpaceOnUse" alignment="0 0" imageRepeat="None" />
    <mask fill="white" id="Clip47">
      <path d="M 0.07702068965517128 0.6846896551724146  C 0.07702068965517128 0.344827586206895  0.2959448275862087 0.07117241379310357  0.5678344827586216 0.07117241379310357  L 7.433931034482764 0.07117241379310357  C 7.704055172413791 0.07117241379310357  7.92474482758621 0.344827586206895  7.92474482758621 0.6846896551724146  C 7.92474482758621 1.022344827586208  7.705820689655176 1.2982068965517213  7.433931034482764 1.2982068965517213  L 0.5678344827586216 1.2982068965517213  C 0.297710344827586 1.2982068965517213  0.07702068965517128 1.0245517241379298  0.07702068965517128 0.6846896551724146  Z M 0.07702068965517128 4.361379310344828  C 0.07702068965517128 4.021517241379309  0.2959448275862087 3.7478620689655173  0.5678344827586216 3.7478620689655173  L 7.433931034482764 3.7478620689655173  C 7.704055172413791 3.7478620689655173  7.92474482758621 4.021517241379309  7.92474482758621 4.361379310344828  C 7.92474482758621 4.701241379310344  7.705820689655176 4.9748965517241395  7.433931034482764 4.9748965517241395  L 0.5678344827586216 4.9748965517241395  C 0.297710344827586 4.9748965517241395  0.07702068965517128 4.701241379310344  0.07702068965517128 4.361379310344828  Z " fill-rule="evenodd" />
    </mask>
  </defs>
  <g transform="matrix(1 0 0 1 -297 -486 )">
    <path d="M 0.07702068965517128 0.6846896551724146  C 0.07702068965517128 0.344827586206895  0.2959448275862087 0.07117241379310357  0.5678344827586216 0.07117241379310357  L 7.433931034482764 0.07117241379310357  C 7.704055172413791 0.07117241379310357  7.92474482758621 0.344827586206895  7.92474482758621 0.6846896551724146  C 7.92474482758621 1.022344827586208  7.705820689655176 1.2982068965517213  7.433931034482764 1.2982068965517213  L 0.5678344827586216 1.2982068965517213  C 0.297710344827586 1.2982068965517213  0.07702068965517128 1.0245517241379298  0.07702068965517128 0.6846896551724146  Z M 0.07702068965517128 4.361379310344828  C 0.07702068965517128 4.021517241379309  0.2959448275862087 3.7478620689655173  0.5678344827586216 3.7478620689655173  L 7.433931034482764 3.7478620689655173  C 7.704055172413791 3.7478620689655173  7.92474482758621 4.021517241379309  7.92474482758621 4.361379310344828  C 7.92474482758621 4.701241379310344  7.705820689655176 4.9748965517241395  7.433931034482764 4.9748965517241395  L 0.5678344827586216 4.9748965517241395  C 0.297710344827586 4.9748965517241395  0.07702068965517128 4.701241379310344  0.07702068965517128 4.361379310344828  Z " fill-rule="nonzero" fill="rgba(50, 50, 51, 1)" stroke="none" transform="matrix(1 0 0 1 297 486 )" class="fill" />
    <path d="M 0.07702068965517128 0.6846896551724146  C 0.07702068965517128 0.344827586206895  0.2959448275862087 0.07117241379310357  0.5678344827586216 0.07117241379310357  L 7.433931034482764 0.07117241379310357  C 7.704055172413791 0.07117241379310357  7.92474482758621 0.344827586206895  7.92474482758621 0.6846896551724146  C 7.92474482758621 1.022344827586208  7.705820689655176 1.2982068965517213  7.433931034482764 1.2982068965517213  L 0.5678344827586216 1.2982068965517213  C 0.297710344827586 1.2982068965517213  0.07702068965517128 1.0245517241379298  0.07702068965517128 0.6846896551724146  Z " stroke-width="0" stroke-dasharray="0" stroke="rgba(255, 255, 255, 0)" fill="none" transform="matrix(1 0 0 1 297 486 )" class="stroke" mask="url(#Clip47)" />
    <path d="M 0.07702068965517128 4.361379310344828  C 0.07702068965517128 4.021517241379309  0.2959448275862087 3.7478620689655173  0.5678344827586216 3.7478620689655173  L 7.433931034482764 3.7478620689655173  C 7.704055172413791 3.7478620689655173  7.92474482758621 4.021517241379309  7.92474482758621 4.361379310344828  C 7.92474482758621 4.701241379310344  7.705820689655176 4.9748965517241395  7.433931034482764 4.9748965517241395  L 0.5678344827586216 4.9748965517241395  C 0.297710344827586 4.9748965517241395  0.07702068965517128 4.701241379310344  0.07702068965517128 4.361379310344828  Z " stroke-width="0" stroke-dasharray="0" stroke="rgba(255, 255, 255, 0)" fill="none" transform="matrix(1 0 0 1 297 486 )" class="stroke" mask="url(#Clip47)" />
  </g>
</svg>