<?xml version="1.0" encoding="utf-8"?>
<svg version="1.1" xmlns:xlink="http://www.w3.org/1999/xlink" width="106px" height="108px" xmlns="http://www.w3.org/2000/svg">
  <g transform="matrix(1 0 0 1 -134 -249 )">
    <path d="M 134 249  L 240 249  L 240 357  L 134 357  L 134 249  " fill-rule="nonzero" fill="rgba(204, 204, 204, 1)" stroke="none" class="fill" />
    <path d="M 141 256  L 233 256  L 233 350  L 141 350  L 141 256  " fill-rule="nonzero" fill="rgba(255, 255, 255, 1)" stroke="none" class="fill" />
    <path d="M 197.07 281.09999999999997  C 192.618 281.09999999999997  189.12 277.602  189.12 273.15  C 189.12 268.698  192.618 265.2  197.07 265.2  C 201.522 265.2  205.02 268.698  205.02 273.15  C 205.02 277.602  201.522 281.09999999999997  197.07 281.09999999999997  " fill-rule="nonzero" fill="rgba(204, 204, 204, 1)" stroke="none" class="fill" />
    <path d="M 144 348  L 144 299.05  L 165.75 276.8  L 196.2 294.6  L 213.60000000000002 290.15  L 231 294.6  L 231 348  L 144 348  " fill-rule="nonzero" fill="rgba(22, 155, 213, 1)" stroke="none" class="fill" />
  </g>
</svg>