<?xml version="1.0" encoding="utf-8"?>
<svg version="1.1" xmlns:xlink="http://www.w3.org/1999/xlink" width="14px" height="16px" xmlns="http://www.w3.org/2000/svg">
  <defs>
    <pattern id="BGPattern" patternUnits="userSpaceOnUse" alignment="0 0" imageRepeat="None" />
    <mask fill="white" id="Clip192">
      <path d="M 9.117214814814812 14.644915032679732  C 11.72722962962963 13.383320261437902  12.991585185185185 11.949385620915029  12.991585185185185 10.359843137254904  C 12.991585185185185 9.243816993464051  12.568474074074073 8.176313725490198  11.854992592592593 7.197490196078434  C 11.619152056153098 6.874387185551982  11.358985231683452 6.570079964728514  11.076800000000002 6.287267973856207  C 10.744948148148143 6.727320261437907  10.42968888888889 7.036862745098039  10.192414814814812 7.220915032679734  C 9.848948148148152 7.485281045751629  9.366103703703706 7.172392156862744  9.462340740740743 6.747398692810454  C 9.935229629629628 4.677647058823529  9.249955555555553 3.13662745098039  7.791466666666665 1.997176470588235  C 7.38494814814815 1.6792679738562095  6.945244444444444 1.418248366013071  6.507199999999997 1.2124444444444427  C 6.493925925925927 1.205751633986926  6.480651851851852 1.2007320261437893  6.469037037037033 1.1940392156862725  C 6.206874074074071 2.9274771241830053  5.4120888888888885 3.894588235294116  3.606814814814815 5.313464052287579  L 3.562014814814813 5.3486013071895435  C 1.6190222222222213 6.876235294117644  1.0084148148148127 7.761359477124181  1.0084148148148127 9.83278431372549  C 1.0084148148148127 11.833934640522878  2.3358222222222222 13.451921568627446  4.5791407407407405 14.499346405228755  C 3.8540444444444466 13.316392156862742  3.6300444444444437 12.180287581699345  3.8590222222222232 11.107764705882346  C 4.058133333333332 10.170771241830058  4.587437037037035 9.350901960784313  5.334103703703703 8.646483660130718  C 5.6659555555555565 8.333594771241826  6.019377777777777 8.064209150326793  6.37445925925926 7.838326797385622  C 6.588503703703701 7.7011241830065345  6.7594074074074095 7.607424836601306  6.862281481481482 7.55555555555555  C 7.287051851851849 7.3480784313725485  7.711822222222224 7.843346405228751  7.443022222222219 8.236549019607837  C 7.438044444444444 8.243241830065358  7.41647407407407 8.28339869281045  7.391585185185185 8.353673202614372  C 7.144355555555553 9.036339869281043  7.38494814814815 9.96664052287581  8.617777777777778 11.157960784313719  C 9.553599999999998 12.123398692810456  9.707911111111104 13.309699346405223  9.117214814814812 14.644915032679732  Z M 10.53256296296296 5.457359477124184  C 10.560770370370367 5.417202614379084  10.588977777777773 5.377045751633987  10.615525925925922 5.33521568627451  C 10.763199999999998 5.105986928104575  11.075140740740737 5.054117647058821  11.287525925925921 5.224784313725489  C 11.375466666666668 5.29673202614379  11.523140740740743 5.42556862745098  11.70731851851852 5.607947712418299  C 12.030874074074074 5.929202614379085  12.32954074074074 6.277228758169933  12.598340740740742 6.647006535947713  C 13.418014814814814 7.773071895424838  13.912474074074078 9.021281045751634  13.912474074074078 10.359843137254904  C 13.912474074074078 12.553411764705876  12.148681481481482 14.370509803921564  8.728948148148149 15.837908496732025  L 8.548088888888884 15.874718954248365  L 8.151525925925924 15.874718954248365  C 7.779851851851855 15.874718954248365  7.560829629629629 15.454745098039211  7.771555555555557 15.145202614379086  C 8.7472 13.722980392156861  8.783703703703704 12.657150326797383  7.967348148148146 11.815529411764707  C 6.902103703703699 10.78650980392157  6.429214814814813 9.81437908496732  6.389392592592592 8.961045751633987  C 6.2417185185185176 9.076496732026143  6.100681481481479 9.196967320261438  5.96462222222222 9.32580392156863  C 5.344059259259257 9.911424836601308  4.915970370370366 10.574013071895425  4.761659259259258 11.303529411764703  C 4.522725925925925 12.427921568627452  4.9309037037037005 13.684496732026146  6.183644444444441 15.101699346405226  C 6.449125925925925 15.401202614379084  6.238399999999998 15.876392156862748  5.840177777777776 15.876392156862748  L 5.619496296296295 15.876392156862748  L 5.473481481481482 15.852967320261435  C 2.181511111111111 14.74530718954248  0.08586666666666551 12.63707189542483  0.08586666666666551 9.83278431372549  C 0.08586666666666551 7.409986928104572  0.8507851851851849 6.3023267973856205  2.9945481481481493 4.615738562091501  L 3.0393481481481475 4.580601307189541  C 4.864533333333333 3.146666666666667  5.480118518518519 2.3184313725490178  5.6178370370370345 0.5013333333333341  C 5.641066666666667 0.20350326797385526  5.931437037037036 0.004392156862743779  6.213511111111111 0.09307189542483778  C 6.356207407407408 0.13824836601307144  6.5934814814814775 0.2286013071895421  6.895466666666665 0.36915032679738646  C 7.3932444444444405 0.6017254901960782  7.889362962962961 0.897882352941177  8.35561481481481 1.2609673202614364  C 9.709570370370368 2.3184313725490178  10.52094814814815 3.7155555555555546  10.53256296296296 5.457359477124184  Z " fill-rule="evenodd" />
    </mask>
  </defs>
  <g transform="matrix(1 0 0 1 -96 -486 )">
    <path d="M 9.117214814814812 14.644915032679732  C 11.72722962962963 13.383320261437902  12.991585185185185 11.949385620915029  12.991585185185185 10.359843137254904  C 12.991585185185185 9.243816993464051  12.568474074074073 8.176313725490198  11.854992592592593 7.197490196078434  C 11.619152056153098 6.874387185551982  11.358985231683452 6.570079964728514  11.076800000000002 6.287267973856207  C 10.744948148148143 6.727320261437907  10.42968888888889 7.036862745098039  10.192414814814812 7.220915032679734  C 9.848948148148152 7.485281045751629  9.366103703703706 7.172392156862744  9.462340740740743 6.747398692810454  C 9.935229629629628 4.677647058823529  9.249955555555553 3.13662745098039  7.791466666666665 1.997176470588235  C 7.38494814814815 1.6792679738562095  6.945244444444444 1.418248366013071  6.507199999999997 1.2124444444444427  C 6.493925925925927 1.205751633986926  6.480651851851852 1.2007320261437893  6.469037037037033 1.1940392156862725  C 6.206874074074071 2.9274771241830053  5.4120888888888885 3.894588235294116  3.606814814814815 5.313464052287579  L 3.562014814814813 5.3486013071895435  C 1.6190222222222213 6.876235294117644  1.0084148148148127 7.761359477124181  1.0084148148148127 9.83278431372549  C 1.0084148148148127 11.833934640522878  2.3358222222222222 13.451921568627446  4.5791407407407405 14.499346405228755  C 3.8540444444444466 13.316392156862742  3.6300444444444437 12.180287581699345  3.8590222222222232 11.107764705882346  C 4.058133333333332 10.170771241830058  4.587437037037035 9.350901960784313  5.334103703703703 8.646483660130718  C 5.6659555555555565 8.333594771241826  6.019377777777777 8.064209150326793  6.37445925925926 7.838326797385622  C 6.588503703703701 7.7011241830065345  6.7594074074074095 7.607424836601306  6.862281481481482 7.55555555555555  C 7.287051851851849 7.3480784313725485  7.711822222222224 7.843346405228751  7.443022222222219 8.236549019607837  C 7.438044444444444 8.243241830065358  7.41647407407407 8.28339869281045  7.391585185185185 8.353673202614372  C 7.144355555555553 9.036339869281043  7.38494814814815 9.96664052287581  8.617777777777778 11.157960784313719  C 9.553599999999998 12.123398692810456  9.707911111111104 13.309699346405223  9.117214814814812 14.644915032679732  Z M 10.53256296296296 5.457359477124184  C 10.560770370370367 5.417202614379084  10.588977777777773 5.377045751633987  10.615525925925922 5.33521568627451  C 10.763199999999998 5.105986928104575  11.075140740740737 5.054117647058821  11.287525925925921 5.224784313725489  C 11.375466666666668 5.29673202614379  11.523140740740743 5.42556862745098  11.70731851851852 5.607947712418299  C 12.030874074074074 5.929202614379085  12.32954074074074 6.277228758169933  12.598340740740742 6.647006535947713  C 13.418014814814814 7.773071895424838  13.912474074074078 9.021281045751634  13.912474074074078 10.359843137254904  C 13.912474074074078 12.553411764705876  12.148681481481482 14.370509803921564  8.728948148148149 15.837908496732025  L 8.548088888888884 15.874718954248365  L 8.151525925925924 15.874718954248365  C 7.779851851851855 15.874718954248365  7.560829629629629 15.454745098039211  7.771555555555557 15.145202614379086  C 8.7472 13.722980392156861  8.783703703703704 12.657150326797383  7.967348148148146 11.815529411764707  C 6.902103703703699 10.78650980392157  6.429214814814813 9.81437908496732  6.389392592592592 8.961045751633987  C 6.2417185185185176 9.076496732026143  6.100681481481479 9.196967320261438  5.96462222222222 9.32580392156863  C 5.344059259259257 9.911424836601308  4.915970370370366 10.574013071895425  4.761659259259258 11.303529411764703  C 4.522725925925925 12.427921568627452  4.9309037037037005 13.684496732026146  6.183644444444441 15.101699346405226  C 6.449125925925925 15.401202614379084  6.238399999999998 15.876392156862748  5.840177777777776 15.876392156862748  L 5.619496296296295 15.876392156862748  L 5.473481481481482 15.852967320261435  C 2.181511111111111 14.74530718954248  0.08586666666666551 12.63707189542483  0.08586666666666551 9.83278431372549  C 0.08586666666666551 7.409986928104572  0.8507851851851849 6.3023267973856205  2.9945481481481493 4.615738562091501  L 3.0393481481481475 4.580601307189541  C 4.864533333333333 3.146666666666667  5.480118518518519 2.3184313725490178  5.6178370370370345 0.5013333333333341  C 5.641066666666667 0.20350326797385526  5.931437037037036 0.004392156862743779  6.213511111111111 0.09307189542483778  C 6.356207407407408 0.13824836601307144  6.5934814814814775 0.2286013071895421  6.895466666666665 0.36915032679738646  C 7.3932444444444405 0.6017254901960782  7.889362962962961 0.897882352941177  8.35561481481481 1.2609673202614364  C 9.709570370370368 2.3184313725490178  10.52094814814815 3.7155555555555546  10.53256296296296 5.457359477124184  Z " fill-rule="nonzero" fill="rgba(50, 50, 51, 1)" stroke="none" transform="matrix(1 0 0 1 96 486 )" class="fill" />
    <path d="M 9.117214814814812 14.644915032679732  C 11.72722962962963 13.383320261437902  12.991585185185185 11.949385620915029  12.991585185185185 10.359843137254904  C 12.991585185185185 9.243816993464051  12.568474074074073 8.176313725490198  11.854992592592593 7.197490196078434  C 11.619152056153098 6.874387185551982  11.358985231683452 6.570079964728514  11.076800000000002 6.287267973856207  C 10.744948148148143 6.727320261437907  10.42968888888889 7.036862745098039  10.192414814814812 7.220915032679734  C 9.848948148148152 7.485281045751629  9.366103703703706 7.172392156862744  9.462340740740743 6.747398692810454  C 9.935229629629628 4.677647058823529  9.249955555555553 3.13662745098039  7.791466666666665 1.997176470588235  C 7.38494814814815 1.6792679738562095  6.945244444444444 1.418248366013071  6.507199999999997 1.2124444444444427  C 6.493925925925927 1.205751633986926  6.480651851851852 1.2007320261437893  6.469037037037033 1.1940392156862725  C 6.206874074074071 2.9274771241830053  5.4120888888888885 3.894588235294116  3.606814814814815 5.313464052287579  L 3.562014814814813 5.3486013071895435  C 1.6190222222222213 6.876235294117644  1.0084148148148127 7.761359477124181  1.0084148148148127 9.83278431372549  C 1.0084148148148127 11.833934640522878  2.3358222222222222 13.451921568627446  4.5791407407407405 14.499346405228755  C 3.8540444444444466 13.316392156862742  3.6300444444444437 12.180287581699345  3.8590222222222232 11.107764705882346  C 4.058133333333332 10.170771241830058  4.587437037037035 9.350901960784313  5.334103703703703 8.646483660130718  C 5.6659555555555565 8.333594771241826  6.019377777777777 8.064209150326793  6.37445925925926 7.838326797385622  C 6.588503703703701 7.7011241830065345  6.7594074074074095 7.607424836601306  6.862281481481482 7.55555555555555  C 7.287051851851849 7.3480784313725485  7.711822222222224 7.843346405228751  7.443022222222219 8.236549019607837  C 7.438044444444444 8.243241830065358  7.41647407407407 8.28339869281045  7.391585185185185 8.353673202614372  C 7.144355555555553 9.036339869281043  7.38494814814815 9.96664052287581  8.617777777777778 11.157960784313719  C 9.553599999999998 12.123398692810456  9.707911111111104 13.309699346405223  9.117214814814812 14.644915032679732  Z " stroke-width="0" stroke-dasharray="0" stroke="rgba(255, 255, 255, 0)" fill="none" transform="matrix(1 0 0 1 96 486 )" class="stroke" mask="url(#Clip192)" />
    <path d="M 10.53256296296296 5.457359477124184  C 10.560770370370367 5.417202614379084  10.588977777777773 5.377045751633987  10.615525925925922 5.33521568627451  C 10.763199999999998 5.105986928104575  11.075140740740737 5.054117647058821  11.287525925925921 5.224784313725489  C 11.375466666666668 5.29673202614379  11.523140740740743 5.42556862745098  11.70731851851852 5.607947712418299  C 12.030874074074074 5.929202614379085  12.32954074074074 6.277228758169933  12.598340740740742 6.647006535947713  C 13.418014814814814 7.773071895424838  13.912474074074078 9.021281045751634  13.912474074074078 10.359843137254904  C 13.912474074074078 12.553411764705876  12.148681481481482 14.370509803921564  8.728948148148149 15.837908496732025  L 8.548088888888884 15.874718954248365  L 8.151525925925924 15.874718954248365  C 7.779851851851855 15.874718954248365  7.560829629629629 15.454745098039211  7.771555555555557 15.145202614379086  C 8.7472 13.722980392156861  8.783703703703704 12.657150326797383  7.967348148148146 11.815529411764707  C 6.902103703703699 10.78650980392157  6.429214814814813 9.81437908496732  6.389392592592592 8.961045751633987  C 6.2417185185185176 9.076496732026143  6.100681481481479 9.196967320261438  5.96462222222222 9.32580392156863  C 5.344059259259257 9.911424836601308  4.915970370370366 10.574013071895425  4.761659259259258 11.303529411764703  C 4.522725925925925 12.427921568627452  4.9309037037037005 13.684496732026146  6.183644444444441 15.101699346405226  C 6.449125925925925 15.401202614379084  6.238399999999998 15.876392156862748  5.840177777777776 15.876392156862748  L 5.619496296296295 15.876392156862748  L 5.473481481481482 15.852967320261435  C 2.181511111111111 14.74530718954248  0.08586666666666551 12.63707189542483  0.08586666666666551 9.83278431372549  C 0.08586666666666551 7.409986928104572  0.8507851851851849 6.3023267973856205  2.9945481481481493 4.615738562091501  L 3.0393481481481475 4.580601307189541  C 4.864533333333333 3.146666666666667  5.480118518518519 2.3184313725490178  5.6178370370370345 0.5013333333333341  C 5.641066666666667 0.20350326797385526  5.931437037037036 0.004392156862743779  6.213511111111111 0.09307189542483778  C 6.356207407407408 0.13824836601307144  6.5934814814814775 0.2286013071895421  6.895466666666665 0.36915032679738646  C 7.3932444444444405 0.6017254901960782  7.889362962962961 0.897882352941177  8.35561481481481 1.2609673202614364  C 9.709570370370368 2.3184313725490178  10.52094814814815 3.7155555555555546  10.53256296296296 5.457359477124184  Z " stroke-width="0" stroke-dasharray="0" stroke="rgba(255, 255, 255, 0)" fill="none" transform="matrix(1 0 0 1 96 486 )" class="stroke" mask="url(#Clip192)" />
  </g>
</svg>