<?xml version="1.0" encoding="utf-8"?>
<svg version="1.1" xmlns:xlink="http://www.w3.org/1999/xlink" width="15px" height="15px" xmlns="http://www.w3.org/2000/svg">
  <defs>
    <pattern id="BGPattern" patternUnits="userSpaceOnUse" alignment="0 0" imageRepeat="None" />
    <mask fill="white" id="Clip445">
      <path d="M 4.2978816 5.3645567999999955  L 4.2978816 5.367129599999998  C 4.6216896 5.250048  4.855737599999998 5.150207999999999  5.000025600000001 5.067609600000001  C 5.4032447999999995 4.836748800000002  5.7452544 4.522368  6.026035199999999 4.124467199999998  C 6.452102400000001 3.5206848000000015  6.531455999999999 3.2424767999999986  6.993907199999999 1.5525696000000018  C 7.024281600000002 1.4415167999999987  7.085414399999998 1.2897983999999987  7.177267200000003 1.0974144000000017  C 7.602316799999997 0.3849792000000001  8.207404799999999 0.02956800000000115  8.992511999999998 0.03120000000000189  C 9.750988800000002 0.03120000000000189  10.357708799999997 0.38659200000000027  10.812672 1.0974144000000017  C 10.926067199999999 1.293638399999999  11.006342400000001 1.5127871999999982  11.053478400000003 1.754918400000001  C 11.100633600000002 1.9970303999999997  11.100633600000002 2.275046400000001  11.053478400000003 2.5889664000000003  L 10.2138432 5.51904  C 10.198982399999998 5.565542399999998  10.198982399999998 5.599507199999998  10.2138432 5.6209728000000005  C 10.229855999999998 5.644089600000001  10.253222399999999 5.655647999999999  10.283961599999998 5.655647999999999  L 12.834777600000002 5.655647999999999  L 12.831955200000003 5.661580799999999  L 13.164576000000004 5.661580799999999  C 14.1545664 5.661580799999999  14.964576000000001 6.4415808000000006  14.964576000000001 7.4315712000000005  C 14.964576000000001 7.581580799999997  14.934566400000001 7.731571199999997  14.904576000000006 7.881580799999996  L 14.006841600000001 13.614566400000001  C 13.826841600000002 14.394566400000002  13.106841600000003 14.964576000000001  12.2668416 15  L 1.0978752000000007 15  C 0.5087615999999997 14.964576000000001  0.03120000000000189 14.4870144  0.03120000000000189 13.897900799999995  L 0.03120000000000189 6.431212799999997  C 0.03120000000000189 5.842118399999997  0.5087615999999997 5.3645567999999955  1.0978752000000007 5.3645567999999955  L 4.2978816 5.3645567999999955  Z M 4.2978816 6.5454143999999985  L 4.2978816 13.897900800000002  L 12.254553600000001 13.897900800000002  C 12.524563200000003 13.897900800000002  12.764563199999998 13.717900799999995  12.8245632 13.447910399999998  C 13.540127999999996 9.6270144  13.897900800000002 7.6315776  13.897900800000002 7.4615808  C 13.897900800000002 7.131571199999996  13.627910400000005 6.861580799999999  13.2979008 6.861580799999999  L 12.262617599999999 6.861580799999999  L 12.257356799999997 6.872678399999998  L 10.314527999999996 6.872678399999998  C 9.886233599999997 6.872678399999998  9.546393600000002 6.725529599999998  9.295007999999996 6.431212799999997  C 8.9179392 5.989766400000001  8.940921600000003 5.601715200000001  9.0780672 5.109023999999998  C 9.390451200000001 3.9868799999999998  9.654988799999998 3.0154560000000004  9.8717568 2.1947136  C 9.8654784 1.618905599999998  9.6009216 1.2945215999999995  9.0780672 1.2215615999999976  C 8.555232000000004 1.1486015999999992  8.209574400000001 1.4365248000000008  8.041094399999999 2.0853503999999994  L 7.593868800000002 3.6349823999999984  C 7.0822655999999995 5.015980800000001  6.0819072 5.948044799999998  4.592812800000001 6.431212800000001  L 4.2978624 6.5454143999999985  Z M 1.0978752000000007 6.431212799999997  L 1.0978752000000007 13.897900800000002  L 3.2312064000000014 13.897900800000002  L 3.2312064000000014 6.431212799999997  L 1.0978752000000007 6.431212799999997  Z " fill-rule="evenodd" />
    </mask>
  </defs>
  <g transform="matrix(1 0 0 1 -317 -864 )">
    <path d="M 4.2978816 5.3645567999999955  L 4.2978816 5.367129599999998  C 4.6216896 5.250048  4.855737599999998 5.150207999999999  5.000025600000001 5.067609600000001  C 5.4032447999999995 4.836748800000002  5.7452544 4.522368  6.026035199999999 4.124467199999998  C 6.452102400000001 3.5206848000000015  6.531455999999999 3.2424767999999986  6.993907199999999 1.5525696000000018  C 7.024281600000002 1.4415167999999987  7.085414399999998 1.2897983999999987  7.177267200000003 1.0974144000000017  C 7.602316799999997 0.3849792000000001  8.207404799999999 0.02956800000000115  8.992511999999998 0.03120000000000189  C 9.750988800000002 0.03120000000000189  10.357708799999997 0.38659200000000027  10.812672 1.0974144000000017  C 10.926067199999999 1.293638399999999  11.006342400000001 1.5127871999999982  11.053478400000003 1.754918400000001  C 11.100633600000002 1.9970303999999997  11.100633600000002 2.275046400000001  11.053478400000003 2.5889664000000003  L 10.2138432 5.51904  C 10.198982399999998 5.565542399999998  10.198982399999998 5.599507199999998  10.2138432 5.6209728000000005  C 10.229855999999998 5.644089600000001  10.253222399999999 5.655647999999999  10.283961599999998 5.655647999999999  L 12.834777600000002 5.655647999999999  L 12.831955200000003 5.661580799999999  L 13.164576000000004 5.661580799999999  C 14.1545664 5.661580799999999  14.964576000000001 6.4415808000000006  14.964576000000001 7.4315712000000005  C 14.964576000000001 7.581580799999997  14.934566400000001 7.731571199999997  14.904576000000006 7.881580799999996  L 14.006841600000001 13.614566400000001  C 13.826841600000002 14.394566400000002  13.106841600000003 14.964576000000001  12.2668416 15  L 1.0978752000000007 15  C 0.5087615999999997 14.964576000000001  0.03120000000000189 14.4870144  0.03120000000000189 13.897900799999995  L 0.03120000000000189 6.431212799999997  C 0.03120000000000189 5.842118399999997  0.5087615999999997 5.3645567999999955  1.0978752000000007 5.3645567999999955  L 4.2978816 5.3645567999999955  Z M 4.2978816 6.5454143999999985  L 4.2978816 13.897900800000002  L 12.254553600000001 13.897900800000002  C 12.524563200000003 13.897900800000002  12.764563199999998 13.717900799999995  12.8245632 13.447910399999998  C 13.540127999999996 9.6270144  13.897900800000002 7.6315776  13.897900800000002 7.4615808  C 13.897900800000002 7.131571199999996  13.627910400000005 6.861580799999999  13.2979008 6.861580799999999  L 12.262617599999999 6.861580799999999  L 12.257356799999997 6.872678399999998  L 10.314527999999996 6.872678399999998  C 9.886233599999997 6.872678399999998  9.546393600000002 6.725529599999998  9.295007999999996 6.431212799999997  C 8.9179392 5.989766400000001  8.940921600000003 5.601715200000001  9.0780672 5.109023999999998  C 9.390451200000001 3.9868799999999998  9.654988799999998 3.0154560000000004  9.8717568 2.1947136  C 9.8654784 1.618905599999998  9.6009216 1.2945215999999995  9.0780672 1.2215615999999976  C 8.555232000000004 1.1486015999999992  8.209574400000001 1.4365248000000008  8.041094399999999 2.0853503999999994  L 7.593868800000002 3.6349823999999984  C 7.0822655999999995 5.015980800000001  6.0819072 5.948044799999998  4.592812800000001 6.431212800000001  L 4.2978624 6.5454143999999985  Z M 1.0978752000000007 6.431212799999997  L 1.0978752000000007 13.897900800000002  L 3.2312064000000014 13.897900800000002  L 3.2312064000000014 6.431212799999997  L 1.0978752000000007 6.431212799999997  Z " fill-rule="nonzero" fill="rgba(0, 0, 0, 1)" stroke="none" transform="matrix(1 0 0 1 317 864 )" class="fill" />
    <path d="M 4.2978816 5.3645567999999955  L 4.2978816 5.367129599999998  C 4.6216896 5.250048  4.855737599999998 5.150207999999999  5.000025600000001 5.067609600000001  C 5.4032447999999995 4.836748800000002  5.7452544 4.522368  6.026035199999999 4.124467199999998  C 6.452102400000001 3.5206848000000015  6.531455999999999 3.2424767999999986  6.993907199999999 1.5525696000000018  C 7.024281600000002 1.4415167999999987  7.085414399999998 1.2897983999999987  7.177267200000003 1.0974144000000017  C 7.602316799999997 0.3849792000000001  8.207404799999999 0.02956800000000115  8.992511999999998 0.03120000000000189  C 9.750988800000002 0.03120000000000189  10.357708799999997 0.38659200000000027  10.812672 1.0974144000000017  C 10.926067199999999 1.293638399999999  11.006342400000001 1.5127871999999982  11.053478400000003 1.754918400000001  C 11.100633600000002 1.9970303999999997  11.100633600000002 2.275046400000001  11.053478400000003 2.5889664000000003  L 10.2138432 5.51904  C 10.198982399999998 5.565542399999998  10.198982399999998 5.599507199999998  10.2138432 5.6209728000000005  C 10.229855999999998 5.644089600000001  10.253222399999999 5.655647999999999  10.283961599999998 5.655647999999999  L 12.834777600000002 5.655647999999999  L 12.831955200000003 5.661580799999999  L 13.164576000000004 5.661580799999999  C 14.1545664 5.661580799999999  14.964576000000001 6.4415808000000006  14.964576000000001 7.4315712000000005  C 14.964576000000001 7.581580799999997  14.934566400000001 7.731571199999997  14.904576000000006 7.881580799999996  L 14.006841600000001 13.614566400000001  C 13.826841600000002 14.394566400000002  13.106841600000003 14.964576000000001  12.2668416 15  L 1.0978752000000007 15  C 0.5087615999999997 14.964576000000001  0.03120000000000189 14.4870144  0.03120000000000189 13.897900799999995  L 0.03120000000000189 6.431212799999997  C 0.03120000000000189 5.842118399999997  0.5087615999999997 5.3645567999999955  1.0978752000000007 5.3645567999999955  L 4.2978816 5.3645567999999955  Z " stroke-width="0" stroke-dasharray="0" stroke="rgba(255, 255, 255, 0)" fill="none" transform="matrix(1 0 0 1 317 864 )" class="stroke" mask="url(#Clip445)" />
    <path d="M 4.2978816 6.5454143999999985  L 4.2978816 13.897900800000002  L 12.254553600000001 13.897900800000002  C 12.524563200000003 13.897900800000002  12.764563199999998 13.717900799999995  12.8245632 13.447910399999998  C 13.540127999999996 9.6270144  13.897900800000002 7.6315776  13.897900800000002 7.4615808  C 13.897900800000002 7.131571199999996  13.627910400000005 6.861580799999999  13.2979008 6.861580799999999  L 12.262617599999999 6.861580799999999  L 12.257356799999997 6.872678399999998  L 10.314527999999996 6.872678399999998  C 9.886233599999997 6.872678399999998  9.546393600000002 6.725529599999998  9.295007999999996 6.431212799999997  C 8.9179392 5.989766400000001  8.940921600000003 5.601715200000001  9.0780672 5.109023999999998  C 9.390451200000001 3.9868799999999998  9.654988799999998 3.0154560000000004  9.8717568 2.1947136  C 9.8654784 1.618905599999998  9.6009216 1.2945215999999995  9.0780672 1.2215615999999976  C 8.555232000000004 1.1486015999999992  8.209574400000001 1.4365248000000008  8.041094399999999 2.0853503999999994  L 7.593868800000002 3.6349823999999984  C 7.0822655999999995 5.015980800000001  6.0819072 5.948044799999998  4.592812800000001 6.431212800000001  L 4.2978624 6.5454143999999985  Z " stroke-width="0" stroke-dasharray="0" stroke="rgba(255, 255, 255, 0)" fill="none" transform="matrix(1 0 0 1 317 864 )" class="stroke" mask="url(#Clip445)" />
    <path d="M 1.0978752000000007 6.431212799999997  L 1.0978752000000007 13.897900800000002  L 3.2312064000000014 13.897900800000002  L 3.2312064000000014 6.431212799999997  L 1.0978752000000007 6.431212799999997  Z " stroke-width="0" stroke-dasharray="0" stroke="rgba(255, 255, 255, 0)" fill="none" transform="matrix(1 0 0 1 317 864 )" class="stroke" mask="url(#Clip445)" />
  </g>
</svg>