<?xml version="1.0" encoding="utf-8"?>
<svg version="1.1" xmlns:xlink="http://www.w3.org/1999/xlink" width="9px" height="9px" xmlns="http://www.w3.org/2000/svg">
  <defs>
    <pattern id="BGPattern" patternUnits="userSpaceOnUse" alignment="0 0" imageRepeat="None" />
    <mask fill="white" id="Clip248">
      <path d="M 8.44993037214885 4.152048979591835  C 8.669819927971181 4.276653061224489  8.746573829531812 4.451804081632652  8.680192076830732 4.611673469387753  C 8.642852340936368 4.70101224489796  8.564024009603836 4.782122448979591  8.449930372148858 4.846775510204083  L 1.5234093637454977 8.772979591836735  C 1.1852773109243695 8.964587755102043  0.6376278511404562 8.964587755102043  0.3015702280912377 8.772979591836735  C -0.03448739495798074 8.58137142857143  -0.036561824729890655 8.271036734693878  0.3015702280912377 8.080604081632654  L 6.618208883553418 4.5  L 0.3015702280912377 0.919395918367347  C -0.036561824729890655 0.727787755102041  -0.036561824729890655 0.41745306122449005  0.3015702280912377 0.22702040816326416  C 0.6397022809123623 0.035412244897958085  1.1873517406962795 0.035412244897958085  1.5234093637454977 0.22702040816326416  L 8.44993037214885 4.152048979591835  Z " fill-rule="evenodd" />
    </mask>
  </defs>
  <g transform="matrix(1 0 0 1 -145 -925 )">
    <path d="M 8.44993037214885 4.152048979591835  C 8.669819927971181 4.276653061224489  8.746573829531812 4.451804081632652  8.680192076830732 4.611673469387753  C 8.642852340936368 4.70101224489796  8.564024009603836 4.782122448979591  8.449930372148858 4.846775510204083  L 1.5234093637454977 8.772979591836735  C 1.1852773109243695 8.964587755102043  0.6376278511404562 8.964587755102043  0.3015702280912377 8.772979591836735  C -0.03448739495798074 8.58137142857143  -0.036561824729890655 8.271036734693878  0.3015702280912377 8.080604081632654  L 6.618208883553418 4.5  L 0.3015702280912377 0.919395918367347  C -0.036561824729890655 0.727787755102041  -0.036561824729890655 0.41745306122449005  0.3015702280912377 0.22702040816326416  C 0.6397022809123623 0.035412244897958085  1.1873517406962795 0.035412244897958085  1.5234093637454977 0.22702040816326416  L 8.44993037214885 4.152048979591835  Z " fill-rule="nonzero" fill="rgba(0, 170, 170, 1)" stroke="none" transform="matrix(1 0 0 1 145 925 )" class="fill" />
    <path d="M 8.44993037214885 4.152048979591835  C 8.669819927971181 4.276653061224489  8.746573829531812 4.451804081632652  8.680192076830732 4.611673469387753  C 8.642852340936368 4.70101224489796  8.564024009603836 4.782122448979591  8.449930372148858 4.846775510204083  L 1.5234093637454977 8.772979591836735  C 1.1852773109243695 8.964587755102043  0.6376278511404562 8.964587755102043  0.3015702280912377 8.772979591836735  C -0.03448739495798074 8.58137142857143  -0.036561824729890655 8.271036734693878  0.3015702280912377 8.080604081632654  L 6.618208883553418 4.5  L 0.3015702280912377 0.919395918367347  C -0.036561824729890655 0.727787755102041  -0.036561824729890655 0.41745306122449005  0.3015702280912377 0.22702040816326416  C 0.6397022809123623 0.035412244897958085  1.1873517406962795 0.035412244897958085  1.5234093637454977 0.22702040816326416  L 8.44993037214885 4.152048979591835  Z " stroke-width="0" stroke-dasharray="0" stroke="rgba(255, 255, 255, 0)" fill="none" transform="matrix(1 0 0 1 145 925 )" class="stroke" mask="url(#Clip248)" />
  </g>
</svg>