<?xml version="1.0" encoding="utf-8"?>
<svg version="1.1" xmlns:xlink="http://www.w3.org/1999/xlink" width="14px" height="13px" xmlns="http://www.w3.org/2000/svg">
  <defs>
    <pattern id="BGPattern" patternUnits="userSpaceOnUse" alignment="0 0" imageRepeat="None" />
    <mask fill="white" id="Clip448">
      <path d="M 12.2864 11.775319148936177  L 12.290212765957444 3.0577021276595744  L 11.035812765957449 4.401702127659576  C 10.72507234042553 4.7346382978723405  10.221787234042553 4.7346382978723405  9.912953191489365 4.401702127659576  C 9.602212765957447 4.068765957446811  9.602212765957447 3.529531914893617  9.912953191489365 3.1986382978723427  L 12.456068085106383 0.47387234042553317  C 12.564731914893615 0.32272340425532065  12.721055319148938 0.21242553191489577  12.90025531914894 0.16748936170212758  C 13.161429787234045 0.09804255319149036  13.4512 0.17157446808510812  13.655182978723404 0.3901276595744676  C 13.845821276595743 0.5943829787234058  13.918263829787232 0.8742127659574485  13.876323404255318 1.1377021276595762  L 13.876323404255318 11.775319148936177  C 13.876323404255318 12.245106382978726  13.51982978723404 12.62706382978724  13.08136170212766 12.62706382978724  C 12.642893617021281 12.62706382978724  12.2864 12.245106382978726  12.2864 11.775319148936177  Z M 0.11033191489361845 2.089531914893616  C 0.11033191489361845 1.6197446808510634  0.46491914893617026 1.2377872340425533  0.9052936170212771 1.2377872340425533  L 7.789242553191489 1.2377872340425533  C 8.227710638297875 1.2377872340425533  8.584204255319149 1.6197446808510634  8.584204255319149 2.089531914893616  C 8.584204255319149 2.559319148936172  8.227710638297868 2.9412765957446823  7.789242553191489 2.9412765957446823  L 0.9052936170212771 2.9412765957446823  C 0.4668255319148945 2.9412765957446823  0.11033191489361845 2.559319148936172  0.11033191489361845 2.089531914893616  Z M 0.11033191489361845 6.628085106382979  C 0.11033191489361845 6.15829787234043  0.46491914893617026 5.776340425531917  0.9052936170212771 5.776340425531917  L 7.789242553191489 5.776340425531917  C 8.227710638297875 5.776340425531917  8.584204255319149 6.158297872340427  8.584204255319149 6.628085106382979  C 8.584204255319149 7.097872340425532  8.227710638297868 7.479829787234046  7.789242553191489 7.479829787234046  L 0.9052936170212771 7.479829787234046  C 0.4668255319148945 7.479829787234046  0.11033191489361845 7.097872340425532  0.11033191489361845 6.628085106382979  Z M 0.11033191489361845 11.166638297872339  C 0.11033191489361845 10.69685106382979  0.46491914893617026 10.314893617021283  0.9052936170212771 10.314893617021283  L 7.789242553191489 10.314893617021283  C 8.227710638297875 10.314893617021283  8.584204255319149 10.69685106382979  8.584204255319149 11.166638297872339  C 8.584204255319149 11.636425531914895  8.227710638297868 12.018382978723409  7.789242553191489 12.018382978723409  L 0.9052936170212771 12.018382978723409  C 0.4668255319148945 12.018382978723409  0.11033191489361845 11.636425531914895  0.11033191489361845 11.166638297872339  Z " fill-rule="evenodd" />
    </mask>
  </defs>
  <g transform="matrix(1 0 0 1 -341 -550 )">
    <path d="M 12.2864 11.775319148936177  L 12.290212765957444 3.0577021276595744  L 11.035812765957449 4.401702127659576  C 10.72507234042553 4.7346382978723405  10.221787234042553 4.7346382978723405  9.912953191489365 4.401702127659576  C 9.602212765957447 4.068765957446811  9.602212765957447 3.529531914893617  9.912953191489365 3.1986382978723427  L 12.456068085106383 0.47387234042553317  C 12.564731914893615 0.32272340425532065  12.721055319148938 0.21242553191489577  12.90025531914894 0.16748936170212758  C 13.161429787234045 0.09804255319149036  13.4512 0.17157446808510812  13.655182978723404 0.3901276595744676  C 13.845821276595743 0.5943829787234058  13.918263829787232 0.8742127659574485  13.876323404255318 1.1377021276595762  L 13.876323404255318 11.775319148936177  C 13.876323404255318 12.245106382978726  13.51982978723404 12.62706382978724  13.08136170212766 12.62706382978724  C 12.642893617021281 12.62706382978724  12.2864 12.245106382978726  12.2864 11.775319148936177  Z M 0.11033191489361845 2.089531914893616  C 0.11033191489361845 1.6197446808510634  0.46491914893617026 1.2377872340425533  0.9052936170212771 1.2377872340425533  L 7.789242553191489 1.2377872340425533  C 8.227710638297875 1.2377872340425533  8.584204255319149 1.6197446808510634  8.584204255319149 2.089531914893616  C 8.584204255319149 2.559319148936172  8.227710638297868 2.9412765957446823  7.789242553191489 2.9412765957446823  L 0.9052936170212771 2.9412765957446823  C 0.4668255319148945 2.9412765957446823  0.11033191489361845 2.559319148936172  0.11033191489361845 2.089531914893616  Z M 0.11033191489361845 6.628085106382979  C 0.11033191489361845 6.15829787234043  0.46491914893617026 5.776340425531917  0.9052936170212771 5.776340425531917  L 7.789242553191489 5.776340425531917  C 8.227710638297875 5.776340425531917  8.584204255319149 6.158297872340427  8.584204255319149 6.628085106382979  C 8.584204255319149 7.097872340425532  8.227710638297868 7.479829787234046  7.789242553191489 7.479829787234046  L 0.9052936170212771 7.479829787234046  C 0.4668255319148945 7.479829787234046  0.11033191489361845 7.097872340425532  0.11033191489361845 6.628085106382979  Z M 0.11033191489361845 11.166638297872339  C 0.11033191489361845 10.69685106382979  0.46491914893617026 10.314893617021283  0.9052936170212771 10.314893617021283  L 7.789242553191489 10.314893617021283  C 8.227710638297875 10.314893617021283  8.584204255319149 10.69685106382979  8.584204255319149 11.166638297872339  C 8.584204255319149 11.636425531914895  8.227710638297868 12.018382978723409  7.789242553191489 12.018382978723409  L 0.9052936170212771 12.018382978723409  C 0.4668255319148945 12.018382978723409  0.11033191489361845 11.636425531914895  0.11033191489361845 11.166638297872339  Z " fill-rule="nonzero" fill="rgba(170, 170, 170, 1)" stroke="none" transform="matrix(1 0 0 1 341 550 )" class="fill" />
    <path d="M 12.2864 11.775319148936177  L 12.290212765957444 3.0577021276595744  L 11.035812765957449 4.401702127659576  C 10.72507234042553 4.7346382978723405  10.221787234042553 4.7346382978723405  9.912953191489365 4.401702127659576  C 9.602212765957447 4.068765957446811  9.602212765957447 3.529531914893617  9.912953191489365 3.1986382978723427  L 12.456068085106383 0.47387234042553317  C 12.564731914893615 0.32272340425532065  12.721055319148938 0.21242553191489577  12.90025531914894 0.16748936170212758  C 13.161429787234045 0.09804255319149036  13.4512 0.17157446808510812  13.655182978723404 0.3901276595744676  C 13.845821276595743 0.5943829787234058  13.918263829787232 0.8742127659574485  13.876323404255318 1.1377021276595762  L 13.876323404255318 11.775319148936177  C 13.876323404255318 12.245106382978726  13.51982978723404 12.62706382978724  13.08136170212766 12.62706382978724  C 12.642893617021281 12.62706382978724  12.2864 12.245106382978726  12.2864 11.775319148936177  Z " stroke-width="0" stroke-dasharray="0" stroke="rgba(255, 255, 255, 0)" fill="none" transform="matrix(1 0 0 1 341 550 )" class="stroke" mask="url(#Clip448)" />
    <path d="M 0.11033191489361845 2.089531914893616  C 0.11033191489361845 1.6197446808510634  0.46491914893617026 1.2377872340425533  0.9052936170212771 1.2377872340425533  L 7.789242553191489 1.2377872340425533  C 8.227710638297875 1.2377872340425533  8.584204255319149 1.6197446808510634  8.584204255319149 2.089531914893616  C 8.584204255319149 2.559319148936172  8.227710638297868 2.9412765957446823  7.789242553191489 2.9412765957446823  L 0.9052936170212771 2.9412765957446823  C 0.4668255319148945 2.9412765957446823  0.11033191489361845 2.559319148936172  0.11033191489361845 2.089531914893616  Z " stroke-width="0" stroke-dasharray="0" stroke="rgba(255, 255, 255, 0)" fill="none" transform="matrix(1 0 0 1 341 550 )" class="stroke" mask="url(#Clip448)" />
    <path d="M 0.11033191489361845 6.628085106382979  C 0.11033191489361845 6.15829787234043  0.46491914893617026 5.776340425531917  0.9052936170212771 5.776340425531917  L 7.789242553191489 5.776340425531917  C 8.227710638297875 5.776340425531917  8.584204255319149 6.158297872340427  8.584204255319149 6.628085106382979  C 8.584204255319149 7.097872340425532  8.227710638297868 7.479829787234046  7.789242553191489 7.479829787234046  L 0.9052936170212771 7.479829787234046  C 0.4668255319148945 7.479829787234046  0.11033191489361845 7.097872340425532  0.11033191489361845 6.628085106382979  Z " stroke-width="0" stroke-dasharray="0" stroke="rgba(255, 255, 255, 0)" fill="none" transform="matrix(1 0 0 1 341 550 )" class="stroke" mask="url(#Clip448)" />
    <path d="M 0.11033191489361845 11.166638297872339  C 0.11033191489361845 10.69685106382979  0.46491914893617026 10.314893617021283  0.9052936170212771 10.314893617021283  L 7.789242553191489 10.314893617021283  C 8.227710638297875 10.314893617021283  8.584204255319149 10.69685106382979  8.584204255319149 11.166638297872339  C 8.584204255319149 11.636425531914895  8.227710638297868 12.018382978723409  7.789242553191489 12.018382978723409  L 0.9052936170212771 12.018382978723409  C 0.4668255319148945 12.018382978723409  0.11033191489361845 11.636425531914895  0.11033191489361845 11.166638297872339  Z " stroke-width="0" stroke-dasharray="0" stroke="rgba(255, 255, 255, 0)" fill="none" transform="matrix(1 0 0 1 341 550 )" class="stroke" mask="url(#Clip448)" />
  </g>
</svg>