<?xml version="1.0" encoding="utf-8"?>
<svg version="1.1" xmlns:xlink="http://www.w3.org/1999/xlink" width="15px" height="15px" xmlns="http://www.w3.org/2000/svg">
  <defs>
    <pattern id="BGPattern" patternUnits="userSpaceOnUse" alignment="0 0" imageRepeat="None" />
    <mask fill="white" id="Clip236">
      <path d="M 7.169759999999997 6.9144000000000005  L 12.887519999999995 1.2561600000000013  L 10.612319999999997 1.2561600000000013  C 10.268639999999998 1.2561600000000013  9.99024 0.9796800000000018  9.99024 0.6398399999999995  C 9.99024 0.3000000000000007  10.268639999999998 0.023520000000001318  10.612319999999997 0.023520000000001318  L 14.346720000000005 0.023520000000001318  C 14.690400000000004 0.023520000000001318  14.968800000000002 0.29808000000000234  14.968800000000002 0.6398399999999995  L 14.968800000000002 4.332000000000001  C 14.968800000000002 4.6718399999999995  14.690400000000004 4.9483200000000025  14.346720000000005 4.9483200000000025  C 14.003039999999999 4.9483200000000025  13.72464 4.6718399999999995  13.72464 4.332000000000001  L 13.72464 2.1700799999999987  L 8.049120000000002 7.784159999999999  C 7.805279999999995 8.024160000000002  7.411679999999997 8.024160000000002  7.169759999999997 7.784159999999999  C 7.0528014437677555 7.6696899526046485  6.986881526521984 7.512934195261302  6.986881526521984 7.34928  C 6.986881526521984 7.185625804738699  7.0528014437677555 7.028870047395351  7.169759999999997 6.9144000000000005  Z M 7.498080000000002 13.910879999999999  C 11.032800000000002 13.907039999999995  13.899360000000001 11.0424  13.899360000000001 7.507680000000001  C 13.899360000000001 7.213920000000002  14.137439999999998 6.97392  14.433120000000002 6.97392  C 14.726880000000001 6.97392  14.966880000000003 7.212000000000003  14.966880000000003 7.507680000000001  C 14.966880000000003 11.631839999999997  11.624160000000003 14.974559999999997  7.5 14.974559999999997  C 3.3739199999999983 14.974559999999997  0.03119999999999834 11.631839999999997  0.03119999999999834 7.507680000000001  C 0.03119999999999834 3.3835200000000007  3.3739199999999983 0.04079999999999728  7.498080000000002 0.04079999999999728  C 7.7918400000000005 0.04079999999999728  8.031840000000003 0.27887999999999735  8.031840000000003 0.5745599999999982  C 8.031840000000003 0.8683199999999971  7.793760000000006 1.108319999999999  7.498080000000002 1.108319999999999  C 3.963360000000002 1.108319999999999  1.0968000000000018 3.9729599999999974  1.0968000000000018 7.5096  C 1.0968000000000018 11.044319999999999  3.961440000000003 13.910879999999999  7.498080000000002 13.910879999999999  Z " fill-rule="evenodd" />
    </mask>
  </defs>
  <g transform="matrix(1 0 0 1 -337 -482 )">
    <path d="M 7.169759999999997 6.9144000000000005  L 12.887519999999995 1.2561600000000013  L 10.612319999999997 1.2561600000000013  C 10.268639999999998 1.2561600000000013  9.99024 0.9796800000000018  9.99024 0.6398399999999995  C 9.99024 0.3000000000000007  10.268639999999998 0.023520000000001318  10.612319999999997 0.023520000000001318  L 14.346720000000005 0.023520000000001318  C 14.690400000000004 0.023520000000001318  14.968800000000002 0.29808000000000234  14.968800000000002 0.6398399999999995  L 14.968800000000002 4.332000000000001  C 14.968800000000002 4.6718399999999995  14.690400000000004 4.9483200000000025  14.346720000000005 4.9483200000000025  C 14.003039999999999 4.9483200000000025  13.72464 4.6718399999999995  13.72464 4.332000000000001  L 13.72464 2.1700799999999987  L 8.049120000000002 7.784159999999999  C 7.805279999999995 8.024160000000002  7.411679999999997 8.024160000000002  7.169759999999997 7.784159999999999  C 7.0528014437677555 7.6696899526046485  6.986881526521984 7.512934195261302  6.986881526521984 7.34928  C 6.986881526521984 7.185625804738699  7.0528014437677555 7.028870047395351  7.169759999999997 6.9144000000000005  Z M 7.498080000000002 13.910879999999999  C 11.032800000000002 13.907039999999995  13.899360000000001 11.0424  13.899360000000001 7.507680000000001  C 13.899360000000001 7.213920000000002  14.137439999999998 6.97392  14.433120000000002 6.97392  C 14.726880000000001 6.97392  14.966880000000003 7.212000000000003  14.966880000000003 7.507680000000001  C 14.966880000000003 11.631839999999997  11.624160000000003 14.974559999999997  7.5 14.974559999999997  C 3.3739199999999983 14.974559999999997  0.03119999999999834 11.631839999999997  0.03119999999999834 7.507680000000001  C 0.03119999999999834 3.3835200000000007  3.3739199999999983 0.04079999999999728  7.498080000000002 0.04079999999999728  C 7.7918400000000005 0.04079999999999728  8.031840000000003 0.27887999999999735  8.031840000000003 0.5745599999999982  C 8.031840000000003 0.8683199999999971  7.793760000000006 1.108319999999999  7.498080000000002 1.108319999999999  C 3.963360000000002 1.108319999999999  1.0968000000000018 3.9729599999999974  1.0968000000000018 7.5096  C 1.0968000000000018 11.044319999999999  3.961440000000003 13.910879999999999  7.498080000000002 13.910879999999999  Z " fill-rule="nonzero" fill="rgba(0, 0, 0, 1)" stroke="none" transform="matrix(1 0 0 1 337 482 )" class="fill" />
    <path d="M 7.169759999999997 6.9144000000000005  L 12.887519999999995 1.2561600000000013  L 10.612319999999997 1.2561600000000013  C 10.268639999999998 1.2561600000000013  9.99024 0.9796800000000018  9.99024 0.6398399999999995  C 9.99024 0.3000000000000007  10.268639999999998 0.023520000000001318  10.612319999999997 0.023520000000001318  L 14.346720000000005 0.023520000000001318  C 14.690400000000004 0.023520000000001318  14.968800000000002 0.29808000000000234  14.968800000000002 0.6398399999999995  L 14.968800000000002 4.332000000000001  C 14.968800000000002 4.6718399999999995  14.690400000000004 4.9483200000000025  14.346720000000005 4.9483200000000025  C 14.003039999999999 4.9483200000000025  13.72464 4.6718399999999995  13.72464 4.332000000000001  L 13.72464 2.1700799999999987  L 8.049120000000002 7.784159999999999  C 7.805279999999995 8.024160000000002  7.411679999999997 8.024160000000002  7.169759999999997 7.784159999999999  C 7.0528014437677555 7.6696899526046485  6.986881526521984 7.512934195261302  6.986881526521984 7.34928  C 6.986881526521984 7.185625804738699  7.0528014437677555 7.028870047395351  7.169759999999997 6.9144000000000005  Z " stroke-width="0" stroke-dasharray="0" stroke="rgba(255, 255, 255, 0)" fill="none" transform="matrix(1 0 0 1 337 482 )" class="stroke" mask="url(#Clip236)" />
    <path d="M 7.498080000000002 13.910879999999999  C 11.032800000000002 13.907039999999995  13.899360000000001 11.0424  13.899360000000001 7.507680000000001  C 13.899360000000001 7.213920000000002  14.137439999999998 6.97392  14.433120000000002 6.97392  C 14.726880000000001 6.97392  14.966880000000003 7.212000000000003  14.966880000000003 7.507680000000001  C 14.966880000000003 11.631839999999997  11.624160000000003 14.974559999999997  7.5 14.974559999999997  C 3.3739199999999983 14.974559999999997  0.03119999999999834 11.631839999999997  0.03119999999999834 7.507680000000001  C 0.03119999999999834 3.3835200000000007  3.3739199999999983 0.04079999999999728  7.498080000000002 0.04079999999999728  C 7.7918400000000005 0.04079999999999728  8.031840000000003 0.27887999999999735  8.031840000000003 0.5745599999999982  C 8.031840000000003 0.8683199999999971  7.793760000000006 1.108319999999999  7.498080000000002 1.108319999999999  C 3.963360000000002 1.108319999999999  1.0968000000000018 3.9729599999999974  1.0968000000000018 7.5096  C 1.0968000000000018 11.044319999999999  3.961440000000003 13.910879999999999  7.498080000000002 13.910879999999999  Z " stroke-width="0" stroke-dasharray="0" stroke="rgba(255, 255, 255, 0)" fill="none" transform="matrix(1 0 0 1 337 482 )" class="stroke" mask="url(#Clip236)" />
  </g>
</svg>