<?xml version="1.0" encoding="utf-8"?>
<svg version="1.1" xmlns:xlink="http://www.w3.org/1999/xlink" width="22px" height="21px" xmlns="http://www.w3.org/2000/svg">
  <defs>
    <pattern id="BGPattern" patternUnits="userSpaceOnUse" alignment="0 0" imageRepeat="None" />
    <mask fill="white" id="Clip143">
      <path d="M 1.6801230769230762 7.902138461538463  C 1.6801230769230762 11.471492307692309  4.710030769230766 14.363676923076921  8.449353846153848 14.363676923076921  C 12.188676923076923 14.363676923076921  15.218584615384612 11.471492307692309  15.218584615384612 7.902138461538463  C 15.218584615384612 4.332784615384613  12.188676923076923 1.4405999999999999  8.449353846153848 1.4405999999999999  C 4.710030769230766 1.4405999999999999  1.6801230769230762 4.332784615384613  1.6801230769230762 7.902138461538463  Z M 16.724061538461537 7.902138461538463  C 16.72135384615385 9.80441538461538  16.017353846153842 11.549030769230773  14.844923076923079 12.91370769230769  L 21.606030769230763 19.3674923076923  C 21.898461538461536 19.646630769230764  21.898461538461536 20.101523076923073  21.606030769230763 20.383246153846148  C 21.313599999999994 20.66238461538461  20.837046153846156 20.66238461538461  20.541907692307696 20.383246153846148  L 13.788923076923082 13.934630769230765  C 12.348430769230768 15.097707692307694  10.48553846153846 15.798138461538464  8.449353846153848 15.798138461538464  C 3.8787692307692314 15.798138461538464  0.17464615384615645 12.26238461538461  0.17464615384615645 7.902138461538463  C 0.17464615384615645 3.5418923076923114  3.8787692307692314 0.0035538461538443754  8.449353846153848 0.0035538461538443754  C 13.019938461538464 0.0035538461538443754  16.724061538461537 3.5393076923076934  16.724061538461537 7.902138461538463  Z " fill-rule="evenodd" />
    </mask>
  </defs>
  <g transform="matrix(1 0 0 1 -200 -306 )">
    <path d="M 1.6801230769230762 7.902138461538463  C 1.6801230769230762 11.471492307692309  4.710030769230766 14.363676923076921  8.449353846153848 14.363676923076921  C 12.188676923076923 14.363676923076921  15.218584615384612 11.471492307692309  15.218584615384612 7.902138461538463  C 15.218584615384612 4.332784615384613  12.188676923076923 1.4405999999999999  8.449353846153848 1.4405999999999999  C 4.710030769230766 1.4405999999999999  1.6801230769230762 4.332784615384613  1.6801230769230762 7.902138461538463  Z M 16.724061538461537 7.902138461538463  C 16.72135384615385 9.80441538461538  16.017353846153842 11.549030769230773  14.844923076923079 12.91370769230769  L 21.606030769230763 19.3674923076923  C 21.898461538461536 19.646630769230764  21.898461538461536 20.101523076923073  21.606030769230763 20.383246153846148  C 21.313599999999994 20.66238461538461  20.837046153846156 20.66238461538461  20.541907692307696 20.383246153846148  L 13.788923076923082 13.934630769230765  C 12.348430769230768 15.097707692307694  10.48553846153846 15.798138461538464  8.449353846153848 15.798138461538464  C 3.8787692307692314 15.798138461538464  0.17464615384615645 12.26238461538461  0.17464615384615645 7.902138461538463  C 0.17464615384615645 3.5418923076923114  3.8787692307692314 0.0035538461538443754  8.449353846153848 0.0035538461538443754  C 13.019938461538464 0.0035538461538443754  16.724061538461537 3.5393076923076934  16.724061538461537 7.902138461538463  Z " fill-rule="nonzero" fill="rgba(215, 215, 215, 1)" stroke="none" transform="matrix(1 0 0 1 200 306 )" class="fill" />
    <path d="M 1.6801230769230762 7.902138461538463  C 1.6801230769230762 11.471492307692309  4.710030769230766 14.363676923076921  8.449353846153848 14.363676923076921  C 12.188676923076923 14.363676923076921  15.218584615384612 11.471492307692309  15.218584615384612 7.902138461538463  C 15.218584615384612 4.332784615384613  12.188676923076923 1.4405999999999999  8.449353846153848 1.4405999999999999  C 4.710030769230766 1.4405999999999999  1.6801230769230762 4.332784615384613  1.6801230769230762 7.902138461538463  Z " stroke-width="0" stroke-dasharray="0" stroke="rgba(255, 255, 255, 0)" fill="none" transform="matrix(1 0 0 1 200 306 )" class="stroke" mask="url(#Clip143)" />
    <path d="M 16.724061538461537 7.902138461538463  C 16.72135384615385 9.80441538461538  16.017353846153842 11.549030769230773  14.844923076923079 12.91370769230769  L 21.606030769230763 19.3674923076923  C 21.898461538461536 19.646630769230764  21.898461538461536 20.101523076923073  21.606030769230763 20.383246153846148  C 21.313599999999994 20.66238461538461  20.837046153846156 20.66238461538461  20.541907692307696 20.383246153846148  L 13.788923076923082 13.934630769230765  C 12.348430769230768 15.097707692307694  10.48553846153846 15.798138461538464  8.449353846153848 15.798138461538464  C 3.8787692307692314 15.798138461538464  0.17464615384615645 12.26238461538461  0.17464615384615645 7.902138461538463  C 0.17464615384615645 3.5418923076923114  3.8787692307692314 0.0035538461538443754  8.449353846153848 0.0035538461538443754  C 13.019938461538464 0.0035538461538443754  16.724061538461537 3.5393076923076934  16.724061538461537 7.902138461538463  Z " stroke-width="0" stroke-dasharray="0" stroke="rgba(255, 255, 255, 0)" fill="none" transform="matrix(1 0 0 1 200 306 )" class="stroke" mask="url(#Clip143)" />
  </g>
</svg>