<?xml version="1.0" encoding="utf-8"?>
<svg version="1.1" xmlns:xlink="http://www.w3.org/1999/xlink" width="19px" height="23px" xmlns="http://www.w3.org/2000/svg">
  <defs>
    <pattern id="BGPattern" patternUnits="userSpaceOnUse" alignment="0 0" imageRepeat="None" />
    <mask fill="white" id="Clip144">
      <path d="M 9.347826086956516 21.553501754385966  C 14.540173913043464 16.621010526315782  17.077913043478247 12.230835087719301  17.077913043478247 8.429459649122807  C 17.077913043478247 4.579017543859652  13.624695652173902 1.446498245614036  9.347826086956516 1.446498245614036  C 5.070956521739127 1.446498245614036  1.617739130434785 4.579017543859652  1.617739130434785 8.429459649122807  C 1.617739130434785 12.212757894736843  4.158260869565213 16.60293333333334  9.347826086956516 21.553501754385966  Z M 18.622260869565213 8.429459649122807  C 18.622260869565213 12.672435087719295  15.900869565217384 17.38025263157895  10.45530434782608 22.55549473684211  L 10.427478260869565 22.581319298245614  C 9.815304347826082 23.1339649122807  8.835826086956521 23.12105263157895  8.240347826086953 22.552912280701754  C 2.7947826086956504 17.362175438596495  0.07339130434782896 12.651775438596491  0.07339130434782896 8.429459649122807  C 0.07339130434782896 3.781038596491229  4.225043478260872 0.010652631578946624  9.347826086956516 0.010652631578946624  C 14.470608695652164 0.010652631578946624  18.622260869565213 3.778456140350876  18.622260869565213 8.429459649122807  Z M 13.21286956521739 9.335901754385963  C 13.21286956521739 11.316645614035094  11.482086956521737 12.92293333333333  9.347826086956516 12.92293333333333  C 7.213565217391298 12.92293333333333  5.482782608695651 11.316645614035094  5.482782608695651 9.335901754385963  C 5.482782608695651 7.355157894736846  7.213565217391298 5.748870175438598  9.347826086956516 5.748870175438598  C 11.482086956521737 5.748870175438598  13.21286956521739 7.355157894736846  13.21286956521739 9.335901754385963  Z M 7.029913043478256 9.335901754385963  C 7.029913043478256 10.523831578947368  8.067826086956519 11.489670175438597  9.347826086956516 11.489670175438597  C 10.627826086956516 11.489670175438597  11.665739130434778 10.52641403508772  11.665739130434778 9.338484210526317  C 11.665739130434778 8.150554385964915  10.627826086956516 7.184715789473683  9.347826086956516 7.184715789473683  C 8.067826086956519 7.184715789473683  7.029913043478256 8.14797192982456  7.029913043478256 9.335901754385963  Z " fill-rule="evenodd" />
    </mask>
  </defs>
  <g transform="matrix(1 0 0 1 -217 -460 )">
    <path d="M 9.347826086956516 21.553501754385966  C 14.540173913043464 16.621010526315782  17.077913043478247 12.230835087719301  17.077913043478247 8.429459649122807  C 17.077913043478247 4.579017543859652  13.624695652173902 1.446498245614036  9.347826086956516 1.446498245614036  C 5.070956521739127 1.446498245614036  1.617739130434785 4.579017543859652  1.617739130434785 8.429459649122807  C 1.617739130434785 12.212757894736843  4.158260869565213 16.60293333333334  9.347826086956516 21.553501754385966  Z M 18.622260869565213 8.429459649122807  C 18.622260869565213 12.672435087719295  15.900869565217384 17.38025263157895  10.45530434782608 22.55549473684211  L 10.427478260869565 22.581319298245614  C 9.815304347826082 23.1339649122807  8.835826086956521 23.12105263157895  8.240347826086953 22.552912280701754  C 2.7947826086956504 17.362175438596495  0.07339130434782896 12.651775438596491  0.07339130434782896 8.429459649122807  C 0.07339130434782896 3.781038596491229  4.225043478260872 0.010652631578946624  9.347826086956516 0.010652631578946624  C 14.470608695652164 0.010652631578946624  18.622260869565213 3.778456140350876  18.622260869565213 8.429459649122807  Z M 13.21286956521739 9.335901754385963  C 13.21286956521739 11.316645614035094  11.482086956521737 12.92293333333333  9.347826086956516 12.92293333333333  C 7.213565217391298 12.92293333333333  5.482782608695651 11.316645614035094  5.482782608695651 9.335901754385963  C 5.482782608695651 7.355157894736846  7.213565217391298 5.748870175438598  9.347826086956516 5.748870175438598  C 11.482086956521737 5.748870175438598  13.21286956521739 7.355157894736846  13.21286956521739 9.335901754385963  Z M 7.029913043478256 9.335901754385963  C 7.029913043478256 10.523831578947368  8.067826086956519 11.489670175438597  9.347826086956516 11.489670175438597  C 10.627826086956516 11.489670175438597  11.665739130434778 10.52641403508772  11.665739130434778 9.338484210526317  C 11.665739130434778 8.150554385964915  10.627826086956516 7.184715789473683  9.347826086956516 7.184715789473683  C 8.067826086956519 7.184715789473683  7.029913043478256 8.14797192982456  7.029913043478256 9.335901754385963  Z " fill-rule="nonzero" fill="rgba(20, 142, 77, 1)" stroke="none" transform="matrix(1 0 0 1 217 460 )" class="fill" />
    <path d="M 9.347826086956516 21.553501754385966  C 14.540173913043464 16.621010526315782  17.077913043478247 12.230835087719301  17.077913043478247 8.429459649122807  C 17.077913043478247 4.579017543859652  13.624695652173902 1.446498245614036  9.347826086956516 1.446498245614036  C 5.070956521739127 1.446498245614036  1.617739130434785 4.579017543859652  1.617739130434785 8.429459649122807  C 1.617739130434785 12.212757894736843  4.158260869565213 16.60293333333334  9.347826086956516 21.553501754385966  Z " stroke-width="0" stroke-dasharray="0" stroke="rgba(255, 255, 255, 0)" fill="none" transform="matrix(1 0 0 1 217 460 )" class="stroke" mask="url(#Clip144)" />
    <path d="M 18.622260869565213 8.429459649122807  C 18.622260869565213 12.672435087719295  15.900869565217384 17.38025263157895  10.45530434782608 22.55549473684211  L 10.427478260869565 22.581319298245614  C 9.815304347826082 23.1339649122807  8.835826086956521 23.12105263157895  8.240347826086953 22.552912280701754  C 2.7947826086956504 17.362175438596495  0.07339130434782896 12.651775438596491  0.07339130434782896 8.429459649122807  C 0.07339130434782896 3.781038596491229  4.225043478260872 0.010652631578946624  9.347826086956516 0.010652631578946624  C 14.470608695652164 0.010652631578946624  18.622260869565213 3.778456140350876  18.622260869565213 8.429459649122807  Z " stroke-width="0" stroke-dasharray="0" stroke="rgba(255, 255, 255, 0)" fill="none" transform="matrix(1 0 0 1 217 460 )" class="stroke" mask="url(#Clip144)" />
    <path d="M 13.21286956521739 9.335901754385963  C 13.21286956521739 11.316645614035094  11.482086956521737 12.92293333333333  9.347826086956516 12.92293333333333  C 7.213565217391298 12.92293333333333  5.482782608695651 11.316645614035094  5.482782608695651 9.335901754385963  C 5.482782608695651 7.355157894736846  7.213565217391298 5.748870175438598  9.347826086956516 5.748870175438598  C 11.482086956521737 5.748870175438598  13.21286956521739 7.355157894736846  13.21286956521739 9.335901754385963  Z " stroke-width="0" stroke-dasharray="0" stroke="rgba(255, 255, 255, 0)" fill="none" transform="matrix(1 0 0 1 217 460 )" class="stroke" mask="url(#Clip144)" />
    <path d="M 7.029913043478256 9.335901754385963  C 7.029913043478256 10.523831578947368  8.067826086956519 11.489670175438597  9.347826086956516 11.489670175438597  C 10.627826086956516 11.489670175438597  11.665739130434778 10.52641403508772  11.665739130434778 9.338484210526317  C 11.665739130434778 8.150554385964915  10.627826086956516 7.184715789473683  9.347826086956516 7.184715789473683  C 8.067826086956519 7.184715789473683  7.029913043478256 8.14797192982456  7.029913043478256 9.335901754385963  Z " stroke-width="0" stroke-dasharray="0" stroke="rgba(255, 255, 255, 0)" fill="none" transform="matrix(1 0 0 1 217 460 )" class="stroke" mask="url(#Clip144)" />
  </g>
</svg>