<?xml version="1.0" encoding="utf-8"?>
<svg version="1.1" xmlns:xlink="http://www.w3.org/1999/xlink" width="12px" height="12px" xmlns="http://www.w3.org/2000/svg">
  <defs>
    <pattern id="BGPattern" patternUnits="userSpaceOnUse" alignment="0 0" imageRepeat="None" />
    <mask fill="white" id="Clip208">
      <path d="M 11.718556701030906 11.86082474226805  C 11.922680412371164 11.665979381443321  11.928865979381413 11.344329896907254  11.737113402061823 11.140206185567052  L 8.434020618556673 7.806185567010289  C 9.080412371134045 6.995876288659787  9.47010309278349 5.9690721649485  9.47010309278349 4.852577319587596  C 9.47010309278349 2.2391752577319153  7.351546391752592 0.12061855670103228  4.735051546391787 0.12061855670103228  C 2.1185567010309114 0.12061855670103228  0 2.242268041237139  0 4.8556701030928195  C 0 7.4690721649485  2.1185567010309114 9.587628865979383  4.735051546391787 9.587628865979383  C 5.867010309278385 9.587628865979383  6.903092783505144 9.19175257731959  7.71958762886598 8.529896907216482  L 11.001030927835018 11.842268041237105  C 11.099999999999994 11.94742268041233  11.236082474226805 12  11.36907216494842 12  C 11.495876288659787 12  11.622680412371139 11.953608247422693  11.718556701030906 11.86082474226805  Z M 7.363917525773189 7.481443298969083  C 6.661855670103108 8.183505154639164  5.727835051546364 8.570103092783484  4.735051546391787 8.570103092783484  C 3.742268041237139 8.570103092783484  2.8082474226804095 8.183505154639164  2.1061855670103142 7.481443298969083  C 1.4041237113402332 6.779381443298973  1.0175257731959135 5.845360824742272  1.0175257731959135 4.8556701030928195  C 1.0175257731959135 3.862886597938143  1.4041237113402332 2.9288659793814418  2.1061855670103142 2.229896907216471  C 2.8082474226804095 1.5278350515463899  3.742268041237139 1.1412371134020702  4.735051546391787 1.1412371134020702  C 5.727835051546364 1.1412371134020702  6.661855670103108 1.5278350515463899  7.363917525773189 2.229896907216471  C 8.065979381443327 2.9319587628866373  8.452577319587675 3.86597938144331  8.452577319587675 4.8556701030928195  C 8.452577319587675 5.848453608247468  8.065979381443327 6.7824742268041405  7.363917525773189 7.481443298969083  Z " fill-rule="evenodd" />
    </mask>
  </defs>
  <g transform="matrix(1 0 0 1 -111 -1430 )">
    <path d="M 11.718556701030906 11.86082474226805  C 11.922680412371164 11.665979381443321  11.928865979381413 11.344329896907254  11.737113402061823 11.140206185567052  L 8.434020618556673 7.806185567010289  C 9.080412371134045 6.995876288659787  9.47010309278349 5.9690721649485  9.47010309278349 4.852577319587596  C 9.47010309278349 2.2391752577319153  7.351546391752592 0.12061855670103228  4.735051546391787 0.12061855670103228  C 2.1185567010309114 0.12061855670103228  0 2.242268041237139  0 4.8556701030928195  C 0 7.4690721649485  2.1185567010309114 9.587628865979383  4.735051546391787 9.587628865979383  C 5.867010309278385 9.587628865979383  6.903092783505144 9.19175257731959  7.71958762886598 8.529896907216482  L 11.001030927835018 11.842268041237105  C 11.099999999999994 11.94742268041233  11.236082474226805 12  11.36907216494842 12  C 11.495876288659787 12  11.622680412371139 11.953608247422693  11.718556701030906 11.86082474226805  Z M 7.363917525773189 7.481443298969083  C 6.661855670103108 8.183505154639164  5.727835051546364 8.570103092783484  4.735051546391787 8.570103092783484  C 3.742268041237139 8.570103092783484  2.8082474226804095 8.183505154639164  2.1061855670103142 7.481443298969083  C 1.4041237113402332 6.779381443298973  1.0175257731959135 5.845360824742272  1.0175257731959135 4.8556701030928195  C 1.0175257731959135 3.862886597938143  1.4041237113402332 2.9288659793814418  2.1061855670103142 2.229896907216471  C 2.8082474226804095 1.5278350515463899  3.742268041237139 1.1412371134020702  4.735051546391787 1.1412371134020702  C 5.727835051546364 1.1412371134020702  6.661855670103108 1.5278350515463899  7.363917525773189 2.229896907216471  C 8.065979381443327 2.9319587628866373  8.452577319587675 3.86597938144331  8.452577319587675 4.8556701030928195  C 8.452577319587675 5.848453608247468  8.065979381443327 6.7824742268041405  7.363917525773189 7.481443298969083  Z " fill-rule="nonzero" fill="rgba(154, 152, 153, 1)" stroke="none" transform="matrix(1 0 0 1 111 1430 )" class="fill" />
    <path d="M 11.718556701030906 11.86082474226805  C 11.922680412371164 11.665979381443321  11.928865979381413 11.344329896907254  11.737113402061823 11.140206185567052  L 8.434020618556673 7.806185567010289  C 9.080412371134045 6.995876288659787  9.47010309278349 5.9690721649485  9.47010309278349 4.852577319587596  C 9.47010309278349 2.2391752577319153  7.351546391752592 0.12061855670103228  4.735051546391787 0.12061855670103228  C 2.1185567010309114 0.12061855670103228  0 2.242268041237139  0 4.8556701030928195  C 0 7.4690721649485  2.1185567010309114 9.587628865979383  4.735051546391787 9.587628865979383  C 5.867010309278385 9.587628865979383  6.903092783505144 9.19175257731959  7.71958762886598 8.529896907216482  L 11.001030927835018 11.842268041237105  C 11.099999999999994 11.94742268041233  11.236082474226805 12  11.36907216494842 12  C 11.495876288659787 12  11.622680412371139 11.953608247422693  11.718556701030906 11.86082474226805  Z " stroke-width="0" stroke-dasharray="0" stroke="rgba(255, 255, 255, 0)" fill="none" transform="matrix(1 0 0 1 111 1430 )" class="stroke" mask="url(#Clip208)" />
    <path d="M 7.363917525773189 7.481443298969083  C 6.661855670103108 8.183505154639164  5.727835051546364 8.570103092783484  4.735051546391787 8.570103092783484  C 3.742268041237139 8.570103092783484  2.8082474226804095 8.183505154639164  2.1061855670103142 7.481443298969083  C 1.4041237113402332 6.779381443298973  1.0175257731959135 5.845360824742272  1.0175257731959135 4.8556701030928195  C 1.0175257731959135 3.862886597938143  1.4041237113402332 2.9288659793814418  2.1061855670103142 2.229896907216471  C 2.8082474226804095 1.5278350515463899  3.742268041237139 1.1412371134020702  4.735051546391787 1.1412371134020702  C 5.727835051546364 1.1412371134020702  6.661855670103108 1.5278350515463899  7.363917525773189 2.229896907216471  C 8.065979381443327 2.9319587628866373  8.452577319587675 3.86597938144331  8.452577319587675 4.8556701030928195  C 8.452577319587675 5.848453608247468  8.065979381443327 6.7824742268041405  7.363917525773189 7.481443298969083  Z " stroke-width="0" stroke-dasharray="0" stroke="rgba(255, 255, 255, 0)" fill="none" transform="matrix(1 0 0 1 111 1430 )" class="stroke" mask="url(#Clip208)" />
  </g>
</svg>