<?xml version="1.0" encoding="utf-8"?>
<svg version="1.1" xmlns:xlink="http://www.w3.org/1999/xlink" width="17px" height="15px" xmlns="http://www.w3.org/2000/svg">
  <defs>
    <pattern id="BGPattern" patternUnits="userSpaceOnUse" alignment="0 0" imageRepeat="None" />
    <mask fill="white" id="Clip324">
      <path d="M 16.982582456140356 7.309941520467835  C 16.982582456140356 11.329590643274853  13.186035087719297 14.58760233918128  8.5 14.58760233918128  C 6.7706526315789475 14.58760233918128  5.163466666666663 14.144093567251462  3.823508771929826 13.382456140350873  L 1.1035087719298238 14.243274853801168  C 0.9851649122807005 14.280701754385964  0.8553684210526316 14.276959064327489  0.7389333333333346 14.230175438596488  C 0.46788771929824735 14.12163742690058  0.33809122807017455 13.818479532163744  0.44880000000000086 13.552748538011691  L 1.3955508771929837 11.290292397660819  C 0.5232421052631565 10.145029239766082  0.017417543859649005 8.778947368421054  0.017417543859649005 7.309941520467835  C 0.017417543859649005 3.2902923976608163  3.8158736842105254 0.03228070175438407  8.5 0.03228070175438407  C 13.184126315789474 0.03228070175438407  16.982582456140356 3.2902923976608163  16.982582456140356 7.309941520467835  Z M 7.438722807017543 7.309941520467838  C 7.438722807017543 7.884444444444449  7.914007017543858 8.350409356725143  8.5 8.350409356725143  C 9.08599298245614 8.350409356725143  9.561277192982459 7.884444444444449  9.561277192982459 7.309941520467838  C 9.561277192982459 6.735438596491229  9.08599298245614 6.269473684210527  8.5 6.269473684210527  C 7.914007017543861 6.269473684210527  7.438722807017543 6.735438596491229  7.438722807017543 7.309941520467838  Z M 3.197431578947369 7.309941520467838  C 3.197431578947369 7.884444444444449  3.672715789473685 8.350409356725143  4.258708771929822 8.350409356725143  C 4.844701754385964 8.350409356725143  5.319985964912281 7.884444444444449  5.319985964912281 7.309941520467838  C 5.319985964912281 6.735438596491229  4.844701754385964 6.269473684210527  4.258708771929822 6.269473684210527  C 3.672715789473685 6.269473684210527  3.197431578947369 6.735438596491229  3.197431578947369 7.309941520467838  Z M 11.68001403508772 7.309941520467838  C 11.681922807017543 7.884444444444449  12.155298245614034 8.350409356725143  12.741291228070171 8.350409356725143  C 13.327284210526312 8.350409356725143  13.802568421052634 7.884444444444449  13.802568421052634 7.309941520467838  C 13.802568421052634 6.735438596491229  13.327284210526312 6.269473684210527  12.741291228070171 6.269473684210527  C 12.155298245614034 6.269473684210527  11.68001403508772 6.735438596491229  11.68001403508772 7.309941520467838  Z " fill-rule="evenodd" />
    </mask>
  </defs>
  <g transform="matrix(1 0 0 1 -418 -819 )">
    <path d="M 16.982582456140356 7.309941520467835  C 16.982582456140356 11.329590643274853  13.186035087719297 14.58760233918128  8.5 14.58760233918128  C 6.7706526315789475 14.58760233918128  5.163466666666663 14.144093567251462  3.823508771929826 13.382456140350873  L 1.1035087719298238 14.243274853801168  C 0.9851649122807005 14.280701754385964  0.8553684210526316 14.276959064327489  0.7389333333333346 14.230175438596488  C 0.46788771929824735 14.12163742690058  0.33809122807017455 13.818479532163744  0.44880000000000086 13.552748538011691  L 1.3955508771929837 11.290292397660819  C 0.5232421052631565 10.145029239766082  0.017417543859649005 8.778947368421054  0.017417543859649005 7.309941520467835  C 0.017417543859649005 3.2902923976608163  3.8158736842105254 0.03228070175438407  8.5 0.03228070175438407  C 13.184126315789474 0.03228070175438407  16.982582456140356 3.2902923976608163  16.982582456140356 7.309941520467835  Z M 7.438722807017543 7.309941520467838  C 7.438722807017543 7.884444444444449  7.914007017543858 8.350409356725143  8.5 8.350409356725143  C 9.08599298245614 8.350409356725143  9.561277192982459 7.884444444444449  9.561277192982459 7.309941520467838  C 9.561277192982459 6.735438596491229  9.08599298245614 6.269473684210527  8.5 6.269473684210527  C 7.914007017543861 6.269473684210527  7.438722807017543 6.735438596491229  7.438722807017543 7.309941520467838  Z M 3.197431578947369 7.309941520467838  C 3.197431578947369 7.884444444444449  3.672715789473685 8.350409356725143  4.258708771929822 8.350409356725143  C 4.844701754385964 8.350409356725143  5.319985964912281 7.884444444444449  5.319985964912281 7.309941520467838  C 5.319985964912281 6.735438596491229  4.844701754385964 6.269473684210527  4.258708771929822 6.269473684210527  C 3.672715789473685 6.269473684210527  3.197431578947369 6.735438596491229  3.197431578947369 7.309941520467838  Z M 11.68001403508772 7.309941520467838  C 11.681922807017543 7.884444444444449  12.155298245614034 8.350409356725143  12.741291228070171 8.350409356725143  C 13.327284210526312 8.350409356725143  13.802568421052634 7.884444444444449  13.802568421052634 7.309941520467838  C 13.802568421052634 6.735438596491229  13.327284210526312 6.269473684210527  12.741291228070171 6.269473684210527  C 12.155298245614034 6.269473684210527  11.68001403508772 6.735438596491229  11.68001403508772 7.309941520467838  Z " fill-rule="nonzero" fill="rgba(50, 50, 51, 1)" stroke="none" transform="matrix(1 0 0 1 418 819 )" class="fill" />
    <path d="M 16.982582456140356 7.309941520467835  C 16.982582456140356 11.329590643274853  13.186035087719297 14.58760233918128  8.5 14.58760233918128  C 6.7706526315789475 14.58760233918128  5.163466666666663 14.144093567251462  3.823508771929826 13.382456140350873  L 1.1035087719298238 14.243274853801168  C 0.9851649122807005 14.280701754385964  0.8553684210526316 14.276959064327489  0.7389333333333346 14.230175438596488  C 0.46788771929824735 14.12163742690058  0.33809122807017455 13.818479532163744  0.44880000000000086 13.552748538011691  L 1.3955508771929837 11.290292397660819  C 0.5232421052631565 10.145029239766082  0.017417543859649005 8.778947368421054  0.017417543859649005 7.309941520467835  C 0.017417543859649005 3.2902923976608163  3.8158736842105254 0.03228070175438407  8.5 0.03228070175438407  C 13.184126315789474 0.03228070175438407  16.982582456140356 3.2902923976608163  16.982582456140356 7.309941520467835  Z " stroke-width="0" stroke-dasharray="0" stroke="rgba(255, 255, 255, 0)" fill="none" transform="matrix(1 0 0 1 418 819 )" class="stroke" mask="url(#Clip324)" />
    <path d="M 7.438722807017543 7.309941520467838  C 7.438722807017543 7.884444444444449  7.914007017543858 8.350409356725143  8.5 8.350409356725143  C 9.08599298245614 8.350409356725143  9.561277192982459 7.884444444444449  9.561277192982459 7.309941520467838  C 9.561277192982459 6.735438596491229  9.08599298245614 6.269473684210527  8.5 6.269473684210527  C 7.914007017543861 6.269473684210527  7.438722807017543 6.735438596491229  7.438722807017543 7.309941520467838  Z " stroke-width="0" stroke-dasharray="0" stroke="rgba(255, 255, 255, 0)" fill="none" transform="matrix(1 0 0 1 418 819 )" class="stroke" mask="url(#Clip324)" />
    <path d="M 3.197431578947369 7.309941520467838  C 3.197431578947369 7.884444444444449  3.672715789473685 8.350409356725143  4.258708771929822 8.350409356725143  C 4.844701754385964 8.350409356725143  5.319985964912281 7.884444444444449  5.319985964912281 7.309941520467838  C 5.319985964912281 6.735438596491229  4.844701754385964 6.269473684210527  4.258708771929822 6.269473684210527  C 3.672715789473685 6.269473684210527  3.197431578947369 6.735438596491229  3.197431578947369 7.309941520467838  Z " stroke-width="0" stroke-dasharray="0" stroke="rgba(255, 255, 255, 0)" fill="none" transform="matrix(1 0 0 1 418 819 )" class="stroke" mask="url(#Clip324)" />
    <path d="M 11.68001403508772 7.309941520467838  C 11.681922807017543 7.884444444444449  12.155298245614034 8.350409356725143  12.741291228070171 8.350409356725143  C 13.327284210526312 8.350409356725143  13.802568421052634 7.884444444444449  13.802568421052634 7.309941520467838  C 13.802568421052634 6.735438596491229  13.327284210526312 6.269473684210527  12.741291228070171 6.269473684210527  C 12.155298245614034 6.269473684210527  11.68001403508772 6.735438596491229  11.68001403508772 7.309941520467838  Z " stroke-width="0" stroke-dasharray="0" stroke="rgba(255, 255, 255, 0)" fill="none" transform="matrix(1 0 0 1 418 819 )" class="stroke" mask="url(#Clip324)" />
  </g>
</svg>