<?xml version="1.0" encoding="utf-8"?>
<svg version="1.1" xmlns:xlink="http://www.w3.org/1999/xlink" width="7px" height="12px" xmlns="http://www.w3.org/2000/svg">
  <defs>
    <pattern id="BGPattern" patternUnits="userSpaceOnUse" alignment="0 0" imageRepeat="None" />
    <mask fill="white" id="Clip391">
      <path d="M 0.39642857142860066 10.539285714285711  L 4.932142857142821 6  L 0.3928571428571672 1.4642857142856656  C 0.057142857142878256 1.1285714285714903  0.057142857142878256 0.585714285714289  0.3928571428571672 0.2535714285714903  C 0.7285714285713993 -0.07857142857142208  1.2714285714286007 -0.07857142857142208  1.6071428571428896 0.2535714285714903  L 6.75 5.39285714285711  C 7.074999999999989 5.717857142857156  7.082142857142856 6.2392857142857565  6.774999999999977 6.574999999999932  L 1.610714285714323 11.75  C 1.4428571428571786 11.917857142857088  1.2214285714285893 12  1.0035714285714334 12  C 0.7857142857143344 12  0.5642857142857451 11.917857142857088  0.39642857142860066 11.75  C 0.0607142857143117 11.414285714285711  0.0607142857143117 10.87142857142851  0.39642857142860066 10.539285714285711  Z " fill-rule="evenodd" />
    </mask>
  </defs>
  <g transform="matrix(1 0 0 1 -433 -366 )">
    <path d="M 0.39642857142860066 10.539285714285711  L 4.932142857142821 6  L 0.3928571428571672 1.4642857142856656  C 0.057142857142878256 1.1285714285714903  0.057142857142878256 0.585714285714289  0.3928571428571672 0.2535714285714903  C 0.7285714285713993 -0.07857142857142208  1.2714285714286007 -0.07857142857142208  1.6071428571428896 0.2535714285714903  L 6.75 5.39285714285711  C 7.074999999999989 5.717857142857156  7.082142857142856 6.2392857142857565  6.774999999999977 6.574999999999932  L 1.610714285714323 11.75  C 1.4428571428571786 11.917857142857088  1.2214285714285893 12  1.0035714285714334 12  C 0.7857142857143344 12  0.5642857142857451 11.917857142857088  0.39642857142860066 11.75  C 0.0607142857143117 11.414285714285711  0.0607142857143117 10.87142857142851  0.39642857142860066 10.539285714285711  Z " fill-rule="nonzero" fill="rgba(154, 152, 153, 1)" stroke="none" transform="matrix(1 0 0 1 433 366 )" class="fill" />
    <path d="M 0.39642857142860066 10.539285714285711  L 4.932142857142821 6  L 0.3928571428571672 1.4642857142856656  C 0.057142857142878256 1.1285714285714903  0.057142857142878256 0.585714285714289  0.3928571428571672 0.2535714285714903  C 0.7285714285713993 -0.07857142857142208  1.2714285714286007 -0.07857142857142208  1.6071428571428896 0.2535714285714903  L 6.75 5.39285714285711  C 7.074999999999989 5.717857142857156  7.082142857142856 6.2392857142857565  6.774999999999977 6.574999999999932  L 1.610714285714323 11.75  C 1.4428571428571786 11.917857142857088  1.2214285714285893 12  1.0035714285714334 12  C 0.7857142857143344 12  0.5642857142857451 11.917857142857088  0.39642857142860066 11.75  C 0.0607142857143117 11.414285714285711  0.0607142857143117 10.87142857142851  0.39642857142860066 10.539285714285711  Z " stroke-width="0" stroke-dasharray="0" stroke="rgba(255, 255, 255, 0)" fill="none" transform="matrix(1 0 0 1 433 366 )" class="stroke" mask="url(#Clip391)" />
  </g>
</svg>