<?xml version="1.0" encoding="utf-8"?>
<svg version="1.1" xmlns:xlink="http://www.w3.org/1999/xlink" width="7px" height="12px" xmlns="http://www.w3.org/2000/svg">
  <defs>
    <pattern id="BGPattern" patternUnits="userSpaceOnUse" alignment="0 0" imageRepeat="None" />
    <mask fill="white" id="Clip392">
      <path d="M 0.39642857142860066 10.470508658008612  L 4.932142857142821 6  L 0.3928571428571104 1.5330086580086117  C 0.05714285714293509 1.20238095238102  0.05714285714293509 0.6677489177488951  0.3928571428571104 0.34063852813858375  C 0.7285714285713993 0.013528138528101861  1.2714285714286007 0.013528138528101861  1.6071428571428896 0.34063852813858375  L 6.749999999999999 5.402056277056261  C 7.075000000000045 5.722132034632068  7.082142857142912 6.235660173160226  6.774999999999976 6.566287878787818  L 1.6107142857142662 11.66287878787881  C 1.4428571428571784 11.828192640692635  1.2214285714285325 11.909090909090935  1.0035714285713766 11.909090909090935  C 0.7857142857143344 11.909090909090935  0.5642857142856883 11.828192640692635  0.39642857142860066 11.66287878787881  C 0.0607142857143117 11.332251082251105  0.0607142857143117 10.79761904761898  0.39642857142860066 10.470508658008612  Z " fill-rule="evenodd" />
    </mask>
  </defs>
  <g transform="matrix(1 0 0 1 -432 -409 )">
    <path d="M 0.39642857142860066 10.470508658008612  L 4.932142857142821 6  L 0.3928571428571104 1.5330086580086117  C 0.05714285714293509 1.20238095238102  0.05714285714293509 0.6677489177488951  0.3928571428571104 0.34063852813858375  C 0.7285714285713993 0.013528138528101861  1.2714285714286007 0.013528138528101861  1.6071428571428896 0.34063852813858375  L 6.749999999999999 5.402056277056261  C 7.075000000000045 5.722132034632068  7.082142857142912 6.235660173160226  6.774999999999976 6.566287878787818  L 1.6107142857142662 11.66287878787881  C 1.4428571428571784 11.828192640692635  1.2214285714285325 11.909090909090935  1.0035714285713766 11.909090909090935  C 0.7857142857143344 11.909090909090935  0.5642857142856883 11.828192640692635  0.39642857142860066 11.66287878787881  C 0.0607142857143117 11.332251082251105  0.0607142857143117 10.79761904761898  0.39642857142860066 10.470508658008612  Z " fill-rule="nonzero" fill="rgba(154, 152, 153, 1)" stroke="none" transform="matrix(1 0 0 1 432 409 )" class="fill" />
    <path d="M 0.39642857142860066 10.470508658008612  L 4.932142857142821 6  L 0.3928571428571104 1.5330086580086117  C 0.05714285714293509 1.20238095238102  0.05714285714293509 0.6677489177488951  0.3928571428571104 0.34063852813858375  C 0.7285714285713993 0.013528138528101861  1.2714285714286007 0.013528138528101861  1.6071428571428896 0.34063852813858375  L 6.749999999999999 5.402056277056261  C 7.075000000000045 5.722132034632068  7.082142857142912 6.235660173160226  6.774999999999976 6.566287878787818  L 1.6107142857142662 11.66287878787881  C 1.4428571428571784 11.828192640692635  1.2214285714285325 11.909090909090935  1.0035714285713766 11.909090909090935  C 0.7857142857143344 11.909090909090935  0.5642857142856883 11.828192640692635  0.39642857142860066 11.66287878787881  C 0.0607142857143117 11.332251082251105  0.0607142857143117 10.79761904761898  0.39642857142860066 10.470508658008612  Z " stroke-width="0" stroke-dasharray="0" stroke="rgba(255, 255, 255, 0)" fill="none" transform="matrix(1 0 0 1 432 409 )" class="stroke" mask="url(#Clip392)" />
  </g>
</svg>