<?xml version="1.0" encoding="utf-8"?>
<svg version="1.1" xmlns:xlink="http://www.w3.org/1999/xlink" width="16px" height="20px" xmlns="http://www.w3.org/2000/svg">
  <defs>
    <pattern id="BGPattern" patternUnits="userSpaceOnUse" alignment="0 0" imageRepeat="None" />
    <mask fill="white" id="Clip453">
      <path d="M 0.5361248499399781 10.773224489795911  C 0.33329171668667773 10.629551020408163  0.1894645858343371 10.446693877551024  0.12677070828331527 10.248163265306118  C 0.008758703481395754 9.89289795918367  0.14521008403361227 9.503673469387753  0.5361248499399781 9.226775510204078  L 12.84993997599039 0.5044897959183648  C 13.451063625450175 0.07869387755101798  14.424662665066013 0.07869387755101798  15.022098439375736 0.5044897959183648  C 15.61953421368547 0.9302857142857117  15.623222088835519 1.6199183673469357  15.022098439375736 2.0431020408163265  L 3.7925186074429775 10  L 15.02578631452581 17.956897959183674  C 15.626909963985595 18.38269387755102  15.626909963985595 19.07232653061224  15.02578631452581 19.495510204081633  C 14.424662665066027 19.91869387755102  13.451063625450175 19.921306122448982  12.853627851140452 19.495510204081633  L 0.5361248499399781 10.773224489795911  Z " fill-rule="evenodd" />
    </mask>
  </defs>
  <g transform="matrix(1 0 0 1 -91 -111 )">
    <path d="M 0.5361248499399781 10.773224489795911  C 0.33329171668667773 10.629551020408163  0.1894645858343371 10.446693877551024  0.12677070828331527 10.248163265306118  C 0.008758703481395754 9.89289795918367  0.14521008403361227 9.503673469387753  0.5361248499399781 9.226775510204078  L 12.84993997599039 0.5044897959183648  C 13.451063625450175 0.07869387755101798  14.424662665066013 0.07869387755101798  15.022098439375736 0.5044897959183648  C 15.61953421368547 0.9302857142857117  15.623222088835519 1.6199183673469357  15.022098439375736 2.0431020408163265  L 3.7925186074429775 10  L 15.02578631452581 17.956897959183674  C 15.626909963985595 18.38269387755102  15.626909963985595 19.07232653061224  15.02578631452581 19.495510204081633  C 14.424662665066027 19.91869387755102  13.451063625450175 19.921306122448982  12.853627851140452 19.495510204081633  L 0.5361248499399781 10.773224489795911  Z " fill-rule="nonzero" fill="rgba(127, 127, 127, 1)" stroke="none" transform="matrix(1 0 0 1 91 111 )" class="fill" />
    <path d="M 0.5361248499399781 10.773224489795911  C 0.33329171668667773 10.629551020408163  0.1894645858343371 10.446693877551024  0.12677070828331527 10.248163265306118  C 0.008758703481395754 9.89289795918367  0.14521008403361227 9.503673469387753  0.5361248499399781 9.226775510204078  L 12.84993997599039 0.5044897959183648  C 13.451063625450175 0.07869387755101798  14.424662665066013 0.07869387755101798  15.022098439375736 0.5044897959183648  C 15.61953421368547 0.9302857142857117  15.623222088835519 1.6199183673469357  15.022098439375736 2.0431020408163265  L 3.7925186074429775 10  L 15.02578631452581 17.956897959183674  C 15.626909963985595 18.38269387755102  15.626909963985595 19.07232653061224  15.02578631452581 19.495510204081633  C 14.424662665066027 19.91869387755102  13.451063625450175 19.921306122448982  12.853627851140452 19.495510204081633  L 0.5361248499399781 10.773224489795911  Z " stroke-width="0" stroke-dasharray="0" stroke="rgba(255, 255, 255, 0)" fill="none" transform="matrix(1 0 0 1 91 111 )" class="stroke" mask="url(#Clip453)" />
  </g>
</svg>