<?xml version="1.0" encoding="utf-8"?>
<svg version="1.1" xmlns:xlink="http://www.w3.org/1999/xlink" width="15px" height="15px" xmlns="http://www.w3.org/2000/svg">
  <defs>
    <pattern id="BGPattern" patternUnits="userSpaceOnUse" alignment="0 0" imageRepeat="None" />
    <mask fill="white" id="Clip256">
      <path d="M 1.145538461538461 5.644384615384617  C 1.145538461538461 8.193923076923078  3.2113846153846133 10.25976923076923  5.760923076923078 10.25976923076923  C 8.310461538461539 10.25976923076923  10.376307692307691 8.193923076923078  10.376307692307691 5.644384615384617  C 10.376307692307691 3.0948461538461522  8.310461538461539 1.029  5.760923076923078 1.029  C 3.2113846153846133 1.029  1.145538461538461 3.0948461538461522  1.145538461538461 5.644384615384617  Z M 11.40276923076923 5.644384615384617  C 11.400923076923078 7.003153846153843  10.920923076923074 8.249307692307696  10.121538461538464 9.224076923076922  L 14.731384615384613 13.833923076923071  C 14.93076923076923 14.033307692307687  14.93076923076923 14.358230769230765  14.731384615384613 14.559461538461534  C 14.531999999999996 14.75884615384615  14.207076923076926 14.75884615384615  14.005846153846157 14.559461538461534  L 9.401538461538465 9.953307692307689  C 8.419384615384615 10.784076923076924  7.149230769230769 11.284384615384617  5.760923076923078 11.284384615384617  C 2.644615384615385 11.284384615384617  0.11907692307692484 8.75884615384615  0.11907692307692484 5.644384615384617  C 0.11907692307692484 2.5299230769230796  2.644615384615385 0.0025384615384602682  5.760923076923078 0.0025384615384602682  C 8.87723076923077 0.0025384615384602682  11.40276923076923 2.5280769230769238  11.40276923076923 5.644384615384617  Z " fill-rule="evenodd" />
    </mask>
  </defs>
  <g transform="matrix(1 0 0 1 -99 -163 )">
    <path d="M 1.145538461538461 5.644384615384617  C 1.145538461538461 8.193923076923078  3.2113846153846133 10.25976923076923  5.760923076923078 10.25976923076923  C 8.310461538461539 10.25976923076923  10.376307692307691 8.193923076923078  10.376307692307691 5.644384615384617  C 10.376307692307691 3.0948461538461522  8.310461538461539 1.029  5.760923076923078 1.029  C 3.2113846153846133 1.029  1.145538461538461 3.0948461538461522  1.145538461538461 5.644384615384617  Z M 11.40276923076923 5.644384615384617  C 11.400923076923078 7.003153846153843  10.920923076923074 8.249307692307696  10.121538461538464 9.224076923076922  L 14.731384615384613 13.833923076923071  C 14.93076923076923 14.033307692307687  14.93076923076923 14.358230769230765  14.731384615384613 14.559461538461534  C 14.531999999999996 14.75884615384615  14.207076923076926 14.75884615384615  14.005846153846157 14.559461538461534  L 9.401538461538465 9.953307692307689  C 8.419384615384615 10.784076923076924  7.149230769230769 11.284384615384617  5.760923076923078 11.284384615384617  C 2.644615384615385 11.284384615384617  0.11907692307692484 8.75884615384615  0.11907692307692484 5.644384615384617  C 0.11907692307692484 2.5299230769230796  2.644615384615385 0.0025384615384602682  5.760923076923078 0.0025384615384602682  C 8.87723076923077 0.0025384615384602682  11.40276923076923 2.5280769230769238  11.40276923076923 5.644384615384617  Z " fill-rule="nonzero" fill="rgba(51, 51, 51, 1)" stroke="none" transform="matrix(1 0 0 1 99 163 )" class="fill" />
    <path d="M 1.145538461538461 5.644384615384617  C 1.145538461538461 8.193923076923078  3.2113846153846133 10.25976923076923  5.760923076923078 10.25976923076923  C 8.310461538461539 10.25976923076923  10.376307692307691 8.193923076923078  10.376307692307691 5.644384615384617  C 10.376307692307691 3.0948461538461522  8.310461538461539 1.029  5.760923076923078 1.029  C 3.2113846153846133 1.029  1.145538461538461 3.0948461538461522  1.145538461538461 5.644384615384617  Z " stroke-width="0" stroke-dasharray="0" stroke="rgba(255, 255, 255, 0)" fill="none" transform="matrix(1 0 0 1 99 163 )" class="stroke" mask="url(#Clip256)" />
    <path d="M 11.40276923076923 5.644384615384617  C 11.400923076923078 7.003153846153843  10.920923076923074 8.249307692307696  10.121538461538464 9.224076923076922  L 14.731384615384613 13.833923076923071  C 14.93076923076923 14.033307692307687  14.93076923076923 14.358230769230765  14.731384615384613 14.559461538461534  C 14.531999999999996 14.75884615384615  14.207076923076926 14.75884615384615  14.005846153846157 14.559461538461534  L 9.401538461538465 9.953307692307689  C 8.419384615384615 10.784076923076924  7.149230769230769 11.284384615384617  5.760923076923078 11.284384615384617  C 2.644615384615385 11.284384615384617  0.11907692307692484 8.75884615384615  0.11907692307692484 5.644384615384617  C 0.11907692307692484 2.5299230769230796  2.644615384615385 0.0025384615384602682  5.760923076923078 0.0025384615384602682  C 8.87723076923077 0.0025384615384602682  11.40276923076923 2.5280769230769238  11.40276923076923 5.644384615384617  Z " stroke-width="0" stroke-dasharray="0" stroke="rgba(255, 255, 255, 0)" fill="none" transform="matrix(1 0 0 1 99 163 )" class="stroke" mask="url(#Clip256)" />
  </g>
</svg>