<?xml version="1.0" encoding="utf-8"?>
<svg version="1.1" xmlns:xlink="http://www.w3.org/1999/xlink" width="12px" height="21px" xmlns="http://www.w3.org/2000/svg">
  <defs>
    <pattern id="BGPattern" patternUnits="userSpaceOnUse" alignment="0 0" imageRepeat="None" />
    <mask fill="white" id="Clip265">
      <path d="M 11.815297387772858 20.008740610419295  C 11.815297387772858 20.414230493996342  11.484730056022272 20.74295841882426  11.076923076923094 20.74300631558299  C 10.89051211801187 20.743258414181696  10.71095521803801 20.673139505025006  10.574538461538467 20.546819696115904  L 0.23607692307692218 11.00136546239631  C 0.08559366236958965 10.862432740173261  8.723316003056425E-05 10.667469893684299  8.723316003056425E-05 10.463286371577269  C 8.723316003056425E-05 10.259102849470196  0.08559366236958965 10.064140002981247  0.23607692307692218 9.92520728075823  L 10.574538461538467 0.379753047038605  C 10.711131867636368 0.2536369801862435  10.89063750730135 0.18354738100906334  11.07703846153845 0.18354738100906334  C 11.484890086802949 0.18354738100906334  11.81551915540058 0.5122978646169827  11.81551915540058 0.9178321378576442  C 11.81551915540058 1.1220138214974327  11.730016463955423 1.3169755775733594  11.579538461538476 1.4559112286766975  L 1.8230769230769113 10.463286371577269  L 11.579307692307708 19.470661514477825  C 11.729790956377514 19.60959423694851  11.815297387772858 19.804557085693716  11.815297387772858 20.008740610419295  Z " fill-rule="evenodd" />
    </mask>
  </defs>
  <g transform="matrix(1 0 0 1 -91 -110 )">
    <path d="M 11.815297387772858 20.008740610419295  C 11.815297387772858 20.414230493996342  11.484730056022272 20.74295841882426  11.076923076923094 20.74300631558299  C 10.89051211801187 20.743258414181696  10.71095521803801 20.673139505025006  10.574538461538467 20.546819696115904  L 0.23607692307692218 11.00136546239631  C 0.08559366236958965 10.862432740173261  8.723316003056425E-05 10.667469893684299  8.723316003056425E-05 10.463286371577269  C 8.723316003056425E-05 10.259102849470196  0.08559366236958965 10.064140002981247  0.23607692307692218 9.92520728075823  L 10.574538461538467 0.379753047038605  C 10.711131867636368 0.2536369801862435  10.89063750730135 0.18354738100906334  11.07703846153845 0.18354738100906334  C 11.484890086802949 0.18354738100906334  11.81551915540058 0.5122978646169827  11.81551915540058 0.9178321378576442  C 11.81551915540058 1.1220138214974327  11.730016463955423 1.3169755775733594  11.579538461538476 1.4559112286766975  L 1.8230769230769113 10.463286371577269  L 11.579307692307708 19.470661514477825  C 11.729790956377514 19.60959423694851  11.815297387772858 19.804557085693716  11.815297387772858 20.008740610419295  Z " fill-rule="nonzero" fill="rgba(0, 0, 0, 1)" stroke="none" transform="matrix(1 0 0 1 91 110 )" class="fill" />
    <path d="M 11.815297387772858 20.008740610419295  C 11.815297387772858 20.414230493996342  11.484730056022272 20.74295841882426  11.076923076923094 20.74300631558299  C 10.89051211801187 20.743258414181696  10.71095521803801 20.673139505025006  10.574538461538467 20.546819696115904  L 0.23607692307692218 11.00136546239631  C 0.08559366236958965 10.862432740173261  8.723316003056425E-05 10.667469893684299  8.723316003056425E-05 10.463286371577269  C 8.723316003056425E-05 10.259102849470196  0.08559366236958965 10.064140002981247  0.23607692307692218 9.92520728075823  L 10.574538461538467 0.379753047038605  C 10.711131867636368 0.2536369801862435  10.89063750730135 0.18354738100906334  11.07703846153845 0.18354738100906334  C 11.484890086802949 0.18354738100906334  11.81551915540058 0.5122978646169827  11.81551915540058 0.9178321378576442  C 11.81551915540058 1.1220138214974327  11.730016463955423 1.3169755775733594  11.579538461538476 1.4559112286766975  L 1.8230769230769113 10.463286371577269  L 11.579307692307708 19.470661514477825  C 11.729790956377514 19.60959423694851  11.815297387772858 19.804557085693716  11.815297387772858 20.008740610419295  Z " stroke-width="0" stroke-dasharray="0" stroke="rgba(255, 255, 255, 0)" fill="none" transform="matrix(1 0 0 1 91 110 )" class="stroke" mask="url(#Clip265)" />
  </g>
</svg>