<?xml version="1.0" encoding="utf-8"?>
<svg version="1.1" xmlns:xlink="http://www.w3.org/1999/xlink" width="377px" height="108px" xmlns="http://www.w3.org/2000/svg">
  <defs>
    <pattern id="BGPattern" patternUnits="userSpaceOnUse" alignment="0 0" imageRepeat="None" />
    <mask fill="white" id="Clip532">
      <path d="M 0 108  L 0 0  L 377 0  L 377 108  L 0 108  Z " fill-rule="evenodd" />
    </mask>
  </defs>
  <g transform="matrix(1 0 0 1 -73 -411 )">
    <path d="M 0 108  L 0 0  L 377 0  L 377 108  L 0 108  Z " fill-rule="nonzero" fill="rgba(242, 242, 242, 1)" stroke="none" transform="matrix(1 0 0 1 73 411 )" class="fill" />
    <path d="M 0 108  L 0 0  L 377 0  L 377 108  L 0 108  Z " stroke-width="2" stroke-dasharray="0" stroke="rgba(121, 121, 121, 1)" fill="none" transform="matrix(1 0 0 1 73 411 )" class="stroke" mask="url(#Clip532)" />
    <path d="M 375.3221208980868 0.4806656313173163  L 1.6778791019132246 107.51933436868268  M 1.6778791019132246 0.4806656313173163  L 375.3221208980868 107.51933436868268  " stroke-width="1" stroke-dasharray="0" stroke="rgba(121, 121, 121, 1)" fill="none" transform="matrix(1 0 0 1 73 411 )" class="stroke" />
  </g>
</svg>