<?xml version="1.0" encoding="utf-8"?>
<svg version="1.1" xmlns:xlink="http://www.w3.org/1999/xlink" width="7px" height="10px" xmlns="http://www.w3.org/2000/svg">
  <defs>
    <pattern id="BGPattern" patternUnits="userSpaceOnUse" alignment="0 0" imageRepeat="None" />
    <mask fill="white" id="Clip416">
      <path d="M 4.7373046875 4.51171875  C 5.0791015625 4.186197916666666  5.25 3.7934027777777777  5.25 3.333333333333334  C 5.25 2.8732638888888884  5.0791015625 2.48046875  4.7373046875 2.154947916666666  C 4.3955078125 1.8294270833333337  3.983072916666667 1.6666666666666663  3.5 1.6666666666666663  C 3.0169270833333335 1.6666666666666663  2.6044921875 1.8294270833333337  2.2626953125 2.154947916666666  C 1.9208984375 2.48046875  1.75 2.8732638888888884  1.75 3.333333333333334  C 1.75 3.7934027777777777  1.9208984375 4.186197916666666  2.2626953125 4.51171875  C 2.6044921875 4.837239583333334  3.0169270833333335 5  3.5 5  C 3.983072916666667 5  4.3955078125 4.837239583333334  4.7373046875 4.51171875  Z M 5.974609375 0.9765625  C 6.658203125 1.6276041666666663  7 2.413194444444443  7 3.333333333333334  C 7 3.8064236111111107  6.9248046875 4.194878472222222  6.7744140625 4.498697916666666  L 4.2861328125 9.537760416666666  C 4.213216145833334 9.680989583333334  4.10498046875 9.793836805555555  3.96142578125 9.876302083333334  C 3.81787109375 9.95876736111111  3.6640625 10  3.5 10  C 3.3359375 10  3.18212890625 9.95876736111111  3.03857421875 9.876302083333334  C 2.89501953125 9.793836805555555  2.7890625 9.680989583333334  2.720703125 9.537760416666666  L 0.2255859375 4.498697916666666  C 0.0751953125 4.194878472222222  0 3.8064236111111107  0 3.333333333333334  C 0 2.413194444444443  0.341796875 1.6276041666666663  1.025390625 0.9765625  C 1.7089843750000002 0.3255208333333337  2.533854166666667 0  3.5 0  C 4.466145833333334 0  5.291015625 0.3255208333333337  5.974609375 0.9765625  Z " fill-rule="evenodd" />
    </mask>
  </defs>
  <g transform="matrix(1 0 0 1 -75 -99 )">
    <path d="M 4.7373046875 4.51171875  C 5.0791015625 4.186197916666666  5.25 3.7934027777777777  5.25 3.333333333333334  C 5.25 2.8732638888888884  5.0791015625 2.48046875  4.7373046875 2.154947916666666  C 4.3955078125 1.8294270833333337  3.983072916666667 1.6666666666666663  3.5 1.6666666666666663  C 3.0169270833333335 1.6666666666666663  2.6044921875 1.8294270833333337  2.2626953125 2.154947916666666  C 1.9208984375 2.48046875  1.75 2.8732638888888884  1.75 3.333333333333334  C 1.75 3.7934027777777777  1.9208984375 4.186197916666666  2.2626953125 4.51171875  C 2.6044921875 4.837239583333334  3.0169270833333335 5  3.5 5  C 3.983072916666667 5  4.3955078125 4.837239583333334  4.7373046875 4.51171875  Z M 5.974609375 0.9765625  C 6.658203125 1.6276041666666663  7 2.413194444444443  7 3.333333333333334  C 7 3.8064236111111107  6.9248046875 4.194878472222222  6.7744140625 4.498697916666666  L 4.2861328125 9.537760416666666  C 4.213216145833334 9.680989583333334  4.10498046875 9.793836805555555  3.96142578125 9.876302083333334  C 3.81787109375 9.95876736111111  3.6640625 10  3.5 10  C 3.3359375 10  3.18212890625 9.95876736111111  3.03857421875 9.876302083333334  C 2.89501953125 9.793836805555555  2.7890625 9.680989583333334  2.720703125 9.537760416666666  L 0.2255859375 4.498697916666666  C 0.0751953125 4.194878472222222  0 3.8064236111111107  0 3.333333333333334  C 0 2.413194444444443  0.341796875 1.6276041666666663  1.025390625 0.9765625  C 1.7089843750000002 0.3255208333333337  2.533854166666667 0  3.5 0  C 4.466145833333334 0  5.291015625 0.3255208333333337  5.974609375 0.9765625  Z " fill-rule="nonzero" fill="rgba(34, 111, 98, 1)" stroke="none" transform="matrix(1 0 0 1 75 99 )" class="fill" />
    <path d="M 4.7373046875 4.51171875  C 5.0791015625 4.186197916666666  5.25 3.7934027777777777  5.25 3.333333333333334  C 5.25 2.8732638888888884  5.0791015625 2.48046875  4.7373046875 2.154947916666666  C 4.3955078125 1.8294270833333337  3.983072916666667 1.6666666666666663  3.5 1.6666666666666663  C 3.0169270833333335 1.6666666666666663  2.6044921875 1.8294270833333337  2.2626953125 2.154947916666666  C 1.9208984375 2.48046875  1.75 2.8732638888888884  1.75 3.333333333333334  C 1.75 3.7934027777777777  1.9208984375 4.186197916666666  2.2626953125 4.51171875  C 2.6044921875 4.837239583333334  3.0169270833333335 5  3.5 5  C 3.983072916666667 5  4.3955078125 4.837239583333334  4.7373046875 4.51171875  Z " stroke-width="0" stroke-dasharray="0" stroke="rgba(255, 255, 255, 0)" fill="none" transform="matrix(1 0 0 1 75 99 )" class="stroke" mask="url(#Clip416)" />
    <path d="M 5.974609375 0.9765625  C 6.658203125 1.6276041666666663  7 2.413194444444443  7 3.333333333333334  C 7 3.8064236111111107  6.9248046875 4.194878472222222  6.7744140625 4.498697916666666  L 4.2861328125 9.537760416666666  C 4.213216145833334 9.680989583333334  4.10498046875 9.793836805555555  3.96142578125 9.876302083333334  C 3.81787109375 9.95876736111111  3.6640625 10  3.5 10  C 3.3359375 10  3.18212890625 9.95876736111111  3.03857421875 9.876302083333334  C 2.89501953125 9.793836805555555  2.7890625 9.680989583333334  2.720703125 9.537760416666666  L 0.2255859375 4.498697916666666  C 0.0751953125 4.194878472222222  0 3.8064236111111107  0 3.333333333333334  C 0 2.413194444444443  0.341796875 1.6276041666666663  1.025390625 0.9765625  C 1.7089843750000002 0.3255208333333337  2.533854166666667 0  3.5 0  C 4.466145833333334 0  5.291015625 0.3255208333333337  5.974609375 0.9765625  Z " stroke-width="0" stroke-dasharray="0" stroke="rgba(255, 255, 255, 0)" fill="none" transform="matrix(1 0 0 1 75 99 )" class="stroke" mask="url(#Clip416)" />
  </g>
</svg>