<?xml version="1.0" encoding="utf-8"?>
<svg version="1.1" xmlns:xlink="http://www.w3.org/1999/xlink" width="19px" height="19px" xmlns="http://www.w3.org/2000/svg">
  <defs>
    <pattern id="BGPattern" patternUnits="userSpaceOnUse" alignment="0 0" imageRepeat="None" />
    <mask fill="white" id="Clip483">
      <path d="M 1.451015384615384 7.1495538461538475  C 1.451015384615384 10.378969230769231  4.067753846153844 12.995707692307692  7.2971692307692315 12.995707692307692  C 10.526584615384616 12.995707692307692  13.143323076923075 10.378969230769231  13.143323076923075 7.1495538461538475  C 13.143323076923075 3.920138461538459  10.526584615384616 1.3034  7.2971692307692315 1.3034  C 4.067753846153844 1.3034  1.451015384615384 3.920138461538459  1.451015384615384 7.1495538461538475  Z M 14.443507692307692 7.1495538461538475  C 14.441169230769233 8.870661538461535  13.833169230769228 10.449123076923081  12.820615384615387 11.683830769230767  L 18.65975384615384 17.522969230769224  C 18.912307692307692 17.775523076923072  18.912307692307692 18.187092307692303  18.65975384615384 18.44198461538461  C 18.407199999999996 18.694538461538457  17.99563076923077 18.694538461538457  17.740738461538466 18.44198461538461  L 11.908615384615388 12.607523076923073  C 10.664553846153845 13.659830769230771  9.055692307692308 14.293553846153848  7.2971692307692315 14.293553846153848  C 3.3498461538461544 14.293553846153848  0.15083076923077146 11.094538461538457  0.15083076923077146 7.1495538461538475  C 0.15083076923077146 3.204569230769234  3.3498461538461544 0.0032153846153830067  7.2971692307692315 0.0032153846153830067  C 11.24449230769231 0.0032153846153830067  14.443507692307692 3.20223076923077  14.443507692307692 7.1495538461538475  Z " fill-rule="evenodd" />
    </mask>
  </defs>
  <g transform="matrix(1 0 0 1 -289 -98 )">
    <path d="M 1.451015384615384 7.1495538461538475  C 1.451015384615384 10.378969230769231  4.067753846153844 12.995707692307692  7.2971692307692315 12.995707692307692  C 10.526584615384616 12.995707692307692  13.143323076923075 10.378969230769231  13.143323076923075 7.1495538461538475  C 13.143323076923075 3.920138461538459  10.526584615384616 1.3034  7.2971692307692315 1.3034  C 4.067753846153844 1.3034  1.451015384615384 3.920138461538459  1.451015384615384 7.1495538461538475  Z M 14.443507692307692 7.1495538461538475  C 14.441169230769233 8.870661538461535  13.833169230769228 10.449123076923081  12.820615384615387 11.683830769230767  L 18.65975384615384 17.522969230769224  C 18.912307692307692 17.775523076923072  18.912307692307692 18.187092307692303  18.65975384615384 18.44198461538461  C 18.407199999999996 18.694538461538457  17.99563076923077 18.694538461538457  17.740738461538466 18.44198461538461  L 11.908615384615388 12.607523076923073  C 10.664553846153845 13.659830769230771  9.055692307692308 14.293553846153848  7.2971692307692315 14.293553846153848  C 3.3498461538461544 14.293553846153848  0.15083076923077146 11.094538461538457  0.15083076923077146 7.1495538461538475  C 0.15083076923077146 3.204569230769234  3.3498461538461544 0.0032153846153830067  7.2971692307692315 0.0032153846153830067  C 11.24449230769231 0.0032153846153830067  14.443507692307692 3.20223076923077  14.443507692307692 7.1495538461538475  Z " fill-rule="nonzero" fill="rgba(51, 51, 51, 1)" stroke="none" transform="matrix(1 0 0 1 289 98 )" class="fill" />
    <path d="M 1.451015384615384 7.1495538461538475  C 1.451015384615384 10.378969230769231  4.067753846153844 12.995707692307692  7.2971692307692315 12.995707692307692  C 10.526584615384616 12.995707692307692  13.143323076923075 10.378969230769231  13.143323076923075 7.1495538461538475  C 13.143323076923075 3.920138461538459  10.526584615384616 1.3034  7.2971692307692315 1.3034  C 4.067753846153844 1.3034  1.451015384615384 3.920138461538459  1.451015384615384 7.1495538461538475  Z " stroke-width="0" stroke-dasharray="0" stroke="rgba(255, 255, 255, 0)" fill="none" transform="matrix(1 0 0 1 289 98 )" class="stroke" mask="url(#Clip483)" />
    <path d="M 14.443507692307692 7.1495538461538475  C 14.441169230769233 8.870661538461535  13.833169230769228 10.449123076923081  12.820615384615387 11.683830769230767  L 18.65975384615384 17.522969230769224  C 18.912307692307692 17.775523076923072  18.912307692307692 18.187092307692303  18.65975384615384 18.44198461538461  C 18.407199999999996 18.694538461538457  17.99563076923077 18.694538461538457  17.740738461538466 18.44198461538461  L 11.908615384615388 12.607523076923073  C 10.664553846153845 13.659830769230771  9.055692307692308 14.293553846153848  7.2971692307692315 14.293553846153848  C 3.3498461538461544 14.293553846153848  0.15083076923077146 11.094538461538457  0.15083076923077146 7.1495538461538475  C 0.15083076923077146 3.204569230769234  3.3498461538461544 0.0032153846153830067  7.2971692307692315 0.0032153846153830067  C 11.24449230769231 0.0032153846153830067  14.443507692307692 3.20223076923077  14.443507692307692 7.1495538461538475  Z " stroke-width="0" stroke-dasharray="0" stroke="rgba(255, 255, 255, 0)" fill="none" transform="matrix(1 0 0 1 289 98 )" class="stroke" mask="url(#Clip483)" />
  </g>
</svg>