<?xml version="1.0" encoding="utf-8"?>
<svg version="1.1" xmlns:xlink="http://www.w3.org/1999/xlink" width="17px" height="16px" xmlns="http://www.w3.org/2000/svg">
  <defs>
    <pattern id="BGPattern" patternUnits="userSpaceOnUse" alignment="0 0" imageRepeat="None" />
    <mask fill="white" id="Clip19">
      <path d="M 2.6038035087719305 12.188159999999995  L 1.8631999999999982 14.129663999999995  L 3.9456701754385977 13.406720000000004  L 4.354147368421055 13.660672000000003  C 5.568126315789472 14.416384000000003  6.999705263157894 14.825984000000002  8.5 14.825984000000002  C 12.628673684210522 14.825984000000002  15.923214035087721 11.733503999999995  15.923214035087721 8  C 15.923214035087721 4.266496  12.62867368421053 1.174015999999999  8.5 1.174015999999999  C 4.371326315789471 1.174015999999999  1.0767859649122804 4.266496  1.0767859649122804 8  C 1.0767859649122804 9.318912  1.483354385964911 10.580480000000001  2.2449543859649115 11.672064000000004  L 2.6038035087719305 12.188159999999995  Z M 16.982582456140356 8  C 16.982582456140356 12.399104000000001  13.186035087719297 15.964672000000004  8.5 15.964672000000004  C 6.7706526315789475 15.964672000000004  5.163466666666663 15.479296000000003  3.823508771929826 14.645760000000005  L 1.1035087719298238 15.587840000000002  C 0.9851649122807005 15.6288  0.8553684210526316 15.624704000000005  0.7389333333333346 15.573504000000002  C 0.46788771929824735 15.454720000000005  0.33809122807017455 15.122943999999997  0.44880000000000086 14.832128000000003  L 1.3955508771929837 12.356095999999997  C 0.5232421052631565 11.102720000000003  0.017417543859649005 9.607680000000004  0.017417543859649005 8  C 0.017417543859649005 3.600895999999999  3.8158736842105254 0.03532800000000144  8.5 0.03532800000000144  C 13.184126315789474 0.03532800000000144  16.982582456140356 3.600895999999999  16.982582456140356 8  Z " fill-rule="evenodd" />
    </mask>
  </defs>
  <g transform="matrix(1 0 0 1 -288 -748 )">
    <path d="M 2.6038035087719305 12.188159999999995  L 1.8631999999999982 14.129663999999995  L 3.9456701754385977 13.406720000000004  L 4.354147368421055 13.660672000000003  C 5.568126315789472 14.416384000000003  6.999705263157894 14.825984000000002  8.5 14.825984000000002  C 12.628673684210522 14.825984000000002  15.923214035087721 11.733503999999995  15.923214035087721 8  C 15.923214035087721 4.266496  12.62867368421053 1.174015999999999  8.5 1.174015999999999  C 4.371326315789471 1.174015999999999  1.0767859649122804 4.266496  1.0767859649122804 8  C 1.0767859649122804 9.318912  1.483354385964911 10.580480000000001  2.2449543859649115 11.672064000000004  L 2.6038035087719305 12.188159999999995  Z M 16.982582456140356 8  C 16.982582456140356 12.399104000000001  13.186035087719297 15.964672000000004  8.5 15.964672000000004  C 6.7706526315789475 15.964672000000004  5.163466666666663 15.479296000000003  3.823508771929826 14.645760000000005  L 1.1035087719298238 15.587840000000002  C 0.9851649122807005 15.6288  0.8553684210526316 15.624704000000005  0.7389333333333346 15.573504000000002  C 0.46788771929824735 15.454720000000005  0.33809122807017455 15.122943999999997  0.44880000000000086 14.832128000000003  L 1.3955508771929837 12.356095999999997  C 0.5232421052631565 11.102720000000003  0.017417543859649005 9.607680000000004  0.017417543859649005 8  C 0.017417543859649005 3.600895999999999  3.8158736842105254 0.03532800000000144  8.5 0.03532800000000144  C 13.184126315789474 0.03532800000000144  16.982582456140356 3.600895999999999  16.982582456140356 8  Z " fill-rule="nonzero" fill="rgba(50, 50, 51, 1)" stroke="none" transform="matrix(1 0 0 1 288 748 )" class="fill" />
    <path d="M 2.6038035087719305 12.188159999999995  L 1.8631999999999982 14.129663999999995  L 3.9456701754385977 13.406720000000004  L 4.354147368421055 13.660672000000003  C 5.568126315789472 14.416384000000003  6.999705263157894 14.825984000000002  8.5 14.825984000000002  C 12.628673684210522 14.825984000000002  15.923214035087721 11.733503999999995  15.923214035087721 8  C 15.923214035087721 4.266496  12.62867368421053 1.174015999999999  8.5 1.174015999999999  C 4.371326315789471 1.174015999999999  1.0767859649122804 4.266496  1.0767859649122804 8  C 1.0767859649122804 9.318912  1.483354385964911 10.580480000000001  2.2449543859649115 11.672064000000004  L 2.6038035087719305 12.188159999999995  Z " stroke-width="0" stroke-dasharray="0" stroke="rgba(255, 255, 255, 0)" fill="none" transform="matrix(1 0 0 1 288 748 )" class="stroke" mask="url(#Clip19)" />
    <path d="M 16.982582456140356 8  C 16.982582456140356 12.399104000000001  13.186035087719297 15.964672000000004  8.5 15.964672000000004  C 6.7706526315789475 15.964672000000004  5.163466666666663 15.479296000000003  3.823508771929826 14.645760000000005  L 1.1035087719298238 15.587840000000002  C 0.9851649122807005 15.6288  0.8553684210526316 15.624704000000005  0.7389333333333346 15.573504000000002  C 0.46788771929824735 15.454720000000005  0.33809122807017455 15.122943999999997  0.44880000000000086 14.832128000000003  L 1.3955508771929837 12.356095999999997  C 0.5232421052631565 11.102720000000003  0.017417543859649005 9.607680000000004  0.017417543859649005 8  C 0.017417543859649005 3.600895999999999  3.8158736842105254 0.03532800000000144  8.5 0.03532800000000144  C 13.184126315789474 0.03532800000000144  16.982582456140356 3.600895999999999  16.982582456140356 8  Z " stroke-width="0" stroke-dasharray="0" stroke="rgba(255, 255, 255, 0)" fill="none" transform="matrix(1 0 0 1 288 748 )" class="stroke" mask="url(#Clip19)" />
  </g>
</svg>