<?xml version="1.0" encoding="utf-8"?>
<svg version="1.1" xmlns:xlink="http://www.w3.org/1999/xlink" width="2px" height="2px" xmlns="http://www.w3.org/2000/svg">
  <defs>
    <pattern id="BGPattern" patternUnits="userSpaceOnUse" alignment="0 0" imageRepeat="None" />
    <mask fill="white" id="Clip21">
      <path d="M 0.05887999999999849 1  C 0.05887999999999849 1.4913125134494756  0.4837199856538952 1.8896000000000015  1.007786666666668 1.8896000000000015  C 1.5318533476794407 1.8896000000000015  1.9566933333333338 1.491312513449472  1.9566933333333338 1  C 1.9566933333333338 0.508687486550528  1.5318533476794407 0.1103999999999985  1.007786666666668 0.1103999999999985  C 0.4837199856538952 0.1103999999999985  0.05888000000000204 0.508687486550528  0.05888000000000204 1  Z " fill-rule="evenodd" />
    </mask>
  </defs>
  <g transform="matrix(1 0 0 1 -291 -755 )">
    <path d="M 0.05887999999999849 1  C 0.05887999999999849 1.4913125134494756  0.4837199856538952 1.8896000000000015  1.007786666666668 1.8896000000000015  C 1.5318533476794407 1.8896000000000015  1.9566933333333338 1.491312513449472  1.9566933333333338 1  C 1.9566933333333338 0.508687486550528  1.5318533476794407 0.1103999999999985  1.007786666666668 0.1103999999999985  C 0.4837199856538952 0.1103999999999985  0.05888000000000204 0.508687486550528  0.05888000000000204 1  Z " fill-rule="nonzero" fill="rgba(50, 50, 51, 1)" stroke="none" transform="matrix(1 0 0 1 291 755 )" class="fill" />
    <path d="M 0.05887999999999849 1  C 0.05887999999999849 1.4913125134494756  0.4837199856538952 1.8896000000000015  1.007786666666668 1.8896000000000015  C 1.5318533476794407 1.8896000000000015  1.9566933333333338 1.491312513449472  1.9566933333333338 1  C 1.9566933333333338 0.508687486550528  1.5318533476794407 0.1103999999999985  1.007786666666668 0.1103999999999985  C 0.4837199856538952 0.1103999999999985  0.05888000000000204 0.508687486550528  0.05888000000000204 1  Z " stroke-width="0" stroke-dasharray="0" stroke="rgba(255, 255, 255, 0)" fill="none" transform="matrix(1 0 0 1 291 755 )" class="stroke" mask="url(#Clip21)" />
  </g>
</svg>