<?xml version="1.0" encoding="utf-8"?>
<svg version="1.1" xmlns:xlink="http://www.w3.org/1999/xlink" width="351px" height="178px" xmlns="http://www.w3.org/2000/svg">
  <defs>
    <pattern id="BGPattern" patternUnits="userSpaceOnUse" alignment="0 0" imageRepeat="None" />
    <mask fill="white" id="Clip220">
      <path d="M 0 178  L 0 0  L 351 0  L 351 178  L 0 178  Z " fill-rule="evenodd" />
    </mask>
  </defs>
  <g transform="matrix(1 0 0 1 -21 -1073 )">
    <path d="M 0 178  L 0 0  L 351 0  L 351 178  L 0 178  Z " fill-rule="nonzero" fill="rgba(242, 242, 242, 1)" stroke="none" transform="matrix(1 0 0 1 21 1073 )" class="fill" />
    <path d="M 0 178  L 0 0  L 351 0  L 351 178  L 0 178  Z " stroke-width="2" stroke-dasharray="0" stroke="rgba(121, 121, 121, 1)" fill="none" transform="matrix(1 0 0 1 21 1073 )" class="stroke" mask="url(#Clip220)" />
    <path d="M 350.1206544808432 0.4459359043017188  L 0.8793455191567601 177.55406409569827  M 0.8793455191567601 0.4459359043017188  L 350.1206544808432 177.55406409569827  " stroke-width="1" stroke-dasharray="0" stroke="rgba(121, 121, 121, 1)" fill="none" transform="matrix(1 0 0 1 21 1073 )" class="stroke" />
  </g>
</svg>