<?xml version="1.0" encoding="utf-8"?>
<svg version="1.1" xmlns:xlink="http://www.w3.org/1999/xlink" width="30px" height="40px" xmlns="http://www.w3.org/2000/svg">
  <defs>
    <pattern id="BGPattern" patternUnits="userSpaceOnUse" alignment="0 0" imageRepeat="None" />
    <mask fill="white" id="Clip2">
      <path d="M 20 10.5  C 20 18  14 22.5  10 30  C 6 22.5  0 18  0 10.5  C 0 6.6  2 0  10 0  C 18 0  20 6.6  20 10.5  Z " fill-rule="evenodd" />
    </mask>
  </defs>
  <g transform="matrix(1 0 0 1 -62 -112 )">
    <path d="M 20 10.5  C 20 18  14 22.5  10 30  C 6 22.5  0 18  0 10.5  C 0 6.6  2 0  10 0  C 18 0  20 6.6  20 10.5  Z " fill-rule="nonzero" fill="rgba(0, 194, 255, 1)" stroke="none" transform="matrix(1 0 0 1 66 116 )" class="fill" />
    <path d="M 20 10.5  C 20 18  14 22.5  10 30  C 6 22.5  0 18  0 10.5  C 0 6.6  2 0  10 0  C 18 0  20 6.6  20 10.5  Z " stroke-width="2" stroke-dasharray="0" stroke="rgba(255, 255, 255, 1)" fill="none" transform="matrix(1 0 0 1 66 116 )" class="stroke" mask="url(#Clip2)" />
  </g>
  <style>svg { filter: drop-shadow(1px 1px 2.5px rgba(0, 0, 0, 0.6980392156862745)); }</style>
</svg>