<?xml version="1.0" encoding="utf-8"?>
<svg version="1.1" xmlns:xlink="http://www.w3.org/1999/xlink" width="34px" height="10px" xmlns="http://www.w3.org/2000/svg">
  <defs>
    <pattern id="BGPattern" patternUnits="userSpaceOnUse" alignment="0 0" imageRepeat="None" />
    <mask fill="white" id="Clip206">
      <path d="M 8.59659090909091 0.7291666666666663  C 9.047348484848483 1.2152777777777735  9.272727272727272 1.8055555555555536  9.272727272727272 2.5  L 9.272727272727272 7.5  C 9.272727272727272 8.194444444444443  9.047348484848483 8.78472222222222  8.59659090909091 9.270833333333334  C 8.145833333333334 9.756944444444443  7.5984848484848495 10  6.954545454545455 10  L 2.318181818181818 10  C 1.6742424242424243 10  1.1268939393939397 9.756944444444443  0.6761363636363636 9.270833333333334  C 0.22537878787878785 8.78472222222222  0 8.194444444444443  0 7.5  L 0 2.5  C 0 1.8055555555555536  0.22537878787878785 1.2152777777777735  0.6761363636363636 0.7291666666666663  C 1.1268939393939397 0.24305555555555358  1.6742424242424243 0  2.318181818181818 0  L 6.954545454545455 0  C 7.5984848484848495 0  8.145833333333334 0.24305555555555358  8.59659090909091 0.7291666666666663  Z M 20.960227272727273 0.7291666666666663  C 21.410984848484848 1.2152777777777735  21.636363636363637 1.8055555555555536  21.636363636363637 2.5  L 21.636363636363637 7.5  C 21.636363636363637 8.194444444444443  21.410984848484848 8.78472222222222  20.960227272727273 9.270833333333334  C 20.509469696969703 9.756944444444443  19.962121212121215 10  19.31818181818182 10  L 14.681818181818182 10  C 14.037878787878789 10  13.490530303030305 9.756944444444443  13.039772727272728 9.270833333333334  C 12.589015151515152 8.78472222222222  12.363636363636363 8.194444444444443  12.363636363636363 7.5  L 12.363636363636363 2.5  C 12.363636363636363 1.8055555555555536  12.589015151515152 1.2152777777777735  13.039772727272728 0.7291666666666663  C 13.490530303030305 0.24305555555555358  14.037878787878789 0  14.681818181818182 0  L 19.31818181818182 0  C 19.962121212121215 0  20.509469696969703 0.24305555555555358  20.960227272727273 0.7291666666666663  Z M 33.32386363636363 0.7291666666666663  C 33.77462121212121 1.2152777777777735  34 1.8055555555555536  34 2.5  L 34 7.5  C 34 8.194444444444443  33.77462121212121 8.78472222222222  33.32386363636363 9.270833333333334  C 32.87310606060606 9.756944444444443  32.32575757575758 10  31.68181818181818 10  L 27.045454545454543 10  C 26.401515151515156 10  25.854166666666668 9.756944444444443  25.403409090909093 9.270833333333334  C 24.95265151515152 8.78472222222222  24.727272727272727 8.194444444444443  24.727272727272727 7.5  L 24.727272727272727 2.5  C 24.727272727272727 1.8055555555555536  24.95265151515152 1.2152777777777735  25.403409090909093 0.7291666666666663  C 25.854166666666668 0.24305555555555358  26.401515151515156 0  27.045454545454543 0  L 31.68181818181818 0  C 32.32575757575758 0  32.87310606060606 0.24305555555555358  33.32386363636363 0.7291666666666663  Z " fill-rule="evenodd" />
    </mask>
  </defs>
  <g transform="matrix(1 0 0 1 -389 -132 )">
    <path d="M 8.59659090909091 0.7291666666666663  C 9.047348484848483 1.2152777777777735  9.272727272727272 1.8055555555555536  9.272727272727272 2.5  L 9.272727272727272 7.5  C 9.272727272727272 8.194444444444443  9.047348484848483 8.78472222222222  8.59659090909091 9.270833333333334  C 8.145833333333334 9.756944444444443  7.5984848484848495 10  6.954545454545455 10  L 2.318181818181818 10  C 1.6742424242424243 10  1.1268939393939397 9.756944444444443  0.6761363636363636 9.270833333333334  C 0.22537878787878785 8.78472222222222  0 8.194444444444443  0 7.5  L 0 2.5  C 0 1.8055555555555536  0.22537878787878785 1.2152777777777735  0.6761363636363636 0.7291666666666663  C 1.1268939393939397 0.24305555555555358  1.6742424242424243 0  2.318181818181818 0  L 6.954545454545455 0  C 7.5984848484848495 0  8.145833333333334 0.24305555555555358  8.59659090909091 0.7291666666666663  Z M 20.960227272727273 0.7291666666666663  C 21.410984848484848 1.2152777777777735  21.636363636363637 1.8055555555555536  21.636363636363637 2.5  L 21.636363636363637 7.5  C 21.636363636363637 8.194444444444443  21.410984848484848 8.78472222222222  20.960227272727273 9.270833333333334  C 20.509469696969703 9.756944444444443  19.962121212121215 10  19.31818181818182 10  L 14.681818181818182 10  C 14.037878787878789 10  13.490530303030305 9.756944444444443  13.039772727272728 9.270833333333334  C 12.589015151515152 8.78472222222222  12.363636363636363 8.194444444444443  12.363636363636363 7.5  L 12.363636363636363 2.5  C 12.363636363636363 1.8055555555555536  12.589015151515152 1.2152777777777735  13.039772727272728 0.7291666666666663  C 13.490530303030305 0.24305555555555358  14.037878787878789 0  14.681818181818182 0  L 19.31818181818182 0  C 19.962121212121215 0  20.509469696969703 0.24305555555555358  20.960227272727273 0.7291666666666663  Z M 33.32386363636363 0.7291666666666663  C 33.77462121212121 1.2152777777777735  34 1.8055555555555536  34 2.5  L 34 7.5  C 34 8.194444444444443  33.77462121212121 8.78472222222222  33.32386363636363 9.270833333333334  C 32.87310606060606 9.756944444444443  32.32575757575758 10  31.68181818181818 10  L 27.045454545454543 10  C 26.401515151515156 10  25.854166666666668 9.756944444444443  25.403409090909093 9.270833333333334  C 24.95265151515152 8.78472222222222  24.727272727272727 8.194444444444443  24.727272727272727 7.5  L 24.727272727272727 2.5  C 24.727272727272727 1.8055555555555536  24.95265151515152 1.2152777777777735  25.403409090909093 0.7291666666666663  C 25.854166666666668 0.24305555555555358  26.401515151515156 0  27.045454545454543 0  L 31.68181818181818 0  C 32.32575757575758 0  32.87310606060606 0.24305555555555358  33.32386363636363 0.7291666666666663  Z " fill-rule="nonzero" fill="rgba(127, 127, 127, 1)" stroke="none" transform="matrix(1 0 0 1 389 132 )" class="fill" />
    <path d="M 8.59659090909091 0.7291666666666663  C 9.047348484848483 1.2152777777777735  9.272727272727272 1.8055555555555536  9.272727272727272 2.5  L 9.272727272727272 7.5  C 9.272727272727272 8.194444444444443  9.047348484848483 8.78472222222222  8.59659090909091 9.270833333333334  C 8.145833333333334 9.756944444444443  7.5984848484848495 10  6.954545454545455 10  L 2.318181818181818 10  C 1.6742424242424243 10  1.1268939393939397 9.756944444444443  0.6761363636363636 9.270833333333334  C 0.22537878787878785 8.78472222222222  0 8.194444444444443  0 7.5  L 0 2.5  C 0 1.8055555555555536  0.22537878787878785 1.2152777777777735  0.6761363636363636 0.7291666666666663  C 1.1268939393939397 0.24305555555555358  1.6742424242424243 0  2.318181818181818 0  L 6.954545454545455 0  C 7.5984848484848495 0  8.145833333333334 0.24305555555555358  8.59659090909091 0.7291666666666663  Z " stroke-width="0" stroke-dasharray="0" stroke="rgba(255, 255, 255, 0)" fill="none" transform="matrix(1 0 0 1 389 132 )" class="stroke" mask="url(#Clip206)" />
    <path d="M 20.960227272727273 0.7291666666666663  C 21.410984848484848 1.2152777777777735  21.636363636363637 1.8055555555555536  21.636363636363637 2.5  L 21.636363636363637 7.5  C 21.636363636363637 8.194444444444443  21.410984848484848 8.78472222222222  20.960227272727273 9.270833333333334  C 20.509469696969703 9.756944444444443  19.962121212121215 10  19.31818181818182 10  L 14.681818181818182 10  C 14.037878787878789 10  13.490530303030305 9.756944444444443  13.039772727272728 9.270833333333334  C 12.589015151515152 8.78472222222222  12.363636363636363 8.194444444444443  12.363636363636363 7.5  L 12.363636363636363 2.5  C 12.363636363636363 1.8055555555555536  12.589015151515152 1.2152777777777735  13.039772727272728 0.7291666666666663  C 13.490530303030305 0.24305555555555358  14.037878787878789 0  14.681818181818182 0  L 19.31818181818182 0  C 19.962121212121215 0  20.509469696969703 0.24305555555555358  20.960227272727273 0.7291666666666663  Z " stroke-width="0" stroke-dasharray="0" stroke="rgba(255, 255, 255, 0)" fill="none" transform="matrix(1 0 0 1 389 132 )" class="stroke" mask="url(#Clip206)" />
    <path d="M 33.32386363636363 0.7291666666666663  C 33.77462121212121 1.2152777777777735  34 1.8055555555555536  34 2.5  L 34 7.5  C 34 8.194444444444443  33.77462121212121 8.78472222222222  33.32386363636363 9.270833333333334  C 32.87310606060606 9.756944444444443  32.32575757575758 10  31.68181818181818 10  L 27.045454545454543 10  C 26.401515151515156 10  25.854166666666668 9.756944444444443  25.403409090909093 9.270833333333334  C 24.95265151515152 8.78472222222222  24.727272727272727 8.194444444444443  24.727272727272727 7.5  L 24.727272727272727 2.5  C 24.727272727272727 1.8055555555555536  24.95265151515152 1.2152777777777735  25.403409090909093 0.7291666666666663  C 25.854166666666668 0.24305555555555358  26.401515151515156 0  27.045454545454543 0  L 31.68181818181818 0  C 32.32575757575758 0  32.87310606060606 0.24305555555555358  33.32386363636363 0.7291666666666663  Z " stroke-width="0" stroke-dasharray="0" stroke="rgba(255, 255, 255, 0)" fill="none" transform="matrix(1 0 0 1 389 132 )" class="stroke" mask="url(#Clip206)" />
  </g>
</svg>