<?xml version="1.0" encoding="utf-8"?>
<svg version="1.1" xmlns:xlink="http://www.w3.org/1999/xlink" width="22px" height="18px" xmlns="http://www.w3.org/2000/svg">
  <defs>
    <pattern id="BGPattern" patternUnits="userSpaceOnUse" alignment="0 0" imageRepeat="None" />
    <mask fill="white" id="Clip207">
      <path d="M 13.592447916666666 6.878906250000001  C 14.30859375 7.464843749999999  14.666666666666666 8.171874999999998  14.666666666666666 9  C 14.666666666666666 9.828125  14.30859375 10.535156249999998  13.592447916666666 11.121093750000002  C 12.876302083333334 11.70703125  12.01215277777778 12.000000000000002  11 12.000000000000002  C 9.987847222222223 12.000000000000002  9.123697916666668 11.70703125  8.407552083333332 11.121093750000002  C 7.69140625 10.535156249999998  7.333333333333333 9.828125  7.333333333333333 9  C 7.333333333333333 8.171874999999998  7.69140625 7.464843749999999  8.407552083333332 6.878906250000001  C 9.123697916666668 6.29296875  9.987847222222223 6.000000000000001  11 6.000000000000001  C 12.01215277777778 6.000000000000001  12.876302083333334 6.29296875  13.592447916666666 6.878906250000001  Z M 14.91015625 3.48046875  C 13.71657986111111 2.91015625  12.413194444444446 2.625000000000001  11 2.625000000000001  C 9.586805555555555 2.625000000000001  8.28342013888889 2.91015625  7.08984375 3.48046875  C 5.896267361111112 4.050781249999998  4.950954861111112 4.824218749999998  4.25390625 5.80078125  C 3.5568576388888893 6.77734375  3.2083333333333335 7.843749999999999  3.2083333333333335 9  C 3.2083333333333335 10.15625  3.5568576388888893 11.222656249999998  4.25390625 12.19921875  C 4.950954861111112 13.175781249999998  5.896267361111112 13.94921875  7.08984375 14.51953125  C 8.28342013888889 15.08984375  9.586805555555555 15.375  11 15.375  C 12.413194444444446 15.375  13.71657986111111 15.08984375  14.91015625 14.51953125  C 16.103732638888893 13.94921875  17.049045138888893 13.175781249999998  17.74609375 12.19921875  C 18.44314236111111 11.222656249999998  18.791666666666664 10.15625  18.791666666666664 9  C 18.791666666666664 7.843749999999999  18.44314236111111 6.77734375  17.74609375 5.80078125  C 17.049045138888893 4.824218749999998  16.103732638888893 4.050781249999998  14.91015625 3.48046875  Z M 20.524739583333336 4.482421875  C 21.508246527777775 5.861328124999998  22 7.367187499999997  22 9  C 22 10.6328125  21.508246527777775 12.138671874999998  20.524739583333336 13.517578125  C 19.541232638888893 14.896484375  18.20681423611111 15.98828125  16.521484375 16.79296875  C 14.836154513888891 17.59765625  12.995659722222223 18  11 18  C 9.004340277777779 18  7.163845486111112 17.59765625  5.478515625 16.79296875  C 3.7931857638888893 15.98828125  2.4587673611111116 14.896484375  1.4752604166666667 13.517578125  C 0.49175347222222215 12.138671874999998  0 10.6328125  0 9  C 0 7.367187499999997  0.49175347222222215 5.861328124999998  1.4752604166666667 4.482421875  C 2.4587673611111116 3.103515625  3.7931857638888893 2.0117187499999982  5.478515625 1.2070312499999993  C 7.163845486111112 0.40234374999999845  9.004340277777779 0  11 0  C 12.995659722222223 0  14.836154513888891 0.40234374999999845  16.521484375 1.2070312499999993  C 18.20681423611111 2.0117187499999982  19.541232638888893 3.103515625  20.524739583333336 4.482421875  Z " fill-rule="evenodd" />
    </mask>
  </defs>
  <g transform="matrix(1 0 0 1 -436 -128 )">
    <path d="M 13.592447916666666 6.878906250000001  C 14.30859375 7.464843749999999  14.666666666666666 8.171874999999998  14.666666666666666 9  C 14.666666666666666 9.828125  14.30859375 10.535156249999998  13.592447916666666 11.121093750000002  C 12.876302083333334 11.70703125  12.01215277777778 12.000000000000002  11 12.000000000000002  C 9.987847222222223 12.000000000000002  9.123697916666668 11.70703125  8.407552083333332 11.121093750000002  C 7.69140625 10.535156249999998  7.333333333333333 9.828125  7.333333333333333 9  C 7.333333333333333 8.171874999999998  7.69140625 7.464843749999999  8.407552083333332 6.878906250000001  C 9.123697916666668 6.29296875  9.987847222222223 6.000000000000001  11 6.000000000000001  C 12.01215277777778 6.000000000000001  12.876302083333334 6.29296875  13.592447916666666 6.878906250000001  Z M 14.91015625 3.48046875  C 13.71657986111111 2.91015625  12.413194444444446 2.625000000000001  11 2.625000000000001  C 9.586805555555555 2.625000000000001  8.28342013888889 2.91015625  7.08984375 3.48046875  C 5.896267361111112 4.050781249999998  4.950954861111112 4.824218749999998  4.25390625 5.80078125  C 3.5568576388888893 6.77734375  3.2083333333333335 7.843749999999999  3.2083333333333335 9  C 3.2083333333333335 10.15625  3.5568576388888893 11.222656249999998  4.25390625 12.19921875  C 4.950954861111112 13.175781249999998  5.896267361111112 13.94921875  7.08984375 14.51953125  C 8.28342013888889 15.08984375  9.586805555555555 15.375  11 15.375  C 12.413194444444446 15.375  13.71657986111111 15.08984375  14.91015625 14.51953125  C 16.103732638888893 13.94921875  17.049045138888893 13.175781249999998  17.74609375 12.19921875  C 18.44314236111111 11.222656249999998  18.791666666666664 10.15625  18.791666666666664 9  C 18.791666666666664 7.843749999999999  18.44314236111111 6.77734375  17.74609375 5.80078125  C 17.049045138888893 4.824218749999998  16.103732638888893 4.050781249999998  14.91015625 3.48046875  Z M 20.524739583333336 4.482421875  C 21.508246527777775 5.861328124999998  22 7.367187499999997  22 9  C 22 10.6328125  21.508246527777775 12.138671874999998  20.524739583333336 13.517578125  C 19.541232638888893 14.896484375  18.20681423611111 15.98828125  16.521484375 16.79296875  C 14.836154513888891 17.59765625  12.995659722222223 18  11 18  C 9.004340277777779 18  7.163845486111112 17.59765625  5.478515625 16.79296875  C 3.7931857638888893 15.98828125  2.4587673611111116 14.896484375  1.4752604166666667 13.517578125  C 0.49175347222222215 12.138671874999998  0 10.6328125  0 9  C 0 7.367187499999997  0.49175347222222215 5.861328124999998  1.4752604166666667 4.482421875  C 2.4587673611111116 3.103515625  3.7931857638888893 2.0117187499999982  5.478515625 1.2070312499999993  C 7.163845486111112 0.40234374999999845  9.004340277777779 0  11 0  C 12.995659722222223 0  14.836154513888891 0.40234374999999845  16.521484375 1.2070312499999993  C 18.20681423611111 2.0117187499999982  19.541232638888893 3.103515625  20.524739583333336 4.482421875  Z " fill-rule="nonzero" fill="rgba(127, 127, 127, 1)" stroke="none" transform="matrix(1 0 0 1 436 128 )" class="fill" />
    <path d="M 13.592447916666666 6.878906250000001  C 14.30859375 7.464843749999999  14.666666666666666 8.171874999999998  14.666666666666666 9  C 14.666666666666666 9.828125  14.30859375 10.535156249999998  13.592447916666666 11.121093750000002  C 12.876302083333334 11.70703125  12.01215277777778 12.000000000000002  11 12.000000000000002  C 9.987847222222223 12.000000000000002  9.123697916666668 11.70703125  8.407552083333332 11.121093750000002  C 7.69140625 10.535156249999998  7.333333333333333 9.828125  7.333333333333333 9  C 7.333333333333333 8.171874999999998  7.69140625 7.464843749999999  8.407552083333332 6.878906250000001  C 9.123697916666668 6.29296875  9.987847222222223 6.000000000000001  11 6.000000000000001  C 12.01215277777778 6.000000000000001  12.876302083333334 6.29296875  13.592447916666666 6.878906250000001  Z " stroke-width="0" stroke-dasharray="0" stroke="rgba(255, 255, 255, 0)" fill="none" transform="matrix(1 0 0 1 436 128 )" class="stroke" mask="url(#Clip207)" />
    <path d="M 14.91015625 3.48046875  C 13.71657986111111 2.91015625  12.413194444444446 2.625000000000001  11 2.625000000000001  C 9.586805555555555 2.625000000000001  8.28342013888889 2.91015625  7.08984375 3.48046875  C 5.896267361111112 4.050781249999998  4.950954861111112 4.824218749999998  4.25390625 5.80078125  C 3.5568576388888893 6.77734375  3.2083333333333335 7.843749999999999  3.2083333333333335 9  C 3.2083333333333335 10.15625  3.5568576388888893 11.222656249999998  4.25390625 12.19921875  C 4.950954861111112 13.175781249999998  5.896267361111112 13.94921875  7.08984375 14.51953125  C 8.28342013888889 15.08984375  9.586805555555555 15.375  11 15.375  C 12.413194444444446 15.375  13.71657986111111 15.08984375  14.91015625 14.51953125  C 16.103732638888893 13.94921875  17.049045138888893 13.175781249999998  17.74609375 12.19921875  C 18.44314236111111 11.222656249999998  18.791666666666664 10.15625  18.791666666666664 9  C 18.791666666666664 7.843749999999999  18.44314236111111 6.77734375  17.74609375 5.80078125  C 17.049045138888893 4.824218749999998  16.103732638888893 4.050781249999998  14.91015625 3.48046875  Z " stroke-width="0" stroke-dasharray="0" stroke="rgba(255, 255, 255, 0)" fill="none" transform="matrix(1 0 0 1 436 128 )" class="stroke" mask="url(#Clip207)" />
    <path d="M 20.524739583333336 4.482421875  C 21.508246527777775 5.861328124999998  22 7.367187499999997  22 9  C 22 10.6328125  21.508246527777775 12.138671874999998  20.524739583333336 13.517578125  C 19.541232638888893 14.896484375  18.20681423611111 15.98828125  16.521484375 16.79296875  C 14.836154513888891 17.59765625  12.995659722222223 18  11 18  C 9.004340277777779 18  7.163845486111112 17.59765625  5.478515625 16.79296875  C 3.7931857638888893 15.98828125  2.4587673611111116 14.896484375  1.4752604166666667 13.517578125  C 0.49175347222222215 12.138671874999998  0 10.6328125  0 9  C 0 7.367187499999997  0.49175347222222215 5.861328124999998  1.4752604166666667 4.482421875  C 2.4587673611111116 3.103515625  3.7931857638888893 2.0117187499999982  5.478515625 1.2070312499999993  C 7.163845486111112 0.40234374999999845  9.004340277777779 0  11 0  C 12.995659722222223 0  14.836154513888891 0.40234374999999845  16.521484375 1.2070312499999993  C 18.20681423611111 2.0117187499999982  19.541232638888893 3.103515625  20.524739583333336 4.482421875  Z " stroke-width="0" stroke-dasharray="0" stroke="rgba(255, 255, 255, 0)" fill="none" transform="matrix(1 0 0 1 436 128 )" class="stroke" mask="url(#Clip207)" />
  </g>
</svg>