<?xml version="1.0" encoding="utf-8"?>
<svg version="1.1" xmlns:xlink="http://www.w3.org/1999/xlink" width="74px" height="70px" xmlns="http://www.w3.org/2000/svg">
  <defs>
    <pattern id="BGPattern" patternUnits="userSpaceOnUse" alignment="0 0" imageRepeat="None" />
    <mask fill="white" id="Clip5">
      <path d="M 0 35  C 0 15.399999999999999  16.279999999999998 0  37 0  C 57.72 0  74 15.399999999999999  74 35  C 74 54.6  57.72 70  37 70  C 16.279999999999998 70  0 54.6  0 35  Z " fill-rule="evenodd" />
    </mask>
  </defs>
  <g transform="matrix(1 0 0 1 -386 -736 )">
    <path d="M 0 35  C 0 15.399999999999999  16.279999999999998 0  37 0  C 57.72 0  74 15.399999999999999  74 35  C 74 54.6  57.72 70  37 70  C 16.279999999999998 70  0 54.6  0 35  Z " fill-rule="nonzero" fill="rgba(242, 242, 242, 0.4666666666666667)" stroke="none" transform="matrix(1 0 0 1 386 736 )" class="fill" />
    <path d="M 0 35  C 0 15.399999999999999  16.279999999999998 0  37 0  C 57.72 0  74 15.399999999999999  74 35  C 74 54.6  57.72 70  37 70  C 16.279999999999998 70  0 54.6  0 35  Z " stroke-width="2" stroke-dasharray="0" stroke="rgba(121, 121, 121, 1)" fill="none" transform="matrix(1 0 0 1 386 736 )" class="stroke" mask="url(#Clip5)" />
  </g>
</svg>