<?xml version="1.0" encoding="utf-8"?>
<svg version="1.1" xmlns:xlink="http://www.w3.org/1999/xlink" width="27px" height="30px" xmlns="http://www.w3.org/2000/svg">
  <defs>
    <pattern id="BGPattern" patternUnits="userSpaceOnUse" alignment="0 0" imageRepeat="None" />
    <mask fill="white" id="Clip209">
      <path d="M 7.542736842105263 7.5120000000000005  C 7.542736842105263 10.614315789473686  10.058947368421052 13.12715789473684  13.157894736842103 13.12715789473684  C 16.25684210526316 13.12715789473684  18.773052631578935 10.614315789473686  18.773052631578935 7.5120000000000005  C 18.773052631578935 4.41305263157895  16.260210526315788 1.896842105263161  13.157894736842103 1.896842105263161  C 10.055578947368417 1.896842105263161  7.542736842105263 4.409684210526322  7.542736842105263 7.5120000000000005  Z M 20.642526315789468 7.515368421052627  C 20.642526315789468 11.651789473684211  17.290947368421058 15  13.157894736842103 15  C 9.024842105263154 15  5.673263157894738 11.648421052631576  5.673263157894738 7.515368421052627  C 5.673263157894738 3.3823157894736866  9.024842105263154 0.03073684210526295  13.157894736842103 0.03073684210526295  C 17.290947368421058 0.03073684210526295  20.642526315789468 3.378947368421052  20.642526315789468 7.515368421052627  Z M 8.640842105263154 18.74231578947368  L 7.967157894736843 18.74231578947368  L 1.9309473684210516 21.62231578947369  L 1.9309473684210516 28  L 24.38821052631579 28  L 24.38821052631579 21.625684210526316  L 18.35199999999999 18.74568421052632  L 17.67831578947367 18.74568421052632  L 13.157894736842103 23.259368421052628  L 8.640842105263154 18.74231578947368  Z M 9.415578947368417 16.87284210526316  L 13.157894736842103 20.61515789473684  L 16.90021052631579 16.87284210526316  L 18.348631578947362 16.87284210526316  C 18.628210526315783 16.87284210526316  18.904421052631577 16.933473684210526  19.153684210526308 17.054736842105257  L 25.189894736842106 19.934736842105252  C 25.840000000000003 20.244631578947363  26.25431578947368 20.901473684210515  26.25431578947368 21.62231578947369  L 26.25431578947368 28.096421052631584  C 26.25431578947368 29.130526315789467  25.415578947368417 29.969263157894744  24.38147368421052 30  L 1.9309473684210516 30  C 0.8968421052631541 29.969263157894744  0.05810526315789133 29.130526315789467  0.05810526315789133 28.096421052631584  L 0.05810526315789133 21.625684210526316  C 0.05810526315789133 20.904842105263157  0.47242105263158146 20.24799999999999  1.1225263157894716 19.938105263157894  L 7.162105263157897 17.054736842105257  C 7.414736842105262 16.933473684210526  7.687578947368422 16.87284210526316  7.967157894736843 16.87284210526316  L 9.415578947368417 16.87284210526316  Z " fill-rule="evenodd" />
    </mask>
  </defs>
  <g transform="matrix(1 0 0 1 -402 -2404 )">
    <path d="M 7.542736842105263 7.5120000000000005  C 7.542736842105263 10.614315789473686  10.058947368421052 13.12715789473684  13.157894736842103 13.12715789473684  C 16.25684210526316 13.12715789473684  18.773052631578935 10.614315789473686  18.773052631578935 7.5120000000000005  C 18.773052631578935 4.41305263157895  16.260210526315788 1.896842105263161  13.157894736842103 1.896842105263161  C 10.055578947368417 1.896842105263161  7.542736842105263 4.409684210526322  7.542736842105263 7.5120000000000005  Z M 20.642526315789468 7.515368421052627  C 20.642526315789468 11.651789473684211  17.290947368421058 15  13.157894736842103 15  C 9.024842105263154 15  5.673263157894738 11.648421052631576  5.673263157894738 7.515368421052627  C 5.673263157894738 3.3823157894736866  9.024842105263154 0.03073684210526295  13.157894736842103 0.03073684210526295  C 17.290947368421058 0.03073684210526295  20.642526315789468 3.378947368421052  20.642526315789468 7.515368421052627  Z M 8.640842105263154 18.74231578947368  L 7.967157894736843 18.74231578947368  L 1.9309473684210516 21.62231578947369  L 1.9309473684210516 28  L 24.38821052631579 28  L 24.38821052631579 21.625684210526316  L 18.35199999999999 18.74568421052632  L 17.67831578947367 18.74568421052632  L 13.157894736842103 23.259368421052628  L 8.640842105263154 18.74231578947368  Z M 9.415578947368417 16.87284210526316  L 13.157894736842103 20.61515789473684  L 16.90021052631579 16.87284210526316  L 18.348631578947362 16.87284210526316  C 18.628210526315783 16.87284210526316  18.904421052631577 16.933473684210526  19.153684210526308 17.054736842105257  L 25.189894736842106 19.934736842105252  C 25.840000000000003 20.244631578947363  26.25431578947368 20.901473684210515  26.25431578947368 21.62231578947369  L 26.25431578947368 28.096421052631584  C 26.25431578947368 29.130526315789467  25.415578947368417 29.969263157894744  24.38147368421052 30  L 1.9309473684210516 30  C 0.8968421052631541 29.969263157894744  0.05810526315789133 29.130526315789467  0.05810526315789133 28.096421052631584  L 0.05810526315789133 21.625684210526316  C 0.05810526315789133 20.904842105263157  0.47242105263158146 20.24799999999999  1.1225263157894716 19.938105263157894  L 7.162105263157897 17.054736842105257  C 7.414736842105262 16.933473684210526  7.687578947368422 16.87284210526316  7.967157894736843 16.87284210526316  L 9.415578947368417 16.87284210526316  Z " fill-rule="nonzero" fill="rgba(50, 50, 51, 1)" stroke="none" transform="matrix(1 0 0 1 402 2404 )" class="fill" />
    <path d="M 7.542736842105263 7.5120000000000005  C 7.542736842105263 10.614315789473686  10.058947368421052 13.12715789473684  13.157894736842103 13.12715789473684  C 16.25684210526316 13.12715789473684  18.773052631578935 10.614315789473686  18.773052631578935 7.5120000000000005  C 18.773052631578935 4.41305263157895  16.260210526315788 1.896842105263161  13.157894736842103 1.896842105263161  C 10.055578947368417 1.896842105263161  7.542736842105263 4.409684210526322  7.542736842105263 7.5120000000000005  Z " stroke-width="0" stroke-dasharray="0" stroke="rgba(255, 255, 255, 0)" fill="none" transform="matrix(1 0 0 1 402 2404 )" class="stroke" mask="url(#Clip209)" />
    <path d="M 20.642526315789468 7.515368421052627  C 20.642526315789468 11.651789473684211  17.290947368421058 15  13.157894736842103 15  C 9.024842105263154 15  5.673263157894738 11.648421052631576  5.673263157894738 7.515368421052627  C 5.673263157894738 3.3823157894736866  9.024842105263154 0.03073684210526295  13.157894736842103 0.03073684210526295  C 17.290947368421058 0.03073684210526295  20.642526315789468 3.378947368421052  20.642526315789468 7.515368421052627  Z " stroke-width="0" stroke-dasharray="0" stroke="rgba(255, 255, 255, 0)" fill="none" transform="matrix(1 0 0 1 402 2404 )" class="stroke" mask="url(#Clip209)" />
    <path d="M 8.640842105263154 18.74231578947368  L 7.967157894736843 18.74231578947368  L 1.9309473684210516 21.62231578947369  L 1.9309473684210516 28  L 24.38821052631579 28  L 24.38821052631579 21.625684210526316  L 18.35199999999999 18.74568421052632  L 17.67831578947367 18.74568421052632  L 13.157894736842103 23.259368421052628  L 8.640842105263154 18.74231578947368  Z " stroke-width="0" stroke-dasharray="0" stroke="rgba(255, 255, 255, 0)" fill="none" transform="matrix(1 0 0 1 402 2404 )" class="stroke" mask="url(#Clip209)" />
    <path d="M 9.415578947368417 16.87284210526316  L 13.157894736842103 20.61515789473684  L 16.90021052631579 16.87284210526316  L 18.348631578947362 16.87284210526316  C 18.628210526315783 16.87284210526316  18.904421052631577 16.933473684210526  19.153684210526308 17.054736842105257  L 25.189894736842106 19.934736842105252  C 25.840000000000003 20.244631578947363  26.25431578947368 20.901473684210515  26.25431578947368 21.62231578947369  L 26.25431578947368 28.096421052631584  C 26.25431578947368 29.130526315789467  25.415578947368417 29.969263157894744  24.38147368421052 30  L 1.9309473684210516 30  C 0.8968421052631541 29.969263157894744  0.05810526315789133 29.130526315789467  0.05810526315789133 28.096421052631584  L 0.05810526315789133 21.625684210526316  C 0.05810526315789133 20.904842105263157  0.47242105263158146 20.24799999999999  1.1225263157894716 19.938105263157894  L 7.162105263157897 17.054736842105257  C 7.414736842105262 16.933473684210526  7.687578947368422 16.87284210526316  7.967157894736843 16.87284210526316  L 9.415578947368417 16.87284210526316  Z " stroke-width="0" stroke-dasharray="0" stroke="rgba(255, 255, 255, 0)" fill="none" transform="matrix(1 0 0 1 402 2404 )" class="stroke" mask="url(#Clip209)" />
  </g>
</svg>