<?xml version="1.0" encoding="utf-8"?>
<svg version="1.1" xmlns:xlink="http://www.w3.org/1999/xlink" width="30px" height="25px" xmlns="http://www.w3.org/2000/svg">
  <defs>
    <pattern id="BGPattern" patternUnits="userSpaceOnUse" alignment="0 0" imageRepeat="None" />
    <mask fill="white" id="Clip210">
      <path d="M 12.258105263157894 19  L 15 23.08723404255319  L 17.741894736842113 19  L 28 19  L 28 2  L 2 2  L 2 19  L 12.258105263157894 19  Z M 18.74231578947368 20.8268085106383  L 16.556210526315795 24.135744680851076  C 16.418105263157898 24.343404255319143  16.242947368421056 24.520425531914896  16.037473684210525 24.659999999999997  C 15.178526315789485 25.238723404255325  14.016421052631586 25.00382978723404  13.443789473684213 24.135744680851076  L 11.257684210526321 20.82340425531916  L 1.900210526315789 20.82340425531916  C 0.8661052631578912 20.82340425531916  0.027368421052628378 19.975744680851065  0 18.93063829787235  L 0 1.9127659574468083  C 0.027368421052628378 0.8676595744680852  0.8661052631578912 0.020000000000003126  1.900210526315789 0  L 28.09978947368421 0  C 29.13389473684211 0.020000000000003126  29.97263157894737 0.8676595744680852  30 1.9127659574468083  L 30 18.93404255319149  C 29.97263157894737 19.97914893617022  29.13389473684211 20.8268085106383  28.09978947368421 20.8268085106383  L 18.74231578947368 20.8268085106383  Z " fill-rule="evenodd" />
    </mask>
  </defs>
  <g transform="matrix(1 0 0 1 -133 -2409 )">
    <path d="M 12.258105263157894 19  L 15 23.08723404255319  L 17.741894736842113 19  L 28 19  L 28 2  L 2 2  L 2 19  L 12.258105263157894 19  Z M 18.74231578947368 20.8268085106383  L 16.556210526315795 24.135744680851076  C 16.418105263157898 24.343404255319143  16.242947368421056 24.520425531914896  16.037473684210525 24.659999999999997  C 15.178526315789485 25.238723404255325  14.016421052631586 25.00382978723404  13.443789473684213 24.135744680851076  L 11.257684210526321 20.82340425531916  L 1.900210526315789 20.82340425531916  C 0.8661052631578912 20.82340425531916  0.027368421052628378 19.975744680851065  0 18.93063829787235  L 0 1.9127659574468083  C 0.027368421052628378 0.8676595744680852  0.8661052631578912 0.020000000000003126  1.900210526315789 0  L 28.09978947368421 0  C 29.13389473684211 0.020000000000003126  29.97263157894737 0.8676595744680852  30 1.9127659574468083  L 30 18.93404255319149  C 29.97263157894737 19.97914893617022  29.13389473684211 20.8268085106383  28.09978947368421 20.8268085106383  L 18.74231578947368 20.8268085106383  Z " fill-rule="nonzero" fill="rgba(50, 50, 51, 1)" stroke="none" transform="matrix(1 0 0 1 133 2409 )" class="fill" />
    <path d="M 12.258105263157894 19  L 15 23.08723404255319  L 17.741894736842113 19  L 28 19  L 28 2  L 2 2  L 2 19  L 12.258105263157894 19  Z " stroke-width="0" stroke-dasharray="0" stroke="rgba(255, 255, 255, 0)" fill="none" transform="matrix(1 0 0 1 133 2409 )" class="stroke" mask="url(#Clip210)" />
    <path d="M 18.74231578947368 20.8268085106383  L 16.556210526315795 24.135744680851076  C 16.418105263157898 24.343404255319143  16.242947368421056 24.520425531914896  16.037473684210525 24.659999999999997  C 15.178526315789485 25.238723404255325  14.016421052631586 25.00382978723404  13.443789473684213 24.135744680851076  L 11.257684210526321 20.82340425531916  L 1.900210526315789 20.82340425531916  C 0.8661052631578912 20.82340425531916  0.027368421052628378 19.975744680851065  0 18.93063829787235  L 0 1.9127659574468083  C 0.027368421052628378 0.8676595744680852  0.8661052631578912 0.020000000000003126  1.900210526315789 0  L 28.09978947368421 0  C 29.13389473684211 0.020000000000003126  29.97263157894737 0.8676595744680852  30 1.9127659574468083  L 30 18.93404255319149  C 29.97263157894737 19.97914893617022  29.13389473684211 20.8268085106383  28.09978947368421 20.8268085106383  L 18.74231578947368 20.8268085106383  Z " stroke-width="0" stroke-dasharray="0" stroke="rgba(255, 255, 255, 0)" fill="none" transform="matrix(1 0 0 1 133 2409 )" class="stroke" mask="url(#Clip210)" />
  </g>
</svg>