<?xml version="1.0" encoding="utf-8"?>
<svg version="1.1" xmlns:xlink="http://www.w3.org/1999/xlink" width="4px" height="4px" xmlns="http://www.w3.org/2000/svg">
  <defs>
    <pattern id="BGPattern" patternUnits="userSpaceOnUse" alignment="0 0" imageRepeat="None" />
    <mask fill="white" id="Clip215">
      <path d="M 0.08661333333333232 2  C 0.08661333333333232 2.982625026898944  0.9362933046411257 3.779200000000003  1.9844266666666641 3.779200000000003  C 3.0325600286922025 3.779200000000003  3.882239999999996 2.982625026898944  3.882239999999996 2  C 3.882239999999996 1.017374973101056  3.0325600286922025 0.220799999999997  1.9844266666666641 0.220799999999997  C 0.9362933046411257 0.220799999999997  0.08661333333333232 1.017374973101056  0.08661333333333232 2  Z " fill-rule="evenodd" />
    </mask>
  </defs>
  <g transform="matrix(1 0 0 1 -283 -2419 )">
    <path d="M 0.08661333333333232 2  C 0.08661333333333232 2.982625026898944  0.9362933046411257 3.779200000000003  1.9844266666666641 3.779200000000003  C 3.0325600286922025 3.779200000000003  3.882239999999996 2.982625026898944  3.882239999999996 2  C 3.882239999999996 1.017374973101056  3.0325600286922025 0.220799999999997  1.9844266666666641 0.220799999999997  C 0.9362933046411257 0.220799999999997  0.08661333333333232 1.017374973101056  0.08661333333333232 2  Z " fill-rule="nonzero" fill="rgba(50, 50, 51, 1)" stroke="none" transform="matrix(1 0 0 1 283 2419 )" class="fill" />
    <path d="M 0.08661333333333232 2  C 0.08661333333333232 2.982625026898944  0.9362933046411257 3.779200000000003  1.9844266666666641 3.779200000000003  C 3.0325600286922025 3.779200000000003  3.882239999999996 2.982625026898944  3.882239999999996 2  C 3.882239999999996 1.017374973101056  3.0325600286922025 0.220799999999997  1.9844266666666641 0.220799999999997  C 0.9362933046411257 0.220799999999997  0.08661333333333232 1.017374973101056  0.08661333333333232 2  Z " stroke-width="0" stroke-dasharray="0" stroke="rgba(255, 255, 255, 0)" fill="none" transform="matrix(1 0 0 1 283 2419 )" class="stroke" mask="url(#Clip215)" />
  </g>
</svg>