<?xml version="1.0" encoding="utf-8"?>
<svg version="1.1" xmlns:xlink="http://www.w3.org/1999/xlink" width="2px" height="2px" xmlns="http://www.w3.org/2000/svg">
  <defs>
    <pattern id="BGPattern" patternUnits="userSpaceOnUse" alignment="0 0" imageRepeat="None" />
    <mask fill="white" id="Clip168">
      <path d="M 0.1102592316522184 0.9999673501034323  C 0.1102592316522184 1.2359270593584455  0.20400299514246356 1.4622205222939968  0.3708642187500004 1.6290567187500002  C 0.5376986308272649 1.7959045074216604  0.7639826806223766 1.889639743646569  0.9999316277227877 1.889639743646569  C 1.4912441411722597 1.889639743646569  1.8895316277227892 1.4913522570960467  1.8895316277227892 1.000039743646571  C 1.8895316277227892 0.7640800343915579  1.795787864232537 0.5377865714560031  1.6289266406249965 0.3709503749999996  C 1.462092228547732 0.20410258632833944  1.2358081787526203 0.1103673501034308  0.9998592316522164 0.1103673501034308  C 0.5085467182027443 0.1103673501034308  0.1102592316522184 0.5086548366539567  0.1102592316522184 0.9999673501034323  Z " fill-rule="evenodd" />
    </mask>
  </defs>
  <g transform="matrix(1 0 0 1 -295 -755 )">
    <path d="M 0.1102592316522184 0.9999673501034323  C 0.1102592316522184 1.2359270593584455  0.20400299514246356 1.4622205222939968  0.3708642187500004 1.6290567187500002  C 0.5376986308272649 1.7959045074216604  0.7639826806223766 1.889639743646569  0.9999316277227877 1.889639743646569  C 1.4912441411722597 1.889639743646569  1.8895316277227892 1.4913522570960467  1.8895316277227892 1.000039743646571  C 1.8895316277227892 0.7640800343915579  1.795787864232537 0.5377865714560031  1.6289266406249965 0.3709503749999996  C 1.462092228547732 0.20410258632833944  1.2358081787526203 0.1103673501034308  0.9998592316522164 0.1103673501034308  C 0.5085467182027443 0.1103673501034308  0.1102592316522184 0.5086548366539567  0.1102592316522184 0.9999673501034323  Z " fill-rule="nonzero" fill="rgba(50, 50, 51, 1)" stroke="none" transform="matrix(1 0 0 1 295 755 )" class="fill" />
    <path d="M 0.1102592316522184 0.9999673501034323  C 0.1102592316522184 1.2359270593584455  0.20400299514246356 1.4622205222939968  0.3708642187500004 1.6290567187500002  C 0.5376986308272649 1.7959045074216604  0.7639826806223766 1.889639743646569  0.9999316277227877 1.889639743646569  C 1.4912441411722597 1.889639743646569  1.8895316277227892 1.4913522570960467  1.8895316277227892 1.000039743646571  C 1.8895316277227892 0.7640800343915579  1.795787864232537 0.5377865714560031  1.6289266406249965 0.3709503749999996  C 1.462092228547732 0.20410258632833944  1.2358081787526203 0.1103673501034308  0.9998592316522164 0.1103673501034308  C 0.5085467182027443 0.1103673501034308  0.1102592316522184 0.5086548366539567  0.1102592316522184 0.9999673501034323  Z " stroke-width="0" stroke-dasharray="0" stroke="rgba(255, 255, 255, 0)" fill="none" transform="matrix(1 0 0 1 295 755 )" class="stroke" mask="url(#Clip168)" />
  </g>
</svg>