<?xml version="1.0" encoding="utf-8"?>
<svg version="1.1" xmlns:xlink="http://www.w3.org/1999/xlink" width="5px" height="7px" xmlns="http://www.w3.org/2000/svg">
  <defs>
    <pattern id="BGPattern" patternUnits="userSpaceOnUse" alignment="0 0" imageRepeat="None" />
    <mask fill="white" id="Clip222">
      <path d="M 4.694405762304918 3.2293714285714272  C 4.816566626650657 3.3262857142857136  4.859207683073229 3.4625142857142848  4.8223289315726285 3.5868571428571414  C 4.801584633853538 3.656342857142858  4.757791116446576 3.719428571428571  4.694405762304921 3.7697142857142865  L 0.8463385354141655 6.823428571428572  C 0.658487394957983 6.972457142857144  0.3542376950780312 6.972457142857144  0.16753901560624315 6.823428571428572  C -0.019159663865544855 6.6744  -0.020312124849939252 6.433028571428571  0.16753901560624315 6.284914285714286  L 3.676782713085232 3.5  L 0.16753901560624315 0.7150857142857143  C -0.020312124849939252 0.5660571428571429  -0.020312124849939252 0.3246857142857145  0.16753901560624315 0.17657142857142769  C 0.35539015606242347 0.02754285714285629  0.6596398559423775 0.02754285714285629  0.8463385354141655 0.17657142857142769  L 4.694405762304918 3.2293714285714272  Z " fill-rule="evenodd" />
    </mask>
  </defs>
  <g transform="matrix(1 0 0 1 -335 -196 )">
    <path d="M 4.694405762304918 3.2293714285714272  C 4.816566626650657 3.3262857142857136  4.859207683073229 3.4625142857142848  4.8223289315726285 3.5868571428571414  C 4.801584633853538 3.656342857142858  4.757791116446576 3.719428571428571  4.694405762304921 3.7697142857142865  L 0.8463385354141655 6.823428571428572  C 0.658487394957983 6.972457142857144  0.3542376950780312 6.972457142857144  0.16753901560624315 6.823428571428572  C -0.019159663865544855 6.6744  -0.020312124849939252 6.433028571428571  0.16753901560624315 6.284914285714286  L 3.676782713085232 3.5  L 0.16753901560624315 0.7150857142857143  C -0.020312124849939252 0.5660571428571429  -0.020312124849939252 0.3246857142857145  0.16753901560624315 0.17657142857142769  C 0.35539015606242347 0.02754285714285629  0.6596398559423775 0.02754285714285629  0.8463385354141655 0.17657142857142769  L 4.694405762304918 3.2293714285714272  Z " fill-rule="nonzero" fill="rgba(0, 170, 170, 1)" stroke="none" transform="matrix(1 0 0 1 335 196 )" class="fill" />
    <path d="M 4.694405762304918 3.2293714285714272  C 4.816566626650657 3.3262857142857136  4.859207683073229 3.4625142857142848  4.8223289315726285 3.5868571428571414  C 4.801584633853538 3.656342857142858  4.757791116446576 3.719428571428571  4.694405762304921 3.7697142857142865  L 0.8463385354141655 6.823428571428572  C 0.658487394957983 6.972457142857144  0.3542376950780312 6.972457142857144  0.16753901560624315 6.823428571428572  C -0.019159663865544855 6.6744  -0.020312124849939252 6.433028571428571  0.16753901560624315 6.284914285714286  L 3.676782713085232 3.5  L 0.16753901560624315 0.7150857142857143  C -0.020312124849939252 0.5660571428571429  -0.020312124849939252 0.3246857142857145  0.16753901560624315 0.17657142857142769  C 0.35539015606242347 0.02754285714285629  0.6596398559423775 0.02754285714285629  0.8463385354141655 0.17657142857142769  L 4.694405762304918 3.2293714285714272  Z " stroke-width="0" stroke-dasharray="0" stroke="rgba(255, 255, 255, 0)" fill="none" transform="matrix(1 0 0 1 335 196 )" class="stroke" mask="url(#Clip222)" />
  </g>
</svg>