<?xml version="1.0" encoding="utf-8"?>
<svg version="1.1" xmlns:xlink="http://www.w3.org/1999/xlink" width="14px" height="14px" xmlns="http://www.w3.org/2000/svg">
  <defs>
    <pattern id="BGPattern" patternUnits="userSpaceOnUse" alignment="0 0" imageRepeat="None" />
    <mask fill="white" id="Clip421">
      <path d="M 4.01135616 5.006919679999996  L 4.01135616 5.009320959999998  C 4.31357696 4.9000448  4.532021759999998 4.806860799999999  4.66669056 4.729768960000001  C 5.043028479999999 4.514298880000002  5.36223744 4.2208768  5.624299519999999 3.8495027199999976  C 6.021962240000001 3.2859724800000016  6.096025599999998 3.0263116799999987  6.527646719999999 1.4490649600000016  C 6.555996160000001 1.3454156799999988  6.613053439999998 1.2038118399999986  6.698782720000003 1.0242534400000016  C 7.095495679999997 0.35931392000000006  7.660244479999999 0.027596800000001073  8.393011199999998 0.029120000000001763  C 9.10092288 0.029120000000001763  9.667194879999997 0.3608192000000003  10.091827199999999 1.0242534400000016  C 10.197662719999999 1.2073958399999989  10.27258624 1.4119347199999983  10.316579840000003 1.637923840000001  C 10.36059136 1.8638950399999996  10.36059136 2.1233766400000005  10.316579840000003 2.4163686400000004  L 9.53292032 5.151104  C 9.519050239999999 5.194506239999998  9.519050239999999 5.226206719999999  9.53292032 5.2462412800000005  C 9.547865599999998 5.267816960000001  9.569674239999998 5.278604799999999  9.59836416 5.278604799999999  L 11.979125760000002 5.278604799999999  L 11.976491520000003 5.28414208  L 12.286937600000003 5.28414208  C 13.21092864 5.28414208  13.966937600000001 6.01214208  13.966937600000001 6.936133120000001  C 13.966937600000001 7.076142079999997  13.93892864 7.216133119999997  13.910937600000006 7.356142079999996  L 13.073052160000001 12.706928640000001  C 12.90505216 13.434928640000003  12.233052160000002 13.966937600000001  11.449052159999999 14  L 1.0246835200000006 14  C 0.47484415999999974 13.966937600000001  0.029120000000001763 13.521213439999999  0.029120000000001763 12.971374079999995  L 0.029120000000001763 6.002465279999997  C 0.029120000000001763 5.452643839999997  0.47484415999999974 5.006919679999996  1.0246835200000006 5.006919679999996  L 4.01135616 5.006919679999996  Z M 4.01135616 6.1090534399999985  L 4.01135616 12.971374080000002  L 11.437583360000001 12.971374080000002  C 11.689592320000003 12.971374080000002  11.913592319999998 12.803374079999996  11.96959232 12.551383039999997  C 12.637452799999995 8.985213439999999  12.971374080000002 7.122805759999999  12.971374080000002 6.96414208  C 12.971374080000002 6.656133119999996  12.719383040000004 6.404142079999999  12.411374080000002 6.404142079999999  L 11.445109759999998 6.404142079999999  L 11.440199679999996 6.414499839999998  L 9.626892799999995 6.414499839999998  C 9.227151359999997 6.414499839999998  8.909967360000001 6.277160959999998  8.675340799999997 6.002465279999997  C 8.32340992 5.59044864  8.344860160000003 5.228267520000001  8.472862719999998 4.768422399999999  C 8.764421120000002 3.7210879999999995  9.011322879999998 2.8144256000000003  9.21363968 2.0483993600000003  C 9.20777984 1.510978559999998  8.96086016 1.2082201599999995  8.472862719999998 1.1401241599999976  C 7.984883200000003 1.0720281599999992  7.662269440000001 1.340756480000001  7.505021439999999 1.9463270399999995  L 7.0876108800000015 3.3926502399999983  C 6.6101145599999995 4.681582080000001  5.67644672 5.551508479999998  4.286625280000001 6.002465280000001  L 4.01133824 6.1090534399999985  Z M 1.0246835200000006 6.002465279999997  L 1.0246835200000006 12.971374080000002  L 3.0157926400000012 12.971374080000002  L 3.0157926400000012 6.002465279999997  L 1.0246835200000006 6.002465279999997  Z " fill-rule="evenodd" />
    </mask>
  </defs>
  <g transform="matrix(1 0 0 1 -334 -748 )">
    <path d="M 4.01135616 5.006919679999996  L 4.01135616 5.009320959999998  C 4.31357696 4.9000448  4.532021759999998 4.806860799999999  4.66669056 4.729768960000001  C 5.043028479999999 4.514298880000002  5.36223744 4.2208768  5.624299519999999 3.8495027199999976  C 6.021962240000001 3.2859724800000016  6.096025599999998 3.0263116799999987  6.527646719999999 1.4490649600000016  C 6.555996160000001 1.3454156799999988  6.613053439999998 1.2038118399999986  6.698782720000003 1.0242534400000016  C 7.095495679999997 0.35931392000000006  7.660244479999999 0.027596800000001073  8.393011199999998 0.029120000000001763  C 9.10092288 0.029120000000001763  9.667194879999997 0.3608192000000003  10.091827199999999 1.0242534400000016  C 10.197662719999999 1.2073958399999989  10.27258624 1.4119347199999983  10.316579840000003 1.637923840000001  C 10.36059136 1.8638950399999996  10.36059136 2.1233766400000005  10.316579840000003 2.4163686400000004  L 9.53292032 5.151104  C 9.519050239999999 5.194506239999998  9.519050239999999 5.226206719999999  9.53292032 5.2462412800000005  C 9.547865599999998 5.267816960000001  9.569674239999998 5.278604799999999  9.59836416 5.278604799999999  L 11.979125760000002 5.278604799999999  L 11.976491520000003 5.28414208  L 12.286937600000003 5.28414208  C 13.21092864 5.28414208  13.966937600000001 6.01214208  13.966937600000001 6.936133120000001  C 13.966937600000001 7.076142079999997  13.93892864 7.216133119999997  13.910937600000006 7.356142079999996  L 13.073052160000001 12.706928640000001  C 12.90505216 13.434928640000003  12.233052160000002 13.966937600000001  11.449052159999999 14  L 1.0246835200000006 14  C 0.47484415999999974 13.966937600000001  0.029120000000001763 13.521213439999999  0.029120000000001763 12.971374079999995  L 0.029120000000001763 6.002465279999997  C 0.029120000000001763 5.452643839999997  0.47484415999999974 5.006919679999996  1.0246835200000006 5.006919679999996  L 4.01135616 5.006919679999996  Z M 4.01135616 6.1090534399999985  L 4.01135616 12.971374080000002  L 11.437583360000001 12.971374080000002  C 11.689592320000003 12.971374080000002  11.913592319999998 12.803374079999996  11.96959232 12.551383039999997  C 12.637452799999995 8.985213439999999  12.971374080000002 7.122805759999999  12.971374080000002 6.96414208  C 12.971374080000002 6.656133119999996  12.719383040000004 6.404142079999999  12.411374080000002 6.404142079999999  L 11.445109759999998 6.404142079999999  L 11.440199679999996 6.414499839999998  L 9.626892799999995 6.414499839999998  C 9.227151359999997 6.414499839999998  8.909967360000001 6.277160959999998  8.675340799999997 6.002465279999997  C 8.32340992 5.59044864  8.344860160000003 5.228267520000001  8.472862719999998 4.768422399999999  C 8.764421120000002 3.7210879999999995  9.011322879999998 2.8144256000000003  9.21363968 2.0483993600000003  C 9.20777984 1.510978559999998  8.96086016 1.2082201599999995  8.472862719999998 1.1401241599999976  C 7.984883200000003 1.0720281599999992  7.662269440000001 1.340756480000001  7.505021439999999 1.9463270399999995  L 7.0876108800000015 3.3926502399999983  C 6.6101145599999995 4.681582080000001  5.67644672 5.551508479999998  4.286625280000001 6.002465280000001  L 4.01133824 6.1090534399999985  Z M 1.0246835200000006 6.002465279999997  L 1.0246835200000006 12.971374080000002  L 3.0157926400000012 12.971374080000002  L 3.0157926400000012 6.002465279999997  L 1.0246835200000006 6.002465279999997  Z " fill-rule="nonzero" fill="rgba(0, 0, 0, 1)" stroke="none" transform="matrix(1 0 0 1 334 748 )" class="fill" />
    <path d="M 4.01135616 5.006919679999996  L 4.01135616 5.009320959999998  C 4.31357696 4.9000448  4.532021759999998 4.806860799999999  4.66669056 4.729768960000001  C 5.043028479999999 4.514298880000002  5.36223744 4.2208768  5.624299519999999 3.8495027199999976  C 6.021962240000001 3.2859724800000016  6.096025599999998 3.0263116799999987  6.527646719999999 1.4490649600000016  C 6.555996160000001 1.3454156799999988  6.613053439999998 1.2038118399999986  6.698782720000003 1.0242534400000016  C 7.095495679999997 0.35931392000000006  7.660244479999999 0.027596800000001073  8.393011199999998 0.029120000000001763  C 9.10092288 0.029120000000001763  9.667194879999997 0.3608192000000003  10.091827199999999 1.0242534400000016  C 10.197662719999999 1.2073958399999989  10.27258624 1.4119347199999983  10.316579840000003 1.637923840000001  C 10.36059136 1.8638950399999996  10.36059136 2.1233766400000005  10.316579840000003 2.4163686400000004  L 9.53292032 5.151104  C 9.519050239999999 5.194506239999998  9.519050239999999 5.226206719999999  9.53292032 5.2462412800000005  C 9.547865599999998 5.267816960000001  9.569674239999998 5.278604799999999  9.59836416 5.278604799999999  L 11.979125760000002 5.278604799999999  L 11.976491520000003 5.28414208  L 12.286937600000003 5.28414208  C 13.21092864 5.28414208  13.966937600000001 6.01214208  13.966937600000001 6.936133120000001  C 13.966937600000001 7.076142079999997  13.93892864 7.216133119999997  13.910937600000006 7.356142079999996  L 13.073052160000001 12.706928640000001  C 12.90505216 13.434928640000003  12.233052160000002 13.966937600000001  11.449052159999999 14  L 1.0246835200000006 14  C 0.47484415999999974 13.966937600000001  0.029120000000001763 13.521213439999999  0.029120000000001763 12.971374079999995  L 0.029120000000001763 6.002465279999997  C 0.029120000000001763 5.452643839999997  0.47484415999999974 5.006919679999996  1.0246835200000006 5.006919679999996  L 4.01135616 5.006919679999996  Z " stroke-width="0" stroke-dasharray="0" stroke="rgba(255, 255, 255, 0)" fill="none" transform="matrix(1 0 0 1 334 748 )" class="stroke" mask="url(#Clip421)" />
    <path d="M 4.01135616 6.1090534399999985  L 4.01135616 12.971374080000002  L 11.437583360000001 12.971374080000002  C 11.689592320000003 12.971374080000002  11.913592319999998 12.803374079999996  11.96959232 12.551383039999997  C 12.637452799999995 8.985213439999999  12.971374080000002 7.122805759999999  12.971374080000002 6.96414208  C 12.971374080000002 6.656133119999996  12.719383040000004 6.404142079999999  12.411374080000002 6.404142079999999  L 11.445109759999998 6.404142079999999  L 11.440199679999996 6.414499839999998  L 9.626892799999995 6.414499839999998  C 9.227151359999997 6.414499839999998  8.909967360000001 6.277160959999998  8.675340799999997 6.002465279999997  C 8.32340992 5.59044864  8.344860160000003 5.228267520000001  8.472862719999998 4.768422399999999  C 8.764421120000002 3.7210879999999995  9.011322879999998 2.8144256000000003  9.21363968 2.0483993600000003  C 9.20777984 1.510978559999998  8.96086016 1.2082201599999995  8.472862719999998 1.1401241599999976  C 7.984883200000003 1.0720281599999992  7.662269440000001 1.340756480000001  7.505021439999999 1.9463270399999995  L 7.0876108800000015 3.3926502399999983  C 6.6101145599999995 4.681582080000001  5.67644672 5.551508479999998  4.286625280000001 6.002465280000001  L 4.01133824 6.1090534399999985  Z " stroke-width="0" stroke-dasharray="0" stroke="rgba(255, 255, 255, 0)" fill="none" transform="matrix(1 0 0 1 334 748 )" class="stroke" mask="url(#Clip421)" />
    <path d="M 1.0246835200000006 6.002465279999997  L 1.0246835200000006 12.971374080000002  L 3.0157926400000012 12.971374080000002  L 3.0157926400000012 6.002465279999997  L 1.0246835200000006 6.002465279999997  Z " stroke-width="0" stroke-dasharray="0" stroke="rgba(255, 255, 255, 0)" fill="none" transform="matrix(1 0 0 1 334 748 )" class="stroke" mask="url(#Clip421)" />
  </g>
</svg>