<?xml version="1.0" encoding="utf-8"?>
<svg version="1.1" xmlns:xlink="http://www.w3.org/1999/xlink" width="2px" height="2px" xmlns="http://www.w3.org/2000/svg">
  <defs>
    <pattern id="BGPattern" patternUnits="userSpaceOnUse" alignment="0 0" imageRepeat="None" />
    <mask fill="white" id="Clip293">
      <path d="M 0.04330666666666616 1  C 0.04330666666666616 1.491312513449472  0.46814665232056285 1.8896000000000015  0.9922133333333321 1.8896000000000015  C 1.5162800143461013 1.8896000000000015  1.941119999999998 1.491312513449472  1.941119999999998 1  C 1.941119999999998 0.508687486550528  1.5162800143461013 0.1103999999999985  0.9922133333333321 0.1103999999999985  C 0.46814665232056285 0.1103999999999985  0.04330666666666616 0.508687486550528  0.04330666666666616 1  Z " fill-rule="evenodd" />
    </mask>
  </defs>
  <g transform="matrix(1 0 0 1 -300 -755 )">
    <path d="M 0.04330666666666616 1  C 0.04330666666666616 1.491312513449472  0.46814665232056285 1.8896000000000015  0.9922133333333321 1.8896000000000015  C 1.5162800143461013 1.8896000000000015  1.941119999999998 1.491312513449472  1.941119999999998 1  C 1.941119999999998 0.508687486550528  1.5162800143461013 0.1103999999999985  0.9922133333333321 0.1103999999999985  C 0.46814665232056285 0.1103999999999985  0.04330666666666616 0.508687486550528  0.04330666666666616 1  Z " fill-rule="nonzero" fill="rgba(50, 50, 51, 1)" stroke="none" transform="matrix(1 0 0 1 300 755 )" class="fill" />
    <path d="M 0.04330666666666616 1  C 0.04330666666666616 1.491312513449472  0.46814665232056285 1.8896000000000015  0.9922133333333321 1.8896000000000015  C 1.5162800143461013 1.8896000000000015  1.941119999999998 1.491312513449472  1.941119999999998 1  C 1.941119999999998 0.508687486550528  1.5162800143461013 0.1103999999999985  0.9922133333333321 0.1103999999999985  C 0.46814665232056285 0.1103999999999985  0.04330666666666616 0.508687486550528  0.04330666666666616 1  Z " stroke-width="0" stroke-dasharray="0" stroke="rgba(255, 255, 255, 0)" fill="none" transform="matrix(1 0 0 1 300 755 )" class="stroke" mask="url(#Clip293)" />
  </g>
</svg>