<?xml version="1.0" encoding="utf-8"?>
<svg version="1.1" xmlns:xlink="http://www.w3.org/1999/xlink" width="57px" height="55px" xmlns="http://www.w3.org/2000/svg">
  <defs>
    <pattern id="BGPattern" patternUnits="userSpaceOnUse" alignment="0 0" imageRepeat="None" />
    <mask fill="white" id="Clip294">
      <path d="M 42.74000000000001 27.5  C 42.73360000000002 28.444842105263152  41.93360000000002 29.216771929824553  40.96079999999999 29  L 30 29  L 30 39.523578947368414  C 30.279199999999992 40.46842105263159  29.485600000000016 41.240350877192995  28.5 41.240350877192995  C 27.52080000000001 41.240350877192995  26.72080000000001 40.46842105263159  27 39.523578947368414  L 27 29  L 16.039200000000005 29  C 15.059999999999999 29.216771929824553  14.260000000000003 28.451017543859663  14.260000000000003 27.5  C 14.260000000000003 26.55515789473685  15.059999999999999 25.78322807017545  16.039200000000005 26  L 27 26  L 27 15.476421052631585  C 26.72080000000001 14.53157894736842  27.514400000000013 13.75964912280702  28.5 13.75964912280702  C 29.479199999999995 13.75964912280702  30.279199999999992 14.53157894736842  30 15.476421052631585  L 30 26  L 40.96079999999999 26  C 41.94000000000001 25.78322807017545  42.74000000000001 26.548982456140365  42.74000000000001 27.5  Z M 56.941600000000015 27.5  C 56.941600000000015 12.345473684210523  44.205600000000004 0.056350877192982075  28.5 0.056350877192982075  C 12.794399999999996 0.056350877192982075  0.058399999999999605 12.345473684210523  0.058399999999999605 27.5  C 0.058399999999999605 42.654526315789475  12.794399999999996 54.94364912280703  28.5 54.94364912280703  C 44.205600000000004 54.94364912280703  56.941600000000015 42.654526315789475  56.941600000000015 27.5  Z " fill-rule="evenodd" />
    </mask>
  </defs>
  <g transform="matrix(1 0 0 1 -365 -593 )">
    <path d="M 42.74000000000001 27.5  C 42.73360000000002 28.444842105263152  41.93360000000002 29.216771929824553  40.96079999999999 29  L 30 29  L 30 39.523578947368414  C 30.279199999999992 40.46842105263159  29.485600000000016 41.240350877192995  28.5 41.240350877192995  C 27.52080000000001 41.240350877192995  26.72080000000001 40.46842105263159  27 39.523578947368414  L 27 29  L 16.039200000000005 29  C 15.059999999999999 29.216771929824553  14.260000000000003 28.451017543859663  14.260000000000003 27.5  C 14.260000000000003 26.55515789473685  15.059999999999999 25.78322807017545  16.039200000000005 26  L 27 26  L 27 15.476421052631585  C 26.72080000000001 14.53157894736842  27.514400000000013 13.75964912280702  28.5 13.75964912280702  C 29.479199999999995 13.75964912280702  30.279199999999992 14.53157894736842  30 15.476421052631585  L 30 26  L 40.96079999999999 26  C 41.94000000000001 25.78322807017545  42.74000000000001 26.548982456140365  42.74000000000001 27.5  Z M 56.941600000000015 27.5  C 56.941600000000015 12.345473684210523  44.205600000000004 0.056350877192982075  28.5 0.056350877192982075  C 12.794399999999996 0.056350877192982075  0.058399999999999605 12.345473684210523  0.058399999999999605 27.5  C 0.058399999999999605 42.654526315789475  12.794399999999996 54.94364912280703  28.5 54.94364912280703  C 44.205600000000004 54.94364912280703  56.941600000000015 42.654526315789475  56.941600000000015 27.5  Z " fill-rule="nonzero" fill="rgba(129, 211, 248, 0.6274509803921569)" stroke="none" transform="matrix(1 0 0 1 365 593 )" class="fill" />
    <path d="M 42.74000000000001 27.5  C 42.73360000000002 28.444842105263152  41.93360000000002 29.216771929824553  40.96079999999999 29  L 30 29  L 30 39.523578947368414  C 30.279199999999992 40.46842105263159  29.485600000000016 41.240350877192995  28.5 41.240350877192995  C 27.52080000000001 41.240350877192995  26.72080000000001 40.46842105263159  27 39.523578947368414  L 27 29  L 16.039200000000005 29  C 15.059999999999999 29.216771929824553  14.260000000000003 28.451017543859663  14.260000000000003 27.5  C 14.260000000000003 26.55515789473685  15.059999999999999 25.78322807017545  16.039200000000005 26  L 27 26  L 27 15.476421052631585  C 26.72080000000001 14.53157894736842  27.514400000000013 13.75964912280702  28.5 13.75964912280702  C 29.479199999999995 13.75964912280702  30.279199999999992 14.53157894736842  30 15.476421052631585  L 30 26  L 40.96079999999999 26  C 41.94000000000001 25.78322807017545  42.74000000000001 26.548982456140365  42.74000000000001 27.5  Z " stroke-width="0" stroke-dasharray="0" stroke="rgba(255, 255, 255, 0)" fill="none" transform="matrix(1 0 0 1 365 593 )" class="stroke" mask="url(#Clip294)" />
    <path d="M 56.941600000000015 27.5  C 56.941600000000015 12.345473684210523  44.205600000000004 0.056350877192982075  28.5 0.056350877192982075  C 12.794399999999996 0.056350877192982075  0.058399999999999605 12.345473684210523  0.058399999999999605 27.5  C 0.058399999999999605 42.654526315789475  12.794399999999996 54.94364912280703  28.5 54.94364912280703  C 44.205600000000004 54.94364912280703  56.941600000000015 42.654526315789475  56.941600000000015 27.5  Z " stroke-width="0" stroke-dasharray="0" stroke="rgba(255, 255, 255, 0)" fill="none" transform="matrix(1 0 0 1 365 593 )" class="stroke" mask="url(#Clip294)" />
  </g>
</svg>