<?xml version="1.0" encoding="utf-8"?>
<svg version="1.1" xmlns:xlink="http://www.w3.org/1999/xlink" width="14px" height="17px" xmlns="http://www.w3.org/2000/svg">
  <defs>
    <pattern id="BGPattern" patternUnits="userSpaceOnUse" alignment="0 0" imageRepeat="None" />
    <mask fill="white" id="Clip229">
      <path d="M 9.117214814814812 15.560222222222215  C 11.72722962962963 14.219777777777772  12.991585185185185 12.696222222222218  12.991585185185185 11.007333333333335  C 12.991585185185185 9.821555555555555  12.568474074074073 8.687333333333335  11.854992592592593 7.647333333333336  C 11.619152056153098 7.304036384648981  11.358985231683452 6.980709962524045  11.076800000000002 6.68022222222222  C 10.744948148148143 7.147777777777776  10.42968888888889 7.476666666666667  10.192414814814812 7.672222222222217  C 9.848948148148152 7.953111111111106  9.366103703703706 7.620666666666665  9.462340740740743 7.169111111111107  C 9.935229629629628 4.969999999999999  9.249955555555553 3.3326666666666647  7.791466666666665 2.122  C 7.38494814814815 1.7842222222222226  6.945244444444444 1.5068888888888878  6.507199999999997 1.2882222222222204  C 6.493925925925927 1.2811111111111089  6.480651851851852 1.2757777777777761  6.469037037037033 1.2686666666666646  C 6.206874074074071 3.1104444444444432  5.4120888888888885 4.137999999999998  3.606814814814815 5.645555555555553  L 3.562014814814813 5.68288888888889  C 1.6190222222222213 7.305999999999997  1.0084148148148127 8.246444444444442  1.0084148148148127 10.447333333333333  C 1.0084148148148127 12.573555555555558  2.3358222222222222 14.292666666666662  4.5791407407407405 15.405555555555551  C 3.8540444444444466 14.148666666666664  3.6300444444444437 12.941555555555553  3.8590222222222232 11.801999999999992  C 4.058133333333332 10.806444444444438  4.587437037037035 9.935333333333332  5.334103703703703 9.186888888888888  C 5.6659555555555565 8.85444444444444  6.019377777777777 8.568222222222218  6.37445925925926 8.328222222222223  C 6.588503703703701 8.182444444444442  6.7594074074074095 8.082888888888888  6.862281481481482 8.027777777777771  C 7.287051851851849 7.807333333333332  7.711822222222224 8.333555555555549  7.443022222222219 8.751333333333328  C 7.438044444444444 8.758444444444443  7.41647407407407 8.801111111111105  7.391585185185185 8.87577777777777  C 7.144355555555553 9.60111111111111  7.38494814814815 10.589555555555549  8.617777777777778 11.855333333333327  C 9.553599999999998 12.88111111111111  9.707911111111104 14.141555555555549  9.117214814814812 15.560222222222215  Z M 10.53256296296296 5.798444444444446  C 10.560770370370367 5.7557777777777765  10.588977777777773 5.713111111111111  10.615525925925922 5.668666666666667  C 10.763199999999998 5.425111111111111  11.075140740740737 5.369999999999997  11.287525925925921 5.551333333333332  C 11.375466666666668 5.627777777777776  11.523140740740743 5.764666666666667  11.70731851851852 5.958444444444442  C 12.030874074074074 6.299777777777777  12.32954074074074 6.669555555555554  12.598340740740742 7.062444444444445  C 13.418014814814814 8.25888888888889  13.912474074074078 9.585111111111111  13.912474074074078 11.007333333333335  C 13.912474074074078 13.337999999999994  12.148681481481482 15.268666666666661  8.728948148148149 16.827777777777776  L 8.548088888888884 16.866888888888887  L 8.151525925925924 16.866888888888887  C 7.779851851851855 16.866888888888887  7.560829629629629 16.420666666666662  7.771555555555557 16.09177777777778  C 8.7472 14.580666666666666  8.783703703703704 13.44822222222222  7.967348148148146 12.554000000000002  C 6.902103703703699 11.460666666666668  6.429214814814813 10.427777777777777  6.389392592592592 9.52111111111111  C 6.2417185185185176 9.643777777777778  6.100681481481479 9.771777777777778  5.96462222222222 9.908666666666669  C 5.344059259259257 10.530888888888889  4.915970370370366 11.23488888888889  4.761659259259258 12.009999999999998  C 4.522725925925925 13.204666666666668  4.9309037037037005 14.539777777777779  6.183644444444441 16.045555555555552  C 6.449125925925925 16.363777777777777  6.238399999999998 16.86866666666667  5.840177777777776 16.86866666666667  L 5.619496296296295 16.86866666666667  L 5.473481481481482 16.843777777777774  C 2.181511111111111 15.666888888888884  0.08586666666666551 13.426888888888882  0.08586666666666551 10.447333333333333  C 0.08586666666666551 7.873111111111108  0.8507851851851849 6.696222222222222  2.9945481481481493 4.90422222222222  L 3.0393481481481475 4.866888888888887  C 4.864533333333333 3.3433333333333337  5.480118518518519 2.463333333333331  5.6178370370370345 0.5326666666666675  C 5.641066666666667 0.2162222222222212  5.931437037037036 0.0046666666666652645  6.213511111111111 0.09888888888889014  C 6.356207407407408 0.1468888888888884  6.5934814814814775 0.2428888888888885  6.895466666666665 0.39222222222222314  C 7.3932444444444405 0.6393333333333331  7.889362962962961 0.9540000000000006  8.35561481481481 1.3397777777777762  C 9.709570370370368 2.463333333333331  10.52094814814815 3.9477777777777767  10.53256296296296 5.798444444444446  Z " fill-rule="evenodd" />
    </mask>
  </defs>
  <g transform="matrix(1 0 0 1 -105 -134 )">
    <path d="M 9.117214814814812 15.560222222222215  C 11.72722962962963 14.219777777777772  12.991585185185185 12.696222222222218  12.991585185185185 11.007333333333335  C 12.991585185185185 9.821555555555555  12.568474074074073 8.687333333333335  11.854992592592593 7.647333333333336  C 11.619152056153098 7.304036384648981  11.358985231683452 6.980709962524045  11.076800000000002 6.68022222222222  C 10.744948148148143 7.147777777777776  10.42968888888889 7.476666666666667  10.192414814814812 7.672222222222217  C 9.848948148148152 7.953111111111106  9.366103703703706 7.620666666666665  9.462340740740743 7.169111111111107  C 9.935229629629628 4.969999999999999  9.249955555555553 3.3326666666666647  7.791466666666665 2.122  C 7.38494814814815 1.7842222222222226  6.945244444444444 1.5068888888888878  6.507199999999997 1.2882222222222204  C 6.493925925925927 1.2811111111111089  6.480651851851852 1.2757777777777761  6.469037037037033 1.2686666666666646  C 6.206874074074071 3.1104444444444432  5.4120888888888885 4.137999999999998  3.606814814814815 5.645555555555553  L 3.562014814814813 5.68288888888889  C 1.6190222222222213 7.305999999999997  1.0084148148148127 8.246444444444442  1.0084148148148127 10.447333333333333  C 1.0084148148148127 12.573555555555558  2.3358222222222222 14.292666666666662  4.5791407407407405 15.405555555555551  C 3.8540444444444466 14.148666666666664  3.6300444444444437 12.941555555555553  3.8590222222222232 11.801999999999992  C 4.058133333333332 10.806444444444438  4.587437037037035 9.935333333333332  5.334103703703703 9.186888888888888  C 5.6659555555555565 8.85444444444444  6.019377777777777 8.568222222222218  6.37445925925926 8.328222222222223  C 6.588503703703701 8.182444444444442  6.7594074074074095 8.082888888888888  6.862281481481482 8.027777777777771  C 7.287051851851849 7.807333333333332  7.711822222222224 8.333555555555549  7.443022222222219 8.751333333333328  C 7.438044444444444 8.758444444444443  7.41647407407407 8.801111111111105  7.391585185185185 8.87577777777777  C 7.144355555555553 9.60111111111111  7.38494814814815 10.589555555555549  8.617777777777778 11.855333333333327  C 9.553599999999998 12.88111111111111  9.707911111111104 14.141555555555549  9.117214814814812 15.560222222222215  Z M 10.53256296296296 5.798444444444446  C 10.560770370370367 5.7557777777777765  10.588977777777773 5.713111111111111  10.615525925925922 5.668666666666667  C 10.763199999999998 5.425111111111111  11.075140740740737 5.369999999999997  11.287525925925921 5.551333333333332  C 11.375466666666668 5.627777777777776  11.523140740740743 5.764666666666667  11.70731851851852 5.958444444444442  C 12.030874074074074 6.299777777777777  12.32954074074074 6.669555555555554  12.598340740740742 7.062444444444445  C 13.418014814814814 8.25888888888889  13.912474074074078 9.585111111111111  13.912474074074078 11.007333333333335  C 13.912474074074078 13.337999999999994  12.148681481481482 15.268666666666661  8.728948148148149 16.827777777777776  L 8.548088888888884 16.866888888888887  L 8.151525925925924 16.866888888888887  C 7.779851851851855 16.866888888888887  7.560829629629629 16.420666666666662  7.771555555555557 16.09177777777778  C 8.7472 14.580666666666666  8.783703703703704 13.44822222222222  7.967348148148146 12.554000000000002  C 6.902103703703699 11.460666666666668  6.429214814814813 10.427777777777777  6.389392592592592 9.52111111111111  C 6.2417185185185176 9.643777777777778  6.100681481481479 9.771777777777778  5.96462222222222 9.908666666666669  C 5.344059259259257 10.530888888888889  4.915970370370366 11.23488888888889  4.761659259259258 12.009999999999998  C 4.522725925925925 13.204666666666668  4.9309037037037005 14.539777777777779  6.183644444444441 16.045555555555552  C 6.449125925925925 16.363777777777777  6.238399999999998 16.86866666666667  5.840177777777776 16.86866666666667  L 5.619496296296295 16.86866666666667  L 5.473481481481482 16.843777777777774  C 2.181511111111111 15.666888888888884  0.08586666666666551 13.426888888888882  0.08586666666666551 10.447333333333333  C 0.08586666666666551 7.873111111111108  0.8507851851851849 6.696222222222222  2.9945481481481493 4.90422222222222  L 3.0393481481481475 4.866888888888887  C 4.864533333333333 3.3433333333333337  5.480118518518519 2.463333333333331  5.6178370370370345 0.5326666666666675  C 5.641066666666667 0.2162222222222212  5.931437037037036 0.0046666666666652645  6.213511111111111 0.09888888888889014  C 6.356207407407408 0.1468888888888884  6.5934814814814775 0.2428888888888885  6.895466666666665 0.39222222222222314  C 7.3932444444444405 0.6393333333333331  7.889362962962961 0.9540000000000006  8.35561481481481 1.3397777777777762  C 9.709570370370368 2.463333333333331  10.52094814814815 3.9477777777777767  10.53256296296296 5.798444444444446  Z " fill-rule="nonzero" fill="rgba(50, 50, 51, 1)" stroke="none" transform="matrix(1 0 0 1 105 134 )" class="fill" />
    <path d="M 9.117214814814812 15.560222222222215  C 11.72722962962963 14.219777777777772  12.991585185185185 12.696222222222218  12.991585185185185 11.007333333333335  C 12.991585185185185 9.821555555555555  12.568474074074073 8.687333333333335  11.854992592592593 7.647333333333336  C 11.619152056153098 7.304036384648981  11.358985231683452 6.980709962524045  11.076800000000002 6.68022222222222  C 10.744948148148143 7.147777777777776  10.42968888888889 7.476666666666667  10.192414814814812 7.672222222222217  C 9.848948148148152 7.953111111111106  9.366103703703706 7.620666666666665  9.462340740740743 7.169111111111107  C 9.935229629629628 4.969999999999999  9.249955555555553 3.3326666666666647  7.791466666666665 2.122  C 7.38494814814815 1.7842222222222226  6.945244444444444 1.5068888888888878  6.507199999999997 1.2882222222222204  C 6.493925925925927 1.2811111111111089  6.480651851851852 1.2757777777777761  6.469037037037033 1.2686666666666646  C 6.206874074074071 3.1104444444444432  5.4120888888888885 4.137999999999998  3.606814814814815 5.645555555555553  L 3.562014814814813 5.68288888888889  C 1.6190222222222213 7.305999999999997  1.0084148148148127 8.246444444444442  1.0084148148148127 10.447333333333333  C 1.0084148148148127 12.573555555555558  2.3358222222222222 14.292666666666662  4.5791407407407405 15.405555555555551  C 3.8540444444444466 14.148666666666664  3.6300444444444437 12.941555555555553  3.8590222222222232 11.801999999999992  C 4.058133333333332 10.806444444444438  4.587437037037035 9.935333333333332  5.334103703703703 9.186888888888888  C 5.6659555555555565 8.85444444444444  6.019377777777777 8.568222222222218  6.37445925925926 8.328222222222223  C 6.588503703703701 8.182444444444442  6.7594074074074095 8.082888888888888  6.862281481481482 8.027777777777771  C 7.287051851851849 7.807333333333332  7.711822222222224 8.333555555555549  7.443022222222219 8.751333333333328  C 7.438044444444444 8.758444444444443  7.41647407407407 8.801111111111105  7.391585185185185 8.87577777777777  C 7.144355555555553 9.60111111111111  7.38494814814815 10.589555555555549  8.617777777777778 11.855333333333327  C 9.553599999999998 12.88111111111111  9.707911111111104 14.141555555555549  9.117214814814812 15.560222222222215  Z " stroke-width="0" stroke-dasharray="0" stroke="rgba(255, 255, 255, 0)" fill="none" transform="matrix(1 0 0 1 105 134 )" class="stroke" mask="url(#Clip229)" />
    <path d="M 10.53256296296296 5.798444444444446  C 10.560770370370367 5.7557777777777765  10.588977777777773 5.713111111111111  10.615525925925922 5.668666666666667  C 10.763199999999998 5.425111111111111  11.075140740740737 5.369999999999997  11.287525925925921 5.551333333333332  C 11.375466666666668 5.627777777777776  11.523140740740743 5.764666666666667  11.70731851851852 5.958444444444442  C 12.030874074074074 6.299777777777777  12.32954074074074 6.669555555555554  12.598340740740742 7.062444444444445  C 13.418014814814814 8.25888888888889  13.912474074074078 9.585111111111111  13.912474074074078 11.007333333333335  C 13.912474074074078 13.337999999999994  12.148681481481482 15.268666666666661  8.728948148148149 16.827777777777776  L 8.548088888888884 16.866888888888887  L 8.151525925925924 16.866888888888887  C 7.779851851851855 16.866888888888887  7.560829629629629 16.420666666666662  7.771555555555557 16.09177777777778  C 8.7472 14.580666666666666  8.783703703703704 13.44822222222222  7.967348148148146 12.554000000000002  C 6.902103703703699 11.460666666666668  6.429214814814813 10.427777777777777  6.389392592592592 9.52111111111111  C 6.2417185185185176 9.643777777777778  6.100681481481479 9.771777777777778  5.96462222222222 9.908666666666669  C 5.344059259259257 10.530888888888889  4.915970370370366 11.23488888888889  4.761659259259258 12.009999999999998  C 4.522725925925925 13.204666666666668  4.9309037037037005 14.539777777777779  6.183644444444441 16.045555555555552  C 6.449125925925925 16.363777777777777  6.238399999999998 16.86866666666667  5.840177777777776 16.86866666666667  L 5.619496296296295 16.86866666666667  L 5.473481481481482 16.843777777777774  C 2.181511111111111 15.666888888888884  0.08586666666666551 13.426888888888882  0.08586666666666551 10.447333333333333  C 0.08586666666666551 7.873111111111108  0.8507851851851849 6.696222222222222  2.9945481481481493 4.90422222222222  L 3.0393481481481475 4.866888888888887  C 4.864533333333333 3.3433333333333337  5.480118518518519 2.463333333333331  5.6178370370370345 0.5326666666666675  C 5.641066666666667 0.2162222222222212  5.931437037037036 0.0046666666666652645  6.213511111111111 0.09888888888889014  C 6.356207407407408 0.1468888888888884  6.5934814814814775 0.2428888888888885  6.895466666666665 0.39222222222222314  C 7.3932444444444405 0.6393333333333331  7.889362962962961 0.9540000000000006  8.35561481481481 1.3397777777777762  C 9.709570370370368 2.463333333333331  10.52094814814815 3.9477777777777767  10.53256296296296 5.798444444444446  Z " stroke-width="0" stroke-dasharray="0" stroke="rgba(255, 255, 255, 0)" fill="none" transform="matrix(1 0 0 1 105 134 )" class="stroke" mask="url(#Clip229)" />
  </g>
</svg>