<?xml version="1.0" encoding="utf-8"?>
<svg version="1.1" xmlns:xlink="http://www.w3.org/1999/xlink" width="406px" height="178px" xmlns="http://www.w3.org/2000/svg">
  <defs>
    <pattern id="BGPattern" patternUnits="userSpaceOnUse" alignment="0 0" imageRepeat="None" />
    <mask fill="white" id="Clip1">
      <path d="M 0 178  L 0 0  L 406 0  L 406 178  L 0 178  Z " fill-rule="evenodd" />
    </mask>
  </defs>
  <g transform="matrix(1 0 0 1 -13 -1114 )">
    <path d="M 0 178  L 0 0  L 406 0  L 406 178  L 0 178  Z " fill-rule="nonzero" fill="rgba(242, 242, 242, 1)" stroke="none" transform="matrix(1 0 0 1 13 1114 )" class="fill" />
    <path d="M 0 178  L 0 0  L 406 0  L 406 178  L 0 178  Z " stroke-width="2" stroke-dasharray="0" stroke="rgba(121, 121, 121, 1)" fill="none" transform="matrix(1 0 0 1 13 1114 )" class="stroke" mask="url(#Clip1)" />
    <path d="M 404.95552345586873 0.4579232139294594  L 1.0444765441312387 177.54207678607054  M 1.0444765441312387 0.4579232139294594  L 404.95552345586873 177.54207678607054  " stroke-width="1" stroke-dasharray="0" stroke="rgba(121, 121, 121, 1)" fill="none" transform="matrix(1 0 0 1 13 1114 )" class="stroke" />
  </g>
</svg>