<?xml version="1.0" encoding="utf-8"?>
<svg version="1.1" xmlns:xlink="http://www.w3.org/1999/xlink" width="15px" height="8px" xmlns="http://www.w3.org/2000/svg">
  <defs>
    <pattern id="BGPattern" patternUnits="userSpaceOnUse" alignment="0 0" imageRepeat="None" />
    <mask fill="white" id="Clip477">
      <path d="M 0.14441379310344615 1.0955034482758634  C 0.14441379310344615 0.551724137931032  0.5548965517241413 0.11387586206896572  1.0646896551724154 0.11387586206896572  L 13.938620689655181 0.11387586206896572  C 14.445103448275859 0.11387586206896572  14.858896551724143 0.551724137931032  14.858896551724143 1.0955034482758634  C 14.858896551724143 1.6357517241379327  14.448413793103455 2.077131034482754  13.938620689655181 2  L 1.0646896551724154 2  C 0.5582068965517237 2.077131034482754  0.14441379310344615 1.6392827586206877  0.14441379310344615 1.0955034482758634  Z M 0.14441379310344615 6.978206896551725  C 0.14441379310344615 6.434427586206894  0.5548965517241413 5.996579310344828  1.0646896551724154 6  L 13.938620689655181 6  C 14.445103448275859 5.996579310344828  14.858896551724143 6.434427586206894  14.858896551724143 6.978206896551725  C 14.858896551724143 7.52198620689655  14.448413793103455 7.959834482758623  13.938620689655181 8  L 1.0646896551724154 8  C 0.5582068965517237 7.959834482758623  0.14441379310344615 7.52198620689655  0.14441379310344615 6.978206896551725  Z " fill-rule="evenodd" />
    </mask>
  </defs>
  <g transform="matrix(1 0 0 1 -105 -794 )">
    <path d="M 0.14441379310344615 1.0955034482758634  C 0.14441379310344615 0.551724137931032  0.5548965517241413 0.11387586206896572  1.0646896551724154 0.11387586206896572  L 13.938620689655181 0.11387586206896572  C 14.445103448275859 0.11387586206896572  14.858896551724143 0.551724137931032  14.858896551724143 1.0955034482758634  C 14.858896551724143 1.6357517241379327  14.448413793103455 2.077131034482754  13.938620689655181 2  L 1.0646896551724154 2  C 0.5582068965517237 2.077131034482754  0.14441379310344615 1.6392827586206877  0.14441379310344615 1.0955034482758634  Z M 0.14441379310344615 6.978206896551725  C 0.14441379310344615 6.434427586206894  0.5548965517241413 5.996579310344828  1.0646896551724154 6  L 13.938620689655181 6  C 14.445103448275859 5.996579310344828  14.858896551724143 6.434427586206894  14.858896551724143 6.978206896551725  C 14.858896551724143 7.52198620689655  14.448413793103455 7.959834482758623  13.938620689655181 8  L 1.0646896551724154 8  C 0.5582068965517237 7.959834482758623  0.14441379310344615 7.52198620689655  0.14441379310344615 6.978206896551725  Z " fill-rule="nonzero" fill="rgba(50, 50, 51, 1)" stroke="none" transform="matrix(1 0 0 1 105 794 )" class="fill" />
    <path d="M 0.14441379310344615 1.0955034482758634  C 0.14441379310344615 0.551724137931032  0.5548965517241413 0.11387586206896572  1.0646896551724154 0.11387586206896572  L 13.938620689655181 0.11387586206896572  C 14.445103448275859 0.11387586206896572  14.858896551724143 0.551724137931032  14.858896551724143 1.0955034482758634  C 14.858896551724143 1.6357517241379327  14.448413793103455 2.077131034482754  13.938620689655181 2  L 1.0646896551724154 2  C 0.5582068965517237 2.077131034482754  0.14441379310344615 1.6392827586206877  0.14441379310344615 1.0955034482758634  Z " stroke-width="0" stroke-dasharray="0" stroke="rgba(255, 255, 255, 0)" fill="none" transform="matrix(1 0 0 1 105 794 )" class="stroke" mask="url(#Clip477)" />
    <path d="M 0.14441379310344615 6.978206896551725  C 0.14441379310344615 6.434427586206894  0.5548965517241413 5.996579310344828  1.0646896551724154 6  L 13.938620689655181 6  C 14.445103448275859 5.996579310344828  14.858896551724143 6.434427586206894  14.858896551724143 6.978206896551725  C 14.858896551724143 7.52198620689655  14.448413793103455 7.959834482758623  13.938620689655181 8  L 1.0646896551724154 8  C 0.5582068965517237 7.959834482758623  0.14441379310344615 7.52198620689655  0.14441379310344615 6.978206896551725  Z " stroke-width="0" stroke-dasharray="0" stroke="rgba(255, 255, 255, 0)" fill="none" transform="matrix(1 0 0 1 105 794 )" class="stroke" mask="url(#Clip477)" />
  </g>
</svg>