<?xml version="1.0" encoding="utf-8"?>
<svg version="1.1" xmlns:xlink="http://www.w3.org/1999/xlink" width="30px" height="26px" xmlns="http://www.w3.org/2000/svg">
  <defs>
    <pattern id="BGPattern" patternUnits="userSpaceOnUse" alignment="0 0" imageRepeat="None" />
    <mask fill="white" id="Clip214">
      <path d="M 4.594947368421053 19.805759999999992  L 3.2879999999999967 22.960703999999993  L 6.962947368421055 21.785920000000004  L 7.6837894736842145 22.198592000000005  C 9.826105263157892 23.426624000000004  12.352421052631577 24.092224  15 24.092224  C 22.285894736842096 24.092224  28.09978947368421 19.066943999999992  28.09978947368421 13  C 28.09978947368421 6.9330560000000006  22.28589473684211 1.9077759999999984  15 1.9077759999999984  C 7.71410526315789 1.9077759999999984  1.900210526315789 6.9330560000000006  1.900210526315789 13  C 1.900210526315789 15.143232  2.6176842105263134 17.19328  3.9616842105263146 18.967104000000006  L 4.594947368421053 19.805759999999992  Z M 29.969263157894744 13  C 29.969263157894744 20.148544  23.269473684210524 25.942592000000005  15 25.942592000000005  C 11.94821052631579 25.942592000000005  9.111999999999995 25.153856000000005  6.747368421052634 23.799360000000007  L 1.94736842105263 25.330240000000003  C 1.7385263157894713 25.3968  1.5094736842105263 25.390144000000006  1.304000000000002 25.306944  C 0.8256842105263189 25.113920000000007  0.5966315789473668 24.574783999999994  0.7920000000000016 24.102208000000005  L 2.462736842105265 20.078655999999995  C 0.9233684210526292 18.041920000000005  0.03073684210526295 15.612480000000007  0.03073684210526295 13  C 0.03073684210526295 5.851455999999999  6.733894736842103 0.057408000000002346  15 0.057408000000002346  C 23.266105263157897 0.057408000000002346  29.969263157894744 5.851455999999999  29.969263157894744 13  Z " fill-rule="evenodd" />
    </mask>
  </defs>
  <g transform="matrix(1 0 0 1 -227 -787 )">
    <path d="M 4.594947368421053 19.805759999999992  L 3.2879999999999967 22.960703999999993  L 6.962947368421055 21.785920000000004  L 7.6837894736842145 22.198592000000005  C 9.826105263157892 23.426624000000004  12.352421052631577 24.092224  15 24.092224  C 22.285894736842096 24.092224  28.09978947368421 19.066943999999992  28.09978947368421 13  C 28.09978947368421 6.9330560000000006  22.28589473684211 1.9077759999999984  15 1.9077759999999984  C 7.71410526315789 1.9077759999999984  1.900210526315789 6.9330560000000006  1.900210526315789 13  C 1.900210526315789 15.143232  2.6176842105263134 17.19328  3.9616842105263146 18.967104000000006  L 4.594947368421053 19.805759999999992  Z M 29.969263157894744 13  C 29.969263157894744 20.148544  23.269473684210524 25.942592000000005  15 25.942592000000005  C 11.94821052631579 25.942592000000005  9.111999999999995 25.153856000000005  6.747368421052634 23.799360000000007  L 1.94736842105263 25.330240000000003  C 1.7385263157894713 25.3968  1.5094736842105263 25.390144000000006  1.304000000000002 25.306944  C 0.8256842105263189 25.113920000000007  0.5966315789473668 24.574783999999994  0.7920000000000016 24.102208000000005  L 2.462736842105265 20.078655999999995  C 0.9233684210526292 18.041920000000005  0.03073684210526295 15.612480000000007  0.03073684210526295 13  C 0.03073684210526295 5.851455999999999  6.733894736842103 0.057408000000002346  15 0.057408000000002346  C 23.266105263157897 0.057408000000002346  29.969263157894744 5.851455999999999  29.969263157894744 13  Z " fill-rule="nonzero" fill="rgba(50, 50, 51, 1)" stroke="none" transform="matrix(1 0 0 1 227 787 )" class="fill" />
    <path d="M 4.594947368421053 19.805759999999992  L 3.2879999999999967 22.960703999999993  L 6.962947368421055 21.785920000000004  L 7.6837894736842145 22.198592000000005  C 9.826105263157892 23.426624000000004  12.352421052631577 24.092224  15 24.092224  C 22.285894736842096 24.092224  28.09978947368421 19.066943999999992  28.09978947368421 13  C 28.09978947368421 6.9330560000000006  22.28589473684211 1.9077759999999984  15 1.9077759999999984  C 7.71410526315789 1.9077759999999984  1.900210526315789 6.9330560000000006  1.900210526315789 13  C 1.900210526315789 15.143232  2.6176842105263134 17.19328  3.9616842105263146 18.967104000000006  L 4.594947368421053 19.805759999999992  Z " stroke-width="0" stroke-dasharray="0" stroke="rgba(255, 255, 255, 0)" fill="none" transform="matrix(1 0 0 1 227 787 )" class="stroke" mask="url(#Clip214)" />
    <path d="M 29.969263157894744 13  C 29.969263157894744 20.148544  23.269473684210524 25.942592000000005  15 25.942592000000005  C 11.94821052631579 25.942592000000005  9.111999999999995 25.153856000000005  6.747368421052634 23.799360000000007  L 1.94736842105263 25.330240000000003  C 1.7385263157894713 25.3968  1.5094736842105263 25.390144000000006  1.304000000000002 25.306944  C 0.8256842105263189 25.113920000000007  0.5966315789473668 24.574783999999994  0.7920000000000016 24.102208000000005  L 2.462736842105265 20.078655999999995  C 0.9233684210526292 18.041920000000005  0.03073684210526295 15.612480000000007  0.03073684210526295 13  C 0.03073684210526295 5.851455999999999  6.733894736842103 0.057408000000002346  15 0.057408000000002346  C 23.266105263157897 0.057408000000002346  29.969263157894744 5.851455999999999  29.969263157894744 13  Z " stroke-width="0" stroke-dasharray="0" stroke="rgba(255, 255, 255, 0)" fill="none" transform="matrix(1 0 0 1 227 787 )" class="stroke" mask="url(#Clip214)" />
  </g>
</svg>