<?xml version="1.0" encoding="utf-8"?>
<svg version="1.1" xmlns:xlink="http://www.w3.org/1999/xlink" width="4px" height="4px" xmlns="http://www.w3.org/2000/svg">
  <defs>
    <pattern id="BGPattern" patternUnits="userSpaceOnUse" alignment="0 0" imageRepeat="None" />
    <mask fill="white" id="Clip215">
      <path d="M 0.2205184633044368 1.9999347002068646  C 0.2205184633044368 2.471854118716891  0.4080059902849271 2.9244410445879936  0.7417284375000008 3.2581134375000005  C 1.0753972616545298 3.591809014843321  1.5279653612447532 3.779279487293138  1.9998632554455753 3.779279487293138  C 2.9824882823445193 3.779279487293138  3.7790632554455783 2.9827045141920934  3.7790632554455783 2.000079487293142  C 3.7790632554455783 1.5281600687831158  3.591575728465074 1.0755731429120061  3.257853281249993 0.7419007499999992  C 2.924184457095464 0.4082051726566789  2.4716163575052406 0.2207347002068616  1.9997184633044327 0.2207347002068616  C 1.0170934364054887 0.2207347002068616  0.2205184633044368 1.0173096733079134  0.2205184633044368 1.9999347002068646  Z " fill-rule="evenodd" />
    </mask>
  </defs>
  <g transform="matrix(1 0 0 1 -240 -798 )">
    <path d="M 0.2205184633044368 1.9999347002068646  C 0.2205184633044368 2.471854118716891  0.4080059902849271 2.9244410445879936  0.7417284375000008 3.2581134375000005  C 1.0753972616545298 3.591809014843321  1.5279653612447532 3.779279487293138  1.9998632554455753 3.779279487293138  C 2.9824882823445193 3.779279487293138  3.7790632554455783 2.9827045141920934  3.7790632554455783 2.000079487293142  C 3.7790632554455783 1.5281600687831158  3.591575728465074 1.0755731429120061  3.257853281249993 0.7419007499999992  C 2.924184457095464 0.4082051726566789  2.4716163575052406 0.2207347002068616  1.9997184633044327 0.2207347002068616  C 1.0170934364054887 0.2207347002068616  0.2205184633044368 1.0173096733079134  0.2205184633044368 1.9999347002068646  Z " fill-rule="nonzero" fill="rgba(50, 50, 51, 1)" stroke="none" transform="matrix(1 0 0 1 240 798 )" class="fill" />
    <path d="M 0.2205184633044368 1.9999347002068646  C 0.2205184633044368 2.471854118716891  0.4080059902849271 2.9244410445879936  0.7417284375000008 3.2581134375000005  C 1.0753972616545298 3.591809014843321  1.5279653612447532 3.779279487293138  1.9998632554455753 3.779279487293138  C 2.9824882823445193 3.779279487293138  3.7790632554455783 2.9827045141920934  3.7790632554455783 2.000079487293142  C 3.7790632554455783 1.5281600687831158  3.591575728465074 1.0755731429120061  3.257853281249993 0.7419007499999992  C 2.924184457095464 0.4082051726566789  2.4716163575052406 0.2207347002068616  1.9997184633044327 0.2207347002068616  C 1.0170934364054887 0.2207347002068616  0.2205184633044368 1.0173096733079134  0.2205184633044368 1.9999347002068646  Z " stroke-width="0" stroke-dasharray="0" stroke="rgba(255, 255, 255, 0)" fill="none" transform="matrix(1 0 0 1 240 798 )" class="stroke" mask="url(#Clip215)" />
  </g>
</svg>