<?xml version="1.0" encoding="utf-8"?>
<svg version="1.1" xmlns:xlink="http://www.w3.org/1999/xlink" width="4px" height="4px" xmlns="http://www.w3.org/2000/svg">
  <defs>
    <pattern id="BGPattern" patternUnits="userSpaceOnUse" alignment="0 0" imageRepeat="None" />
    <mask fill="white" id="Clip414">
      <path d="M 0.11775999999999698 2  C 0.11775999999999698 2.982625026898951  0.9674399713077904 3.779200000000003  2.015573333333336 3.779200000000003  C 3.0637066953588814 3.779200000000003  3.9133866666666677 2.982625026898944  3.9133866666666677 2  C 3.9133866666666677 1.017374973101056  3.0637066953588814 0.220799999999997  2.015573333333336 0.220799999999997  C 0.9674399713077904 0.220799999999997  0.11776000000000408 1.017374973101056  0.11776000000000408 2  Z " fill-rule="evenodd" />
    </mask>
  </defs>
  <g transform="matrix(1 0 0 1 -233 -798 )">
    <path d="M 0.11775999999999698 2  C 0.11775999999999698 2.982625026898951  0.9674399713077904 3.779200000000003  2.015573333333336 3.779200000000003  C 3.0637066953588814 3.779200000000003  3.9133866666666677 2.982625026898944  3.9133866666666677 2  C 3.9133866666666677 1.017374973101056  3.0637066953588814 0.220799999999997  2.015573333333336 0.220799999999997  C 0.9674399713077904 0.220799999999997  0.11776000000000408 1.017374973101056  0.11776000000000408 2  Z " fill-rule="nonzero" fill="rgba(50, 50, 51, 1)" stroke="none" transform="matrix(1 0 0 1 233 798 )" class="fill" />
    <path d="M 0.11775999999999698 2  C 0.11775999999999698 2.982625026898951  0.9674399713077904 3.779200000000003  2.015573333333336 3.779200000000003  C 3.0637066953588814 3.779200000000003  3.9133866666666677 2.982625026898944  3.9133866666666677 2  C 3.9133866666666677 1.017374973101056  3.0637066953588814 0.220799999999997  2.015573333333336 0.220799999999997  C 0.9674399713077904 0.220799999999997  0.11776000000000408 1.017374973101056  0.11776000000000408 2  Z " stroke-width="0" stroke-dasharray="0" stroke="rgba(255, 255, 255, 0)" fill="none" transform="matrix(1 0 0 1 233 798 )" class="stroke" mask="url(#Clip414)" />
  </g>
</svg>