<?xml version="1.0" encoding="utf-8"?>
<svg version="1.1" xmlns:xlink="http://www.w3.org/1999/xlink" width="80px" height="80px" xmlns="http://www.w3.org/2000/svg">
  <defs>
    <pattern id="BGPattern" patternUnits="userSpaceOnUse" alignment="0 0" imageRepeat="None" />
    <mask fill="white" id="Clip236">
      <path d="M 0 76  L 0 4  C 0 1.7599999999999998  1.7599999999999998 0  4 0  L 76 0  C 78.24 0  80 1.7599999999999998  80 4  L 80 76  C 80 78.24  78.24 80  76 80  L 4 80  C 1.7599999999999998 80  0 78.24  0 76  Z " fill-rule="evenodd" />
    </mask>
  </defs>
  <g>
    <path d="M 0 76  L 0 4  C 0 1.7599999999999998  1.7599999999999998 0  4 0  L 76 0  C 78.24 0  80 1.7599999999999998  80 4  L 80 76  C 80 78.24  78.24 80  76 80  L 4 80  C 1.7599999999999998 80  0 78.24  0 76  Z " fill-rule="nonzero" fill="rgba(255, 255, 255, 1)" stroke="none" class="fill" />
    <path d="M 0 76  L 0 4  C 0 1.7599999999999998  1.7599999999999998 0  4 0  L 76 0  C 78.24 0  80 1.7599999999999998  80 4  L 80 76  C 80 78.24  78.24 80  76 80  L 4 80  C 1.7599999999999998 80  0 78.24  0 76  Z " stroke-width="2" stroke-dasharray="3,1" stroke="rgba(235, 237, 240, 1)" fill="none" class="stroke" mask="url(#Clip236)" />
  </g>
</svg>