<?xml version="1.0" encoding="utf-8"?>
<svg version="1.1" xmlns:xlink="http://www.w3.org/1999/xlink" width="20px" height="20px" xmlns="http://www.w3.org/2000/svg">
  <defs>
    <pattern id="BGPattern" patternUnits="userSpaceOnUse" alignment="0 0" imageRepeat="None" />
    <mask fill="white" id="Clip435">
      <path d="M 18.83649504065039 10.846732899729005  L 10.819632628726254 10.846732899729005  L 10.819632628726254 18.863595311653114  C 10.819632628726254 19.37445444444444  10.405469186991866 19.788617886178884  9.894610054200541 19.788617886178884  C 9.383750921409217 19.788617886178884  8.969587479674829 19.37445444444444  8.969587479674829 18.863595311653114  L 8.969587479674829 10.846732899729005  L 0.9527250948509618 10.846732899729005  C 0.4418659620595804 10.846732899729005  0.02770252032519238 10.432569457994589  0.02770249322492191 9.921710325203236  C 0.02770246612470828 9.41085119241194  0.44186593495936677 8.996687750677495  0.9527250948509618 8.996687750677495  L 8.969587479674829 8.996687750677495  L 8.969587479674829 0.9798253658536566  C 8.969587479674829 0.4689662330623321  9.383750921409217 0.054802791327915656  9.894610054200541 0.054802764227645184  C 10.405469186991866 0.05480273712737471  10.819632628726254 0.4689662059620616  10.819632628726254 0.9798253658536566  L 10.819632628726254 8.996687750677495  L 18.83649504065039 8.996687750677495  C 19.347354173441772 8.996687750677495  19.76151761517616 9.41085119241194  19.76151761517616 9.921710325203236  C 19.76151761517616 10.432569457994589  19.347354173441772 10.846732899729005  18.83649504065039 10.846732899729005  Z " fill-rule="evenodd" />
    </mask>
  </defs>
  <g transform="matrix(1 0 0 1 -30 -30 )">
    <path d="M 18.83649504065039 10.846732899729005  L 10.819632628726254 10.846732899729005  L 10.819632628726254 18.863595311653114  C 10.819632628726254 19.37445444444444  10.405469186991866 19.788617886178884  9.894610054200541 19.788617886178884  C 9.383750921409217 19.788617886178884  8.969587479674829 19.37445444444444  8.969587479674829 18.863595311653114  L 8.969587479674829 10.846732899729005  L 0.9527250948509618 10.846732899729005  C 0.4418659620595804 10.846732899729005  0.02770252032519238 10.432569457994589  0.02770249322492191 9.921710325203236  C 0.02770246612470828 9.41085119241194  0.44186593495936677 8.996687750677495  0.9527250948509618 8.996687750677495  L 8.969587479674829 8.996687750677495  L 8.969587479674829 0.9798253658536566  C 8.969587479674829 0.4689662330623321  9.383750921409217 0.054802791327915656  9.894610054200541 0.054802764227645184  C 10.405469186991866 0.05480273712737471  10.819632628726254 0.4689662059620616  10.819632628726254 0.9798253658536566  L 10.819632628726254 8.996687750677495  L 18.83649504065039 8.996687750677495  C 19.347354173441772 8.996687750677495  19.76151761517616 9.41085119241194  19.76151761517616 9.921710325203236  C 19.76151761517616 10.432569457994589  19.347354173441772 10.846732899729005  18.83649504065039 10.846732899729005  Z " fill-rule="nonzero" fill="rgba(151, 152, 153, 1)" stroke="none" transform="matrix(1 0 0 1 30 30 )" class="fill" />
    <path d="M 18.83649504065039 10.846732899729005  L 10.819632628726254 10.846732899729005  L 10.819632628726254 18.863595311653114  C 10.819632628726254 19.37445444444444  10.405469186991866 19.788617886178884  9.894610054200541 19.788617886178884  C 9.383750921409217 19.788617886178884  8.969587479674829 19.37445444444444  8.969587479674829 18.863595311653114  L 8.969587479674829 10.846732899729005  L 0.9527250948509618 10.846732899729005  C 0.4418659620595804 10.846732899729005  0.02770252032519238 10.432569457994589  0.02770249322492191 9.921710325203236  C 0.02770246612470828 9.41085119241194  0.44186593495936677 8.996687750677495  0.9527250948509618 8.996687750677495  L 8.969587479674829 8.996687750677495  L 8.969587479674829 0.9798253658536566  C 8.969587479674829 0.4689662330623321  9.383750921409217 0.054802791327915656  9.894610054200541 0.054802764227645184  C 10.405469186991866 0.05480273712737471  10.819632628726254 0.4689662059620616  10.819632628726254 0.9798253658536566  L 10.819632628726254 8.996687750677495  L 18.83649504065039 8.996687750677495  C 19.347354173441772 8.996687750677495  19.76151761517616 9.41085119241194  19.76151761517616 9.921710325203236  C 19.76151761517616 10.432569457994589  19.347354173441772 10.846732899729005  18.83649504065039 10.846732899729005  Z " stroke-width="0" stroke-dasharray="0" stroke="rgba(255, 255, 255, 0)" fill="none" transform="matrix(1 0 0 1 30 30 )" class="stroke" mask="url(#Clip435)" />
  </g>
</svg>